<?xml version="1.0" encoding="utf-8" standalone="no"?>
<!DOCTYPE svg PUBLIC "-//W3C//DTD SVG 1.1//EN"
  "http://www.w3.org/Graphics/SVG/1.1/DTD/svg11.dtd">
<!-- Created with matplotlib (https://matplotlib.org/) -->
<svg height="360pt" version="1.1" viewBox="0 0 1440 360" width="1440pt" xmlns="http://www.w3.org/2000/svg" xmlns:xlink="http://www.w3.org/1999/xlink">
 <defs>
  <style type="text/css">
*{stroke-linecap:butt;stroke-linejoin:round;}
  </style>
 </defs>
 <g id="figure_1">
  <g id="patch_1">
   <path d="M 0 360 
L 1440 360 
L 1440 0 
L 0 0 
z
" style="fill:#ffffff;"/>
  </g>
  <g id="axes_1">
   <g id="patch_2">
    <path d="M 180 315 
L 508.235294 315 
L 508.235294 43.2 
L 180 43.2 
z
" style="fill:#ffffff;"/>
   </g>
   <g id="matplotlib.axis_1">
    <g id="xtick_1">
     <g id="line2d_1">
      <defs>
       <path d="M 0 0 
L 0 3.5 
" id="m6c71bc30fb" style="stroke:#000000;stroke-width:0.8;"/>
      </defs>
      <g>
       <use style="stroke:#000000;stroke-width:0.8;" x="194.919786" xlink:href="#m6c71bc30fb" y="315"/>
      </g>
     </g>
     <g id="text_1">
      <!-- r -->
      <defs>
       <path d="M 41.109375 46.296875 
Q 39.59375 47.171875 37.8125 47.578125 
Q 36.03125 48 33.890625 48 
Q 26.265625 48 22.1875 43.046875 
Q 18.109375 38.09375 18.109375 28.8125 
L 18.109375 0 
L 9.078125 0 
L 9.078125 54.6875 
L 18.109375 54.6875 
L 18.109375 46.1875 
Q 20.953125 51.171875 25.484375 53.578125 
Q 30.03125 56 36.53125 56 
Q 37.453125 56 38.578125 55.875 
Q 39.703125 55.765625 41.0625 55.515625 
z
" id="DejaVuSans-114"/>
      </defs>
      <g transform="translate(192.864317 329.598437)scale(0.1 -0.1)">
       <use xlink:href="#DejaVuSans-114"/>
      </g>
     </g>
    </g>
    <g id="xtick_2">
     <g id="line2d_2">
      <g>
       <use style="stroke:#000000;stroke-width:0.8;" x="237.547746" xlink:href="#m6c71bc30fb" y="315"/>
      </g>
     </g>
     <g id="text_2">
      <!-- r -->
      <g transform="translate(235.492278 329.598437)scale(0.1 -0.1)">
       <use xlink:href="#DejaVuSans-114"/>
      </g>
     </g>
    </g>
    <g id="xtick_3">
     <g id="line2d_3">
      <g>
       <use style="stroke:#000000;stroke-width:0.8;" x="280.175707" xlink:href="#m6c71bc30fb" y="315"/>
      </g>
     </g>
     <g id="text_3">
      <!-- r -->
      <g transform="translate(278.120238 329.598437)scale(0.1 -0.1)">
       <use xlink:href="#DejaVuSans-114"/>
      </g>
     </g>
    </g>
    <g id="xtick_4">
     <g id="line2d_4">
      <g>
       <use style="stroke:#000000;stroke-width:0.8;" x="408.059587" xlink:href="#m6c71bc30fb" y="315"/>
      </g>
     </g>
     <g id="text_4">
      <!-- u -->
      <defs>
       <path d="M 8.5 21.578125 
L 8.5 54.6875 
L 17.484375 54.6875 
L 17.484375 21.921875 
Q 17.484375 14.15625 20.5 10.265625 
Q 23.53125 6.390625 29.59375 6.390625 
Q 36.859375 6.390625 41.078125 11.03125 
Q 45.3125 15.671875 45.3125 23.6875 
L 45.3125 54.6875 
L 54.296875 54.6875 
L 54.296875 0 
L 45.3125 0 
L 45.3125 8.40625 
Q 42.046875 3.421875 37.71875 1 
Q 33.40625 -1.421875 27.6875 -1.421875 
Q 18.265625 -1.421875 13.375 4.4375 
Q 8.5 10.296875 8.5 21.578125 
z
M 31.109375 56 
z
" id="DejaVuSans-117"/>
      </defs>
      <g transform="translate(404.890837 329.598437)scale(0.1 -0.1)">
       <use xlink:href="#DejaVuSans-117"/>
      </g>
     </g>
    </g>
    <g id="xtick_5">
     <g id="line2d_5">
      <g>
       <use style="stroke:#000000;stroke-width:0.8;" x="450.687548" xlink:href="#m6c71bc30fb" y="315"/>
      </g>
     </g>
     <g id="text_5">
      <!-- u -->
      <g transform="translate(447.518798 329.598437)scale(0.1 -0.1)">
       <use xlink:href="#DejaVuSans-117"/>
      </g>
     </g>
    </g>
    <g id="xtick_6">
     <g id="line2d_6">
      <g>
       <use style="stroke:#000000;stroke-width:0.8;" x="493.315508" xlink:href="#m6c71bc30fb" y="315"/>
      </g>
     </g>
     <g id="text_6">
      <!-- u -->
      <g transform="translate(490.146758 329.598437)scale(0.1 -0.1)">
       <use xlink:href="#DejaVuSans-117"/>
      </g>
     </g>
    </g>
    <g id="text_7">
     <!-- Różnorodność danych -->
     <defs>
      <path d="M 44.390625 34.1875 
Q 47.5625 33.109375 50.5625 29.59375 
Q 53.5625 26.078125 56.59375 19.921875 
L 66.609375 0 
L 56 0 
L 46.6875 18.703125 
Q 43.0625 26.03125 39.671875 28.421875 
Q 36.28125 30.8125 30.421875 30.8125 
L 19.671875 30.8125 
L 19.671875 0 
L 9.8125 0 
L 9.8125 72.90625 
L 32.078125 72.90625 
Q 44.578125 72.90625 50.734375 67.671875 
Q 56.890625 62.453125 56.890625 51.90625 
Q 56.890625 45.015625 53.6875 40.46875 
Q 50.484375 35.9375 44.390625 34.1875 
z
M 19.671875 64.796875 
L 19.671875 38.921875 
L 32.078125 38.921875 
Q 39.203125 38.921875 42.84375 42.21875 
Q 46.484375 45.515625 46.484375 51.90625 
Q 46.484375 58.296875 42.84375 61.546875 
Q 39.203125 64.796875 32.078125 64.796875 
z
" id="DejaVuSans-82"/>
      <path d="M 30.609375 48.390625 
Q 23.390625 48.390625 19.1875 42.75 
Q 14.984375 37.109375 14.984375 27.296875 
Q 14.984375 17.484375 19.15625 11.84375 
Q 23.34375 6.203125 30.609375 6.203125 
Q 37.796875 6.203125 41.984375 11.859375 
Q 46.1875 17.53125 46.1875 27.296875 
Q 46.1875 37.015625 41.984375 42.703125 
Q 37.796875 48.390625 30.609375 48.390625 
z
M 30.609375 56 
Q 42.328125 56 49.015625 48.375 
Q 55.71875 40.765625 55.71875 27.296875 
Q 55.71875 13.875 49.015625 6.21875 
Q 42.328125 -1.421875 30.609375 -1.421875 
Q 18.84375 -1.421875 12.171875 6.21875 
Q 5.515625 13.875 5.515625 27.296875 
Q 5.515625 40.765625 12.171875 48.375 
Q 18.84375 56 30.609375 56 
z
M 37.40625 79.984375 
L 47.125 79.984375 
L 31.21875 61.625 
L 23.734375 61.625 
z
" id="DejaVuSans-243"/>
      <path d="M 21.53125 75.984375 
L 30.515625 75.984375 
L 30.515625 64.59375 
L 21.53125 64.59375 
z
M 26.125 56 
z
M 5.515625 54.6875 
L 48.1875 54.6875 
L 48.1875 46.484375 
L 14.40625 7.171875 
L 48.1875 7.171875 
L 48.1875 0 
L 4.296875 0 
L 4.296875 8.203125 
L 38.09375 47.515625 
L 5.515625 47.515625 
z
" id="DejaVuSans-380"/>
      <path d="M 54.890625 33.015625 
L 54.890625 0 
L 45.90625 0 
L 45.90625 32.71875 
Q 45.90625 40.484375 42.875 44.328125 
Q 39.84375 48.1875 33.796875 48.1875 
Q 26.515625 48.1875 22.3125 43.546875 
Q 18.109375 38.921875 18.109375 30.90625 
L 18.109375 0 
L 9.078125 0 
L 9.078125 54.6875 
L 18.109375 54.6875 
L 18.109375 46.1875 
Q 21.34375 51.125 25.703125 53.5625 
Q 30.078125 56 35.796875 56 
Q 45.21875 56 50.046875 50.171875 
Q 54.890625 44.34375 54.890625 33.015625 
z
" id="DejaVuSans-110"/>
      <path d="M 30.609375 48.390625 
Q 23.390625 48.390625 19.1875 42.75 
Q 14.984375 37.109375 14.984375 27.296875 
Q 14.984375 17.484375 19.15625 11.84375 
Q 23.34375 6.203125 30.609375 6.203125 
Q 37.796875 6.203125 41.984375 11.859375 
Q 46.1875 17.53125 46.1875 27.296875 
Q 46.1875 37.015625 41.984375 42.703125 
Q 37.796875 48.390625 30.609375 48.390625 
z
M 30.609375 56 
Q 42.328125 56 49.015625 48.375 
Q 55.71875 40.765625 55.71875 27.296875 
Q 55.71875 13.875 49.015625 6.21875 
Q 42.328125 -1.421875 30.609375 -1.421875 
Q 18.84375 -1.421875 12.171875 6.21875 
Q 5.515625 13.875 5.515625 27.296875 
Q 5.515625 40.765625 12.171875 48.375 
Q 18.84375 56 30.609375 56 
z
" id="DejaVuSans-111"/>
      <path d="M 45.40625 46.390625 
L 45.40625 75.984375 
L 54.390625 75.984375 
L 54.390625 0 
L 45.40625 0 
L 45.40625 8.203125 
Q 42.578125 3.328125 38.25 0.953125 
Q 33.9375 -1.421875 27.875 -1.421875 
Q 17.96875 -1.421875 11.734375 6.484375 
Q 5.515625 14.40625 5.515625 27.296875 
Q 5.515625 40.1875 11.734375 48.09375 
Q 17.96875 56 27.875 56 
Q 33.9375 56 38.25 53.625 
Q 42.578125 51.265625 45.40625 46.390625 
z
M 14.796875 27.296875 
Q 14.796875 17.390625 18.875 11.75 
Q 22.953125 6.109375 30.078125 6.109375 
Q 37.203125 6.109375 41.296875 11.75 
Q 45.40625 17.390625 45.40625 27.296875 
Q 45.40625 37.203125 41.296875 42.84375 
Q 37.203125 48.484375 30.078125 48.484375 
Q 22.953125 48.484375 18.875 42.84375 
Q 14.796875 37.203125 14.796875 27.296875 
z
" id="DejaVuSans-100"/>
      <path d="M 35.03125 79.984375 
L 44.75 79.984375 
L 28.84375 61.625 
L 21.359375 61.625 
z
M 44.28125 53.078125 
L 44.28125 44.578125 
Q 40.484375 46.53125 36.375 47.5 
Q 32.28125 48.484375 27.875 48.484375 
Q 21.1875 48.484375 17.84375 46.4375 
Q 14.5 44.390625 14.5 40.28125 
Q 14.5 37.15625 16.890625 35.375 
Q 19.28125 33.59375 26.515625 31.984375 
L 29.59375 31.296875 
Q 39.15625 29.25 43.1875 25.515625 
Q 47.21875 21.78125 47.21875 15.09375 
Q 47.21875 7.46875 41.1875 3.015625 
Q 35.15625 -1.421875 24.609375 -1.421875 
Q 20.21875 -1.421875 15.453125 -0.5625 
Q 10.6875 0.296875 5.421875 2 
L 5.421875 11.28125 
Q 10.40625 8.6875 15.234375 7.390625 
Q 20.0625 6.109375 24.8125 6.109375 
Q 31.15625 6.109375 34.5625 8.28125 
Q 37.984375 10.453125 37.984375 14.40625 
Q 37.984375 18.0625 35.515625 20.015625 
Q 33.0625 21.96875 24.703125 23.78125 
L 21.578125 24.515625 
Q 13.234375 26.265625 9.515625 29.90625 
Q 5.8125 33.546875 5.8125 39.890625 
Q 5.8125 47.609375 11.28125 51.796875 
Q 16.75 56 26.8125 56 
Q 31.78125 56 36.171875 55.265625 
Q 40.578125 54.546875 44.28125 53.078125 
z
" id="DejaVuSans-347"/>
      <path d="M 48.78125 52.59375 
L 48.78125 44.1875 
Q 44.96875 46.296875 41.140625 47.34375 
Q 37.3125 48.390625 33.40625 48.390625 
Q 24.65625 48.390625 19.8125 42.84375 
Q 14.984375 37.3125 14.984375 27.296875 
Q 14.984375 17.28125 19.8125 11.734375 
Q 24.65625 6.203125 33.40625 6.203125 
Q 37.3125 6.203125 41.140625 7.25 
Q 44.96875 8.296875 48.78125 10.40625 
L 48.78125 2.09375 
Q 45.015625 0.34375 40.984375 -0.53125 
Q 36.96875 -1.421875 32.421875 -1.421875 
Q 20.0625 -1.421875 12.78125 6.34375 
Q 5.515625 14.109375 5.515625 27.296875 
Q 5.515625 40.671875 12.859375 48.328125 
Q 20.21875 56 33.015625 56 
Q 37.15625 56 41.109375 55.140625 
Q 45.0625 54.296875 48.78125 52.59375 
z
M 38.53125 79.984375 
L 48.25 79.984375 
L 32.34375 61.625 
L 24.859375 61.625 
z
" id="DejaVuSans-263"/>
      <path id="DejaVuSans-32"/>
      <path d="M 34.28125 27.484375 
Q 23.390625 27.484375 19.1875 25 
Q 14.984375 22.515625 14.984375 16.5 
Q 14.984375 11.71875 18.140625 8.90625 
Q 21.296875 6.109375 26.703125 6.109375 
Q 34.1875 6.109375 38.703125 11.40625 
Q 43.21875 16.703125 43.21875 25.484375 
L 43.21875 27.484375 
z
M 52.203125 31.203125 
L 52.203125 0 
L 43.21875 0 
L 43.21875 8.296875 
Q 40.140625 3.328125 35.546875 0.953125 
Q 30.953125 -1.421875 24.3125 -1.421875 
Q 15.921875 -1.421875 10.953125 3.296875 
Q 6 8.015625 6 15.921875 
Q 6 25.140625 12.171875 29.828125 
Q 18.359375 34.515625 30.609375 34.515625 
L 43.21875 34.515625 
L 43.21875 35.40625 
Q 43.21875 41.609375 39.140625 45 
Q 35.0625 48.390625 27.6875 48.390625 
Q 23 48.390625 18.546875 47.265625 
Q 14.109375 46.140625 10.015625 43.890625 
L 10.015625 52.203125 
Q 14.9375 54.109375 19.578125 55.046875 
Q 24.21875 56 28.609375 56 
Q 40.484375 56 46.34375 49.84375 
Q 52.203125 43.703125 52.203125 31.203125 
z
" id="DejaVuSans-97"/>
      <path d="M 32.171875 -5.078125 
Q 28.375 -14.84375 24.75 -17.8125 
Q 21.140625 -20.796875 15.09375 -20.796875 
L 7.90625 -20.796875 
L 7.90625 -13.28125 
L 13.1875 -13.28125 
Q 16.890625 -13.28125 18.9375 -11.515625 
Q 21 -9.765625 23.484375 -3.21875 
L 25.09375 0.875 
L 2.984375 54.6875 
L 12.5 54.6875 
L 29.59375 11.921875 
L 46.6875 54.6875 
L 56.203125 54.6875 
z
" id="DejaVuSans-121"/>
      <path d="M 48.78125 52.59375 
L 48.78125 44.1875 
Q 44.96875 46.296875 41.140625 47.34375 
Q 37.3125 48.390625 33.40625 48.390625 
Q 24.65625 48.390625 19.8125 42.84375 
Q 14.984375 37.3125 14.984375 27.296875 
Q 14.984375 17.28125 19.8125 11.734375 
Q 24.65625 6.203125 33.40625 6.203125 
Q 37.3125 6.203125 41.140625 7.25 
Q 44.96875 8.296875 48.78125 10.40625 
L 48.78125 2.09375 
Q 45.015625 0.34375 40.984375 -0.53125 
Q 36.96875 -1.421875 32.421875 -1.421875 
Q 20.0625 -1.421875 12.78125 6.34375 
Q 5.515625 14.109375 5.515625 27.296875 
Q 5.515625 40.671875 12.859375 48.328125 
Q 20.21875 56 33.015625 56 
Q 37.15625 56 41.109375 55.140625 
Q 45.0625 54.296875 48.78125 52.59375 
z
" id="DejaVuSans-99"/>
      <path d="M 54.890625 33.015625 
L 54.890625 0 
L 45.90625 0 
L 45.90625 32.71875 
Q 45.90625 40.484375 42.875 44.328125 
Q 39.84375 48.1875 33.796875 48.1875 
Q 26.515625 48.1875 22.3125 43.546875 
Q 18.109375 38.921875 18.109375 30.90625 
L 18.109375 0 
L 9.078125 0 
L 9.078125 75.984375 
L 18.109375 75.984375 
L 18.109375 46.1875 
Q 21.34375 51.125 25.703125 53.5625 
Q 30.078125 56 35.796875 56 
Q 45.21875 56 50.046875 50.171875 
Q 54.890625 44.34375 54.890625 33.015625 
z
" id="DejaVuSans-104"/>
     </defs>
     <g transform="translate(288.991866 343.676562)scale(0.1 -0.1)">
      <use xlink:href="#DejaVuSans-82"/>
      <use x="69.419922" xlink:href="#DejaVuSans-243"/>
      <use x="130.601562" xlink:href="#DejaVuSans-380"/>
      <use x="183.091797" xlink:href="#DejaVuSans-110"/>
      <use x="246.470703" xlink:href="#DejaVuSans-111"/>
      <use x="307.652344" xlink:href="#DejaVuSans-114"/>
      <use x="348.734375" xlink:href="#DejaVuSans-111"/>
      <use x="409.916016" xlink:href="#DejaVuSans-100"/>
      <use x="473.392578" xlink:href="#DejaVuSans-110"/>
      <use x="536.771484" xlink:href="#DejaVuSans-111"/>
      <use x="597.953125" xlink:href="#DejaVuSans-347"/>
      <use x="650.052734" xlink:href="#DejaVuSans-263"/>
      <use x="705.033203" xlink:href="#DejaVuSans-32"/>
      <use x="736.820312" xlink:href="#DejaVuSans-100"/>
      <use x="800.296875" xlink:href="#DejaVuSans-97"/>
      <use x="861.576172" xlink:href="#DejaVuSans-110"/>
      <use x="924.955078" xlink:href="#DejaVuSans-121"/>
      <use x="984.134766" xlink:href="#DejaVuSans-99"/>
      <use x="1039.115234" xlink:href="#DejaVuSans-104"/>
     </g>
    </g>
   </g>
   <g id="matplotlib.axis_2">
    <g id="ytick_1">
     <g id="line2d_7">
      <defs>
       <path d="M 0 0 
L -3.5 0 
" id="mb5c1518c88" style="stroke:#000000;stroke-width:0.8;"/>
      </defs>
      <g>
       <use style="stroke:#000000;stroke-width:0.8;" x="180" xlink:href="#mb5c1518c88" y="313.11996"/>
      </g>
     </g>
     <g id="text_8">
      <!-- 0 -->
      <defs>
       <path d="M 31.78125 66.40625 
Q 24.171875 66.40625 20.328125 58.90625 
Q 16.5 51.421875 16.5 36.375 
Q 16.5 21.390625 20.328125 13.890625 
Q 24.171875 6.390625 31.78125 6.390625 
Q 39.453125 6.390625 43.28125 13.890625 
Q 47.125 21.390625 47.125 36.375 
Q 47.125 51.421875 43.28125 58.90625 
Q 39.453125 66.40625 31.78125 66.40625 
z
M 31.78125 74.21875 
Q 44.046875 74.21875 50.515625 64.515625 
Q 56.984375 54.828125 56.984375 36.375 
Q 56.984375 17.96875 50.515625 8.265625 
Q 44.046875 -1.421875 31.78125 -1.421875 
Q 19.53125 -1.421875 13.0625 8.265625 
Q 6.59375 17.96875 6.59375 36.375 
Q 6.59375 54.828125 13.0625 64.515625 
Q 19.53125 74.21875 31.78125 74.21875 
z
" id="DejaVuSans-48"/>
      </defs>
      <g transform="translate(166.6375 316.919179)scale(0.1 -0.1)">
       <use xlink:href="#DejaVuSans-48"/>
      </g>
     </g>
    </g>
    <g id="ytick_2">
     <g id="line2d_8">
      <g>
       <use style="stroke:#000000;stroke-width:0.8;" x="180" xlink:href="#mb5c1518c88" y="264.287765"/>
      </g>
     </g>
     <g id="text_9">
      <!-- 20 -->
      <defs>
       <path d="M 19.1875 8.296875 
L 53.609375 8.296875 
L 53.609375 0 
L 7.328125 0 
L 7.328125 8.296875 
Q 12.9375 14.109375 22.625 23.890625 
Q 32.328125 33.6875 34.8125 36.53125 
Q 39.546875 41.84375 41.421875 45.53125 
Q 43.3125 49.21875 43.3125 52.78125 
Q 43.3125 58.59375 39.234375 62.25 
Q 35.15625 65.921875 28.609375 65.921875 
Q 23.96875 65.921875 18.8125 64.3125 
Q 13.671875 62.703125 7.8125 59.421875 
L 7.8125 69.390625 
Q 13.765625 71.78125 18.9375 73 
Q 24.125 74.21875 28.421875 74.21875 
Q 39.75 74.21875 46.484375 68.546875 
Q 53.21875 62.890625 53.21875 53.421875 
Q 53.21875 48.921875 51.53125 44.890625 
Q 49.859375 40.875 45.40625 35.40625 
Q 44.1875 33.984375 37.640625 27.21875 
Q 31.109375 20.453125 19.1875 8.296875 
z
" id="DejaVuSans-50"/>
      </defs>
      <g transform="translate(160.275 268.086984)scale(0.1 -0.1)">
       <use xlink:href="#DejaVuSans-50"/>
       <use x="63.623047" xlink:href="#DejaVuSans-48"/>
      </g>
     </g>
    </g>
    <g id="ytick_3">
     <g id="line2d_9">
      <g>
       <use style="stroke:#000000;stroke-width:0.8;" x="180" xlink:href="#mb5c1518c88" y="215.45557"/>
      </g>
     </g>
     <g id="text_10">
      <!-- 40 -->
      <defs>
       <path d="M 37.796875 64.3125 
L 12.890625 25.390625 
L 37.796875 25.390625 
z
M 35.203125 72.90625 
L 47.609375 72.90625 
L 47.609375 25.390625 
L 58.015625 25.390625 
L 58.015625 17.1875 
L 47.609375 17.1875 
L 47.609375 0 
L 37.796875 0 
L 37.796875 17.1875 
L 4.890625 17.1875 
L 4.890625 26.703125 
z
" id="DejaVuSans-52"/>
      </defs>
      <g transform="translate(160.275 219.254788)scale(0.1 -0.1)">
       <use xlink:href="#DejaVuSans-52"/>
       <use x="63.623047" xlink:href="#DejaVuSans-48"/>
      </g>
     </g>
    </g>
    <g id="ytick_4">
     <g id="line2d_10">
      <g>
       <use style="stroke:#000000;stroke-width:0.8;" x="180" xlink:href="#mb5c1518c88" y="166.623374"/>
      </g>
     </g>
     <g id="text_11">
      <!-- 60 -->
      <defs>
       <path d="M 33.015625 40.375 
Q 26.375 40.375 22.484375 35.828125 
Q 18.609375 31.296875 18.609375 23.390625 
Q 18.609375 15.53125 22.484375 10.953125 
Q 26.375 6.390625 33.015625 6.390625 
Q 39.65625 6.390625 43.53125 10.953125 
Q 47.40625 15.53125 47.40625 23.390625 
Q 47.40625 31.296875 43.53125 35.828125 
Q 39.65625 40.375 33.015625 40.375 
z
M 52.59375 71.296875 
L 52.59375 62.3125 
Q 48.875 64.0625 45.09375 64.984375 
Q 41.3125 65.921875 37.59375 65.921875 
Q 27.828125 65.921875 22.671875 59.328125 
Q 17.53125 52.734375 16.796875 39.40625 
Q 19.671875 43.65625 24.015625 45.921875 
Q 28.375 48.1875 33.59375 48.1875 
Q 44.578125 48.1875 50.953125 41.515625 
Q 57.328125 34.859375 57.328125 23.390625 
Q 57.328125 12.15625 50.6875 5.359375 
Q 44.046875 -1.421875 33.015625 -1.421875 
Q 20.359375 -1.421875 13.671875 8.265625 
Q 6.984375 17.96875 6.984375 36.375 
Q 6.984375 53.65625 15.1875 63.9375 
Q 23.390625 74.21875 37.203125 74.21875 
Q 40.921875 74.21875 44.703125 73.484375 
Q 48.484375 72.75 52.59375 71.296875 
z
" id="DejaVuSans-54"/>
      </defs>
      <g transform="translate(160.275 170.422593)scale(0.1 -0.1)">
       <use xlink:href="#DejaVuSans-54"/>
       <use x="63.623047" xlink:href="#DejaVuSans-48"/>
      </g>
     </g>
    </g>
    <g id="ytick_5">
     <g id="line2d_11">
      <g>
       <use style="stroke:#000000;stroke-width:0.8;" x="180" xlink:href="#mb5c1518c88" y="117.791179"/>
      </g>
     </g>
     <g id="text_12">
      <!-- 80 -->
      <defs>
       <path d="M 31.78125 34.625 
Q 24.75 34.625 20.71875 30.859375 
Q 16.703125 27.09375 16.703125 20.515625 
Q 16.703125 13.921875 20.71875 10.15625 
Q 24.75 6.390625 31.78125 6.390625 
Q 38.8125 6.390625 42.859375 10.171875 
Q 46.921875 13.96875 46.921875 20.515625 
Q 46.921875 27.09375 42.890625 30.859375 
Q 38.875 34.625 31.78125 34.625 
z
M 21.921875 38.8125 
Q 15.578125 40.375 12.03125 44.71875 
Q 8.5 49.078125 8.5 55.328125 
Q 8.5 64.0625 14.71875 69.140625 
Q 20.953125 74.21875 31.78125 74.21875 
Q 42.671875 74.21875 48.875 69.140625 
Q 55.078125 64.0625 55.078125 55.328125 
Q 55.078125 49.078125 51.53125 44.71875 
Q 48 40.375 41.703125 38.8125 
Q 48.828125 37.15625 52.796875 32.3125 
Q 56.78125 27.484375 56.78125 20.515625 
Q 56.78125 9.90625 50.3125 4.234375 
Q 43.84375 -1.421875 31.78125 -1.421875 
Q 19.734375 -1.421875 13.25 4.234375 
Q 6.78125 9.90625 6.78125 20.515625 
Q 6.78125 27.484375 10.78125 32.3125 
Q 14.796875 37.15625 21.921875 38.8125 
z
M 18.3125 54.390625 
Q 18.3125 48.734375 21.84375 45.5625 
Q 25.390625 42.390625 31.78125 42.390625 
Q 38.140625 42.390625 41.71875 45.5625 
Q 45.3125 48.734375 45.3125 54.390625 
Q 45.3125 60.0625 41.71875 63.234375 
Q 38.140625 66.40625 31.78125 66.40625 
Q 25.390625 66.40625 21.84375 63.234375 
Q 18.3125 60.0625 18.3125 54.390625 
z
" id="DejaVuSans-56"/>
      </defs>
      <g transform="translate(160.275 121.590397)scale(0.1 -0.1)">
       <use xlink:href="#DejaVuSans-56"/>
       <use x="63.623047" xlink:href="#DejaVuSans-48"/>
      </g>
     </g>
    </g>
    <g id="ytick_6">
     <g id="line2d_12">
      <g>
       <use style="stroke:#000000;stroke-width:0.8;" x="180" xlink:href="#mb5c1518c88" y="68.958983"/>
      </g>
     </g>
     <g id="text_13">
      <!-- 100 -->
      <defs>
       <path d="M 12.40625 8.296875 
L 28.515625 8.296875 
L 28.515625 63.921875 
L 10.984375 60.40625 
L 10.984375 69.390625 
L 28.421875 72.90625 
L 38.28125 72.90625 
L 38.28125 8.296875 
L 54.390625 8.296875 
L 54.390625 0 
L 12.40625 0 
z
" id="DejaVuSans-49"/>
      </defs>
      <g transform="translate(153.9125 72.758202)scale(0.1 -0.1)">
       <use xlink:href="#DejaVuSans-49"/>
       <use x="63.623047" xlink:href="#DejaVuSans-48"/>
       <use x="127.246094" xlink:href="#DejaVuSans-48"/>
      </g>
     </g>
    </g>
    <g id="text_14">
     <!-- Czas [s] -->
     <defs>
      <path d="M 64.40625 67.28125 
L 64.40625 56.890625 
Q 59.421875 61.53125 53.78125 63.8125 
Q 48.140625 66.109375 41.796875 66.109375 
Q 29.296875 66.109375 22.65625 58.46875 
Q 16.015625 50.828125 16.015625 36.375 
Q 16.015625 21.96875 22.65625 14.328125 
Q 29.296875 6.6875 41.796875 6.6875 
Q 48.140625 6.6875 53.78125 8.984375 
Q 59.421875 11.28125 64.40625 15.921875 
L 64.40625 5.609375 
Q 59.234375 2.09375 53.4375 0.328125 
Q 47.65625 -1.421875 41.21875 -1.421875 
Q 24.65625 -1.421875 15.125 8.703125 
Q 5.609375 18.84375 5.609375 36.375 
Q 5.609375 53.953125 15.125 64.078125 
Q 24.65625 74.21875 41.21875 74.21875 
Q 47.75 74.21875 53.53125 72.484375 
Q 59.328125 70.75 64.40625 67.28125 
z
" id="DejaVuSans-67"/>
      <path d="M 5.515625 54.6875 
L 48.1875 54.6875 
L 48.1875 46.484375 
L 14.40625 7.171875 
L 48.1875 7.171875 
L 48.1875 0 
L 4.296875 0 
L 4.296875 8.203125 
L 38.09375 47.515625 
L 5.515625 47.515625 
z
" id="DejaVuSans-122"/>
      <path d="M 44.28125 53.078125 
L 44.28125 44.578125 
Q 40.484375 46.53125 36.375 47.5 
Q 32.28125 48.484375 27.875 48.484375 
Q 21.1875 48.484375 17.84375 46.4375 
Q 14.5 44.390625 14.5 40.28125 
Q 14.5 37.15625 16.890625 35.375 
Q 19.28125 33.59375 26.515625 31.984375 
L 29.59375 31.296875 
Q 39.15625 29.25 43.1875 25.515625 
Q 47.21875 21.78125 47.21875 15.09375 
Q 47.21875 7.46875 41.1875 3.015625 
Q 35.15625 -1.421875 24.609375 -1.421875 
Q 20.21875 -1.421875 15.453125 -0.5625 
Q 10.6875 0.296875 5.421875 2 
L 5.421875 11.28125 
Q 10.40625 8.6875 15.234375 7.390625 
Q 20.0625 6.109375 24.8125 6.109375 
Q 31.15625 6.109375 34.5625 8.28125 
Q 37.984375 10.453125 37.984375 14.40625 
Q 37.984375 18.0625 35.515625 20.015625 
Q 33.0625 21.96875 24.703125 23.78125 
L 21.578125 24.515625 
Q 13.234375 26.265625 9.515625 29.90625 
Q 5.8125 33.546875 5.8125 39.890625 
Q 5.8125 47.609375 11.28125 51.796875 
Q 16.75 56 26.8125 56 
Q 31.78125 56 36.171875 55.265625 
Q 40.578125 54.546875 44.28125 53.078125 
z
" id="DejaVuSans-115"/>
      <path d="M 8.59375 75.984375 
L 29.296875 75.984375 
L 29.296875 69 
L 17.578125 69 
L 17.578125 -6.203125 
L 29.296875 -6.203125 
L 29.296875 -13.1875 
L 8.59375 -13.1875 
z
" id="DejaVuSans-91"/>
      <path d="M 30.421875 75.984375 
L 30.421875 -13.1875 
L 9.71875 -13.1875 
L 9.71875 -6.203125 
L 21.390625 -6.203125 
L 21.390625 69 
L 9.71875 69 
L 9.71875 75.984375 
z
" id="DejaVuSans-93"/>
     </defs>
     <g transform="translate(147.832812 198.979688)rotate(-90)scale(0.1 -0.1)">
      <use xlink:href="#DejaVuSans-67"/>
      <use x="69.824219" xlink:href="#DejaVuSans-122"/>
      <use x="122.314453" xlink:href="#DejaVuSans-97"/>
      <use x="183.59375" xlink:href="#DejaVuSans-115"/>
      <use x="235.693359" xlink:href="#DejaVuSans-32"/>
      <use x="267.480469" xlink:href="#DejaVuSans-91"/>
      <use x="306.494141" xlink:href="#DejaVuSans-115"/>
      <use x="358.59375" xlink:href="#DejaVuSans-93"/>
     </g>
    </g>
   </g>
   <g id="LineCollection_1">
    <path clip-path="url(#p571236add2)" d="M 194.919786 297.42041 
L 194.919786 123.113888 
" style="fill:none;stroke:#808080;stroke-width:2;"/>
    <path clip-path="url(#p571236add2)" d="M 408.059587 292.683687 
L 408.059587 126.287981 
" style="fill:none;stroke:#808080;stroke-width:2;"/>
   </g>
   <g id="LineCollection_2">
    <path clip-path="url(#p571236add2)" d="M 237.547746 300.42359 
L 237.547746 104.655318 
" style="fill:none;stroke:#808080;stroke-width:2;"/>
    <path clip-path="url(#p571236add2)" d="M 450.687548 296.468182 
L 450.687548 55.554545 
" style="fill:none;stroke:#808080;stroke-width:2;"/>
   </g>
   <g id="LineCollection_3">
    <path clip-path="url(#p571236add2)" d="M 280.175707 302.645455 
L 280.175707 280.719799 
" style="fill:none;stroke:#808080;stroke-width:2;"/>
    <path clip-path="url(#p571236add2)" d="M 493.315508 301.619978 
L 493.315508 269.463978 
" style="fill:none;stroke:#808080;stroke-width:2;"/>
   </g>
   <g id="line2d_13">
    <defs>
     <path d="M 0 3 
C 0.795609 3 1.55874 2.683901 2.12132 2.12132 
C 2.683901 1.55874 3 0.795609 3 0 
C 3 -0.795609 2.683901 -1.55874 2.12132 -2.12132 
C 1.55874 -2.683901 0.795609 -3 0 -3 
C -0.795609 -3 -1.55874 -2.683901 -2.12132 -2.12132 
C -2.683901 -1.55874 -3 -0.795609 -3 0 
C -3 0.795609 -2.683901 1.55874 -2.12132 2.12132 
C -1.55874 2.683901 -0.795609 3 0 3 
z
" id="m38a03eee2b" style="stroke:#ff0000;"/>
    </defs>
    <g clip-path="url(#p571236add2)">
     <use style="fill:#ff0000;stroke:#ff0000;" x="194.919786" xlink:href="#m38a03eee2b" y="246.360245"/>
     <use style="fill:#ff0000;stroke:#ff0000;" x="408.059587" xlink:href="#m38a03eee2b" y="246.64103"/>
    </g>
   </g>
   <g id="line2d_14">
    <defs>
     <path d="M 0 3 
C 0.795609 3 1.55874 2.683901 2.12132 2.12132 
C 2.683901 1.55874 3 0.795609 3 0 
C 3 -0.795609 2.683901 -1.55874 2.12132 -2.12132 
C 1.55874 -2.683901 0.795609 -3 0 -3 
C -0.795609 -3 -1.55874 -2.683901 -2.12132 -2.12132 
C -2.683901 -1.55874 -3 -0.795609 -3 0 
C -3 0.795609 -2.683901 1.55874 -2.12132 2.12132 
C -1.55874 2.683901 -0.795609 3 0 3 
z
" id="m81d3997185" style="stroke:#008000;"/>
    </defs>
    <g clip-path="url(#p571236add2)">
     <use style="fill:#008000;stroke:#008000;" x="237.547746" xlink:href="#m81d3997185" y="233.773747"/>
     <use style="fill:#008000;stroke:#008000;" x="450.687548" xlink:href="#m81d3997185" y="235.647682"/>
    </g>
   </g>
   <g id="line2d_15">
    <defs>
     <path d="M 0 3 
C 0.795609 3 1.55874 2.683901 2.12132 2.12132 
C 2.683901 1.55874 3 0.795609 3 0 
C 3 -0.795609 2.683901 -1.55874 2.12132 -2.12132 
C 1.55874 -2.683901 0.795609 -3 0 -3 
C -0.795609 -3 -1.55874 -2.683901 -2.12132 -2.12132 
C -2.683901 -1.55874 -3 -0.795609 -3 0 
C -3 0.795609 -2.683901 1.55874 -2.12132 2.12132 
C -1.55874 2.683901 -0.795609 3 0 3 
z
" id="me1cf99cabe" style="stroke:#0000ff;"/>
    </defs>
    <g clip-path="url(#p571236add2)">
     <use style="fill:#0000ff;stroke:#0000ff;" x="280.175707" xlink:href="#me1cf99cabe" y="294.984904"/>
     <use style="fill:#0000ff;stroke:#0000ff;" x="493.315508" xlink:href="#me1cf99cabe" y="292.817975"/>
    </g>
   </g>
   <g id="patch_3">
    <path d="M 180 315 
L 180 43.2 
" style="fill:none;stroke:#000000;stroke-linecap:square;stroke-linejoin:miter;stroke-width:0.8;"/>
   </g>
   <g id="patch_4">
    <path d="M 508.235294 315 
L 508.235294 43.2 
" style="fill:none;stroke:#000000;stroke-linecap:square;stroke-linejoin:miter;stroke-width:0.8;"/>
   </g>
   <g id="patch_5">
    <path d="M 180 315 
L 508.235294 315 
" style="fill:none;stroke:#000000;stroke-linecap:square;stroke-linejoin:miter;stroke-width:0.8;"/>
   </g>
   <g id="patch_6">
    <path d="M 180 43.2 
L 508.235294 43.2 
" style="fill:none;stroke:#000000;stroke-linecap:square;stroke-linejoin:miter;stroke-width:0.8;"/>
   </g>
   <g id="text_15">
    <!-- Czas obliczeń w zależności -->
    <defs>
     <path d="M 48.6875 27.296875 
Q 48.6875 37.203125 44.609375 42.84375 
Q 40.53125 48.484375 33.40625 48.484375 
Q 26.265625 48.484375 22.1875 42.84375 
Q 18.109375 37.203125 18.109375 27.296875 
Q 18.109375 17.390625 22.1875 11.75 
Q 26.265625 6.109375 33.40625 6.109375 
Q 40.53125 6.109375 44.609375 11.75 
Q 48.6875 17.390625 48.6875 27.296875 
z
M 18.109375 46.390625 
Q 20.953125 51.265625 25.265625 53.625 
Q 29.59375 56 35.59375 56 
Q 45.5625 56 51.78125 48.09375 
Q 58.015625 40.1875 58.015625 27.296875 
Q 58.015625 14.40625 51.78125 6.484375 
Q 45.5625 -1.421875 35.59375 -1.421875 
Q 29.59375 -1.421875 25.265625 0.953125 
Q 20.953125 3.328125 18.109375 8.203125 
L 18.109375 0 
L 9.078125 0 
L 9.078125 75.984375 
L 18.109375 75.984375 
z
" id="DejaVuSans-98"/>
     <path d="M 9.421875 75.984375 
L 18.40625 75.984375 
L 18.40625 0 
L 9.421875 0 
z
" id="DejaVuSans-108"/>
     <path d="M 9.421875 54.6875 
L 18.40625 54.6875 
L 18.40625 0 
L 9.421875 0 
z
M 9.421875 75.984375 
L 18.40625 75.984375 
L 18.40625 64.59375 
L 9.421875 64.59375 
z
" id="DejaVuSans-105"/>
     <path d="M 56.203125 29.59375 
L 56.203125 25.203125 
L 14.890625 25.203125 
Q 15.484375 15.921875 20.484375 11.0625 
Q 25.484375 6.203125 34.421875 6.203125 
Q 39.59375 6.203125 44.453125 7.46875 
Q 49.3125 8.734375 54.109375 11.28125 
L 54.109375 2.78125 
Q 49.265625 0.734375 44.1875 -0.34375 
Q 39.109375 -1.421875 33.890625 -1.421875 
Q 20.796875 -1.421875 13.15625 6.1875 
Q 5.515625 13.8125 5.515625 26.8125 
Q 5.515625 40.234375 12.765625 48.109375 
Q 20.015625 56 32.328125 56 
Q 43.359375 56 49.78125 48.890625 
Q 56.203125 41.796875 56.203125 29.59375 
z
M 47.21875 32.234375 
Q 47.125 39.59375 43.09375 43.984375 
Q 39.0625 48.390625 32.421875 48.390625 
Q 24.90625 48.390625 20.390625 44.140625 
Q 15.875 39.890625 15.1875 32.171875 
z
" id="DejaVuSans-101"/>
     <path d="M 35.03125 79.984375 
L 44.75 79.984375 
L 28.84375 61.625 
L 21.359375 61.625 
z
M 54.890625 33.015625 
L 54.890625 0 
L 45.90625 0 
L 45.90625 32.71875 
Q 45.90625 40.484375 42.875 44.328125 
Q 39.84375 48.1875 33.796875 48.1875 
Q 26.515625 48.1875 22.3125 43.546875 
Q 18.109375 38.921875 18.109375 30.90625 
L 18.109375 0 
L 9.078125 0 
L 9.078125 54.6875 
L 18.109375 54.6875 
L 18.109375 46.1875 
Q 21.34375 51.125 25.703125 53.5625 
Q 30.078125 56 35.796875 56 
Q 45.21875 56 50.046875 50.171875 
Q 54.890625 44.34375 54.890625 33.015625 
z
" id="DejaVuSans-324"/>
     <path d="M 4.203125 54.6875 
L 13.1875 54.6875 
L 24.421875 12.015625 
L 35.59375 54.6875 
L 46.1875 54.6875 
L 57.421875 12.015625 
L 68.609375 54.6875 
L 77.59375 54.6875 
L 63.28125 0 
L 52.6875 0 
L 40.921875 44.828125 
L 29.109375 0 
L 18.5 0 
z
" id="DejaVuSans-119"/>
    </defs>
    <g transform="translate(263.693272 23.186625)scale(0.12 -0.12)">
     <use xlink:href="#DejaVuSans-67"/>
     <use x="69.824219" xlink:href="#DejaVuSans-122"/>
     <use x="122.314453" xlink:href="#DejaVuSans-97"/>
     <use x="183.59375" xlink:href="#DejaVuSans-115"/>
     <use x="235.693359" xlink:href="#DejaVuSans-32"/>
     <use x="267.480469" xlink:href="#DejaVuSans-111"/>
     <use x="328.662109" xlink:href="#DejaVuSans-98"/>
     <use x="392.138672" xlink:href="#DejaVuSans-108"/>
     <use x="419.921875" xlink:href="#DejaVuSans-105"/>
     <use x="447.705078" xlink:href="#DejaVuSans-99"/>
     <use x="502.685547" xlink:href="#DejaVuSans-122"/>
     <use x="555.175781" xlink:href="#DejaVuSans-101"/>
     <use x="616.699219" xlink:href="#DejaVuSans-324"/>
     <use x="680.078125" xlink:href="#DejaVuSans-32"/>
     <use x="711.865234" xlink:href="#DejaVuSans-119"/>
     <use x="793.652344" xlink:href="#DejaVuSans-32"/>
     <use x="825.439453" xlink:href="#DejaVuSans-122"/>
     <use x="877.929688" xlink:href="#DejaVuSans-97"/>
     <use x="939.208984" xlink:href="#DejaVuSans-108"/>
     <use x="966.992188" xlink:href="#DejaVuSans-101"/>
     <use x="1028.515625" xlink:href="#DejaVuSans-380"/>
     <use x="1081.005859" xlink:href="#DejaVuSans-110"/>
     <use x="1144.384766" xlink:href="#DejaVuSans-111"/>
     <use x="1205.566406" xlink:href="#DejaVuSans-347"/>
     <use x="1257.666016" xlink:href="#DejaVuSans-99"/>
     <use x="1312.646484" xlink:href="#DejaVuSans-105"/>
    </g>
    <!-- od różnorodności danych i formatu zapisu -->
    <defs>
     <path d="M 37.109375 75.984375 
L 37.109375 68.5 
L 28.515625 68.5 
Q 23.6875 68.5 21.796875 66.546875 
Q 19.921875 64.59375 19.921875 59.515625 
L 19.921875 54.6875 
L 34.71875 54.6875 
L 34.71875 47.703125 
L 19.921875 47.703125 
L 19.921875 0 
L 10.890625 0 
L 10.890625 47.703125 
L 2.296875 47.703125 
L 2.296875 54.6875 
L 10.890625 54.6875 
L 10.890625 58.5 
Q 10.890625 67.625 15.140625 71.796875 
Q 19.390625 75.984375 28.609375 75.984375 
z
" id="DejaVuSans-102"/>
     <path d="M 52 44.1875 
Q 55.375 50.25 60.0625 53.125 
Q 64.75 56 71.09375 56 
Q 79.640625 56 84.28125 50.015625 
Q 88.921875 44.046875 88.921875 33.015625 
L 88.921875 0 
L 79.890625 0 
L 79.890625 32.71875 
Q 79.890625 40.578125 77.09375 44.375 
Q 74.3125 48.1875 68.609375 48.1875 
Q 61.625 48.1875 57.5625 43.546875 
Q 53.515625 38.921875 53.515625 30.90625 
L 53.515625 0 
L 44.484375 0 
L 44.484375 32.71875 
Q 44.484375 40.625 41.703125 44.40625 
Q 38.921875 48.1875 33.109375 48.1875 
Q 26.21875 48.1875 22.15625 43.53125 
Q 18.109375 38.875 18.109375 30.90625 
L 18.109375 0 
L 9.078125 0 
L 9.078125 54.6875 
L 18.109375 54.6875 
L 18.109375 46.1875 
Q 21.1875 51.21875 25.484375 53.609375 
Q 29.78125 56 35.6875 56 
Q 41.65625 56 45.828125 52.96875 
Q 50 49.953125 52 44.1875 
z
" id="DejaVuSans-109"/>
     <path d="M 18.3125 70.21875 
L 18.3125 54.6875 
L 36.8125 54.6875 
L 36.8125 47.703125 
L 18.3125 47.703125 
L 18.3125 18.015625 
Q 18.3125 11.328125 20.140625 9.421875 
Q 21.96875 7.515625 27.59375 7.515625 
L 36.8125 7.515625 
L 36.8125 0 
L 27.59375 0 
Q 17.1875 0 13.234375 3.875 
Q 9.28125 7.765625 9.28125 18.015625 
L 9.28125 47.703125 
L 2.6875 47.703125 
L 2.6875 54.6875 
L 9.28125 54.6875 
L 9.28125 70.21875 
z
" id="DejaVuSans-116"/>
     <path d="M 18.109375 8.203125 
L 18.109375 -20.796875 
L 9.078125 -20.796875 
L 9.078125 54.6875 
L 18.109375 54.6875 
L 18.109375 46.390625 
Q 20.953125 51.265625 25.265625 53.625 
Q 29.59375 56 35.59375 56 
Q 45.5625 56 51.78125 48.09375 
Q 58.015625 40.1875 58.015625 27.296875 
Q 58.015625 14.40625 51.78125 6.484375 
Q 45.5625 -1.421875 35.59375 -1.421875 
Q 29.59375 -1.421875 25.265625 0.953125 
Q 20.953125 3.328125 18.109375 8.203125 
z
M 48.6875 27.296875 
Q 48.6875 37.203125 44.609375 42.84375 
Q 40.53125 48.484375 33.40625 48.484375 
Q 26.265625 48.484375 22.1875 42.84375 
Q 18.109375 37.203125 18.109375 27.296875 
Q 18.109375 17.390625 22.1875 11.75 
Q 26.265625 6.109375 33.40625 6.109375 
Q 40.53125 6.109375 44.609375 11.75 
Q 48.6875 17.390625 48.6875 27.296875 
z
" id="DejaVuSans-112"/>
    </defs>
    <g transform="translate(218.070772 37.2)scale(0.12 -0.12)">
     <use xlink:href="#DejaVuSans-111"/>
     <use x="61.181641" xlink:href="#DejaVuSans-100"/>
     <use x="124.658203" xlink:href="#DejaVuSans-32"/>
     <use x="156.445312" xlink:href="#DejaVuSans-114"/>
     <use x="197.527344" xlink:href="#DejaVuSans-243"/>
     <use x="258.708984" xlink:href="#DejaVuSans-380"/>
     <use x="311.199219" xlink:href="#DejaVuSans-110"/>
     <use x="374.578125" xlink:href="#DejaVuSans-111"/>
     <use x="435.759766" xlink:href="#DejaVuSans-114"/>
     <use x="476.841797" xlink:href="#DejaVuSans-111"/>
     <use x="538.023438" xlink:href="#DejaVuSans-100"/>
     <use x="601.5" xlink:href="#DejaVuSans-110"/>
     <use x="664.878906" xlink:href="#DejaVuSans-111"/>
     <use x="726.060547" xlink:href="#DejaVuSans-347"/>
     <use x="778.160156" xlink:href="#DejaVuSans-99"/>
     <use x="833.140625" xlink:href="#DejaVuSans-105"/>
     <use x="860.923828" xlink:href="#DejaVuSans-32"/>
     <use x="892.710938" xlink:href="#DejaVuSans-100"/>
     <use x="956.1875" xlink:href="#DejaVuSans-97"/>
     <use x="1017.466797" xlink:href="#DejaVuSans-110"/>
     <use x="1080.845703" xlink:href="#DejaVuSans-121"/>
     <use x="1140.025391" xlink:href="#DejaVuSans-99"/>
     <use x="1195.005859" xlink:href="#DejaVuSans-104"/>
     <use x="1258.384766" xlink:href="#DejaVuSans-32"/>
     <use x="1290.171875" xlink:href="#DejaVuSans-105"/>
     <use x="1317.955078" xlink:href="#DejaVuSans-32"/>
     <use x="1349.742188" xlink:href="#DejaVuSans-102"/>
     <use x="1384.947266" xlink:href="#DejaVuSans-111"/>
     <use x="1446.128906" xlink:href="#DejaVuSans-114"/>
     <use x="1487.226562" xlink:href="#DejaVuSans-109"/>
     <use x="1584.638672" xlink:href="#DejaVuSans-97"/>
     <use x="1645.917969" xlink:href="#DejaVuSans-116"/>
     <use x="1685.126953" xlink:href="#DejaVuSans-117"/>
     <use x="1748.505859" xlink:href="#DejaVuSans-32"/>
     <use x="1780.292969" xlink:href="#DejaVuSans-122"/>
     <use x="1832.783203" xlink:href="#DejaVuSans-97"/>
     <use x="1894.0625" xlink:href="#DejaVuSans-112"/>
     <use x="1957.539062" xlink:href="#DejaVuSans-105"/>
     <use x="1985.322266" xlink:href="#DejaVuSans-115"/>
     <use x="2037.421875" xlink:href="#DejaVuSans-117"/>
    </g>
   </g>
   <g id="legend_1">
    <g id="patch_7">
     <path d="M 290.721553 97.234375 
L 401.513741 97.234375 
Q 403.513741 97.234375 403.513741 95.234375 
L 403.513741 52.2 
Q 403.513741 50.2 401.513741 50.2 
L 290.721553 50.2 
Q 288.721553 50.2 288.721553 52.2 
L 288.721553 95.234375 
Q 288.721553 97.234375 290.721553 97.234375 
z
" style="fill:#4c4c4c;opacity:0.5;stroke:#4c4c4c;stroke-linejoin:miter;"/>
    </g>
    <g id="patch_8">
     <path d="M 288.721553 95.234375 
L 399.513741 95.234375 
Q 401.513741 95.234375 401.513741 93.234375 
L 401.513741 50.2 
Q 401.513741 48.2 399.513741 48.2 
L 288.721553 48.2 
Q 286.721553 48.2 286.721553 50.2 
L 286.721553 93.234375 
Q 286.721553 95.234375 288.721553 95.234375 
z
" style="fill:#ffffff;stroke:#cccccc;stroke-linejoin:miter;"/>
    </g>
    <g id="line2d_16"/>
    <g id="line2d_17">
     <g>
      <use style="fill:#ff0000;stroke:#ff0000;" x="300.721553" xlink:href="#m38a03eee2b" y="56.298437"/>
     </g>
    </g>
    <g id="text_16">
     <!-- csv -->
     <defs>
      <path d="M 2.984375 54.6875 
L 12.5 54.6875 
L 29.59375 8.796875 
L 46.6875 54.6875 
L 56.203125 54.6875 
L 35.6875 0 
L 23.484375 0 
z
" id="DejaVuSans-118"/>
     </defs>
     <g transform="translate(318.721553 59.798437)scale(0.1 -0.1)">
      <use xlink:href="#DejaVuSans-99"/>
      <use x="54.980469" xlink:href="#DejaVuSans-115"/>
      <use x="107.080078" xlink:href="#DejaVuSans-118"/>
     </g>
    </g>
    <g id="line2d_18"/>
    <g id="line2d_19">
     <g>
      <use style="fill:#008000;stroke:#008000;" x="300.721553" xlink:href="#m81d3997185" y="70.976562"/>
     </g>
    </g>
    <g id="text_17">
     <!-- csv.gz -->
     <defs>
      <path d="M 10.6875 12.40625 
L 21 12.40625 
L 21 0 
L 10.6875 0 
z
" id="DejaVuSans-46"/>
      <path d="M 45.40625 27.984375 
Q 45.40625 37.75 41.375 43.109375 
Q 37.359375 48.484375 30.078125 48.484375 
Q 22.859375 48.484375 18.828125 43.109375 
Q 14.796875 37.75 14.796875 27.984375 
Q 14.796875 18.265625 18.828125 12.890625 
Q 22.859375 7.515625 30.078125 7.515625 
Q 37.359375 7.515625 41.375 12.890625 
Q 45.40625 18.265625 45.40625 27.984375 
z
M 54.390625 6.78125 
Q 54.390625 -7.171875 48.1875 -13.984375 
Q 42 -20.796875 29.203125 -20.796875 
Q 24.46875 -20.796875 20.265625 -20.09375 
Q 16.0625 -19.390625 12.109375 -17.921875 
L 12.109375 -9.1875 
Q 16.0625 -11.328125 19.921875 -12.34375 
Q 23.78125 -13.375 27.78125 -13.375 
Q 36.625 -13.375 41.015625 -8.765625 
Q 45.40625 -4.15625 45.40625 5.171875 
L 45.40625 9.625 
Q 42.625 4.78125 38.28125 2.390625 
Q 33.9375 0 27.875 0 
Q 17.828125 0 11.671875 7.65625 
Q 5.515625 15.328125 5.515625 27.984375 
Q 5.515625 40.671875 11.671875 48.328125 
Q 17.828125 56 27.875 56 
Q 33.9375 56 38.28125 53.609375 
Q 42.625 51.21875 45.40625 46.390625 
L 45.40625 54.6875 
L 54.390625 54.6875 
z
" id="DejaVuSans-103"/>
     </defs>
     <g transform="translate(318.721553 74.476562)scale(0.1 -0.1)">
      <use xlink:href="#DejaVuSans-99"/>
      <use x="54.980469" xlink:href="#DejaVuSans-115"/>
      <use x="107.080078" xlink:href="#DejaVuSans-118"/>
      <use x="166.150391" xlink:href="#DejaVuSans-46"/>
      <use x="197.9375" xlink:href="#DejaVuSans-103"/>
      <use x="261.414062" xlink:href="#DejaVuSans-122"/>
     </g>
    </g>
    <g id="line2d_20"/>
    <g id="line2d_21">
     <g>
      <use style="fill:#0000ff;stroke:#0000ff;" x="300.721553" xlink:href="#me1cf99cabe" y="85.654687"/>
     </g>
    </g>
    <g id="text_18">
     <!-- snappy.parquet -->
     <defs>
      <path d="M 14.796875 27.296875 
Q 14.796875 17.390625 18.875 11.75 
Q 22.953125 6.109375 30.078125 6.109375 
Q 37.203125 6.109375 41.296875 11.75 
Q 45.40625 17.390625 45.40625 27.296875 
Q 45.40625 37.203125 41.296875 42.84375 
Q 37.203125 48.484375 30.078125 48.484375 
Q 22.953125 48.484375 18.875 42.84375 
Q 14.796875 37.203125 14.796875 27.296875 
z
M 45.40625 8.203125 
Q 42.578125 3.328125 38.25 0.953125 
Q 33.9375 -1.421875 27.875 -1.421875 
Q 17.96875 -1.421875 11.734375 6.484375 
Q 5.515625 14.40625 5.515625 27.296875 
Q 5.515625 40.1875 11.734375 48.09375 
Q 17.96875 56 27.875 56 
Q 33.9375 56 38.25 53.625 
Q 42.578125 51.265625 45.40625 46.390625 
L 45.40625 54.6875 
L 54.390625 54.6875 
L 54.390625 -20.796875 
L 45.40625 -20.796875 
z
" id="DejaVuSans-113"/>
     </defs>
     <g transform="translate(318.721553 89.154687)scale(0.1 -0.1)">
      <use xlink:href="#DejaVuSans-115"/>
      <use x="52.099609" xlink:href="#DejaVuSans-110"/>
      <use x="115.478516" xlink:href="#DejaVuSans-97"/>
      <use x="176.757812" xlink:href="#DejaVuSans-112"/>
      <use x="240.234375" xlink:href="#DejaVuSans-112"/>
      <use x="303.710938" xlink:href="#DejaVuSans-121"/>
      <use x="362.671875" xlink:href="#DejaVuSans-46"/>
      <use x="394.458984" xlink:href="#DejaVuSans-112"/>
      <use x="457.935547" xlink:href="#DejaVuSans-97"/>
      <use x="519.214844" xlink:href="#DejaVuSans-114"/>
      <use x="560.3125" xlink:href="#DejaVuSans-113"/>
      <use x="623.789062" xlink:href="#DejaVuSans-117"/>
      <use x="687.167969" xlink:href="#DejaVuSans-101"/>
      <use x="748.691406" xlink:href="#DejaVuSans-116"/>
     </g>
    </g>
   </g>
  </g>
  <g id="axes_2">
   <g id="patch_9">
    <path d="M 573.882353 315 
L 902.117647 315 
L 902.117647 43.2 
L 573.882353 43.2 
z
" style="fill:#ffffff;"/>
   </g>
   <g id="matplotlib.axis_3">
    <g id="xtick_7">
     <g id="line2d_22">
      <g>
       <use style="stroke:#000000;stroke-width:0.8;" x="588.802139" xlink:href="#m6c71bc30fb" y="315"/>
      </g>
     </g>
     <g id="text_19">
      <!-- r -->
      <g transform="translate(586.74667 329.598437)scale(0.1 -0.1)">
       <use xlink:href="#DejaVuSans-114"/>
      </g>
     </g>
    </g>
    <g id="xtick_8">
     <g id="line2d_23">
      <g>
       <use style="stroke:#000000;stroke-width:0.8;" x="631.430099" xlink:href="#m6c71bc30fb" y="315"/>
      </g>
     </g>
     <g id="text_20">
      <!-- r -->
      <g transform="translate(629.374631 329.598437)scale(0.1 -0.1)">
       <use xlink:href="#DejaVuSans-114"/>
      </g>
     </g>
    </g>
    <g id="xtick_9">
     <g id="line2d_24">
      <g>
       <use style="stroke:#000000;stroke-width:0.8;" x="674.05806" xlink:href="#m6c71bc30fb" y="315"/>
      </g>
     </g>
     <g id="text_21">
      <!-- r -->
      <g transform="translate(672.002591 329.598437)scale(0.1 -0.1)">
       <use xlink:href="#DejaVuSans-114"/>
      </g>
     </g>
    </g>
    <g id="xtick_10">
     <g id="line2d_25">
      <g>
       <use style="stroke:#000000;stroke-width:0.8;" x="801.94194" xlink:href="#m6c71bc30fb" y="315"/>
      </g>
     </g>
     <g id="text_22">
      <!-- u -->
      <g transform="translate(798.77319 329.598437)scale(0.1 -0.1)">
       <use xlink:href="#DejaVuSans-117"/>
      </g>
     </g>
    </g>
    <g id="xtick_11">
     <g id="line2d_26">
      <g>
       <use style="stroke:#000000;stroke-width:0.8;" x="844.569901" xlink:href="#m6c71bc30fb" y="315"/>
      </g>
     </g>
     <g id="text_23">
      <!-- u -->
      <g transform="translate(841.401151 329.598437)scale(0.1 -0.1)">
       <use xlink:href="#DejaVuSans-117"/>
      </g>
     </g>
    </g>
    <g id="xtick_12">
     <g id="line2d_27">
      <g>
       <use style="stroke:#000000;stroke-width:0.8;" x="887.197861" xlink:href="#m6c71bc30fb" y="315"/>
      </g>
     </g>
     <g id="text_24">
      <!-- u -->
      <g transform="translate(884.029111 329.598437)scale(0.1 -0.1)">
       <use xlink:href="#DejaVuSans-117"/>
      </g>
     </g>
    </g>
    <g id="text_25">
     <!-- Różnorodność danych -->
     <g transform="translate(682.874219 343.676562)scale(0.1 -0.1)">
      <use xlink:href="#DejaVuSans-82"/>
      <use x="69.419922" xlink:href="#DejaVuSans-243"/>
      <use x="130.601562" xlink:href="#DejaVuSans-380"/>
      <use x="183.091797" xlink:href="#DejaVuSans-110"/>
      <use x="246.470703" xlink:href="#DejaVuSans-111"/>
      <use x="307.652344" xlink:href="#DejaVuSans-114"/>
      <use x="348.734375" xlink:href="#DejaVuSans-111"/>
      <use x="409.916016" xlink:href="#DejaVuSans-100"/>
      <use x="473.392578" xlink:href="#DejaVuSans-110"/>
      <use x="536.771484" xlink:href="#DejaVuSans-111"/>
      <use x="597.953125" xlink:href="#DejaVuSans-347"/>
      <use x="650.052734" xlink:href="#DejaVuSans-263"/>
      <use x="705.033203" xlink:href="#DejaVuSans-32"/>
      <use x="736.820312" xlink:href="#DejaVuSans-100"/>
      <use x="800.296875" xlink:href="#DejaVuSans-97"/>
      <use x="861.576172" xlink:href="#DejaVuSans-110"/>
      <use x="924.955078" xlink:href="#DejaVuSans-121"/>
      <use x="984.134766" xlink:href="#DejaVuSans-99"/>
      <use x="1039.115234" xlink:href="#DejaVuSans-104"/>
     </g>
    </g>
   </g>
   <g id="matplotlib.axis_4">
    <g id="ytick_7">
     <g id="line2d_28">
      <g>
       <use style="stroke:#000000;stroke-width:0.8;" x="573.882353" xlink:href="#mb5c1518c88" y="290.090182"/>
      </g>
     </g>
     <g id="text_26">
      <!-- 20 -->
      <g transform="translate(554.157353 293.889401)scale(0.1 -0.1)">
       <use xlink:href="#DejaVuSans-50"/>
       <use x="63.623047" xlink:href="#DejaVuSans-48"/>
      </g>
     </g>
    </g>
    <g id="ytick_8">
     <g id="line2d_29">
      <g>
       <use style="stroke:#000000;stroke-width:0.8;" x="573.882353" xlink:href="#mb5c1518c88" y="250.731962"/>
      </g>
     </g>
     <g id="text_27">
      <!-- 30 -->
      <defs>
       <path d="M 40.578125 39.3125 
Q 47.65625 37.796875 51.625 33 
Q 55.609375 28.21875 55.609375 21.1875 
Q 55.609375 10.40625 48.1875 4.484375 
Q 40.765625 -1.421875 27.09375 -1.421875 
Q 22.515625 -1.421875 17.65625 -0.515625 
Q 12.796875 0.390625 7.625 2.203125 
L 7.625 11.71875 
Q 11.71875 9.328125 16.59375 8.109375 
Q 21.484375 6.890625 26.8125 6.890625 
Q 36.078125 6.890625 40.9375 10.546875 
Q 45.796875 14.203125 45.796875 21.1875 
Q 45.796875 27.640625 41.28125 31.265625 
Q 36.765625 34.90625 28.71875 34.90625 
L 20.21875 34.90625 
L 20.21875 43.015625 
L 29.109375 43.015625 
Q 36.375 43.015625 40.234375 45.921875 
Q 44.09375 48.828125 44.09375 54.296875 
Q 44.09375 59.90625 40.109375 62.90625 
Q 36.140625 65.921875 28.71875 65.921875 
Q 24.65625 65.921875 20.015625 65.03125 
Q 15.375 64.15625 9.8125 62.3125 
L 9.8125 71.09375 
Q 15.4375 72.65625 20.34375 73.4375 
Q 25.25 74.21875 29.59375 74.21875 
Q 40.828125 74.21875 47.359375 69.109375 
Q 53.90625 64.015625 53.90625 55.328125 
Q 53.90625 49.265625 50.4375 45.09375 
Q 46.96875 40.921875 40.578125 39.3125 
z
" id="DejaVuSans-51"/>
      </defs>
      <g transform="translate(554.157353 254.53118)scale(0.1 -0.1)">
       <use xlink:href="#DejaVuSans-51"/>
       <use x="63.623047" xlink:href="#DejaVuSans-48"/>
      </g>
     </g>
    </g>
    <g id="ytick_9">
     <g id="line2d_30">
      <g>
       <use style="stroke:#000000;stroke-width:0.8;" x="573.882353" xlink:href="#mb5c1518c88" y="211.373741"/>
      </g>
     </g>
     <g id="text_28">
      <!-- 40 -->
      <g transform="translate(554.157353 215.17296)scale(0.1 -0.1)">
       <use xlink:href="#DejaVuSans-52"/>
       <use x="63.623047" xlink:href="#DejaVuSans-48"/>
      </g>
     </g>
    </g>
    <g id="ytick_10">
     <g id="line2d_31">
      <g>
       <use style="stroke:#000000;stroke-width:0.8;" x="573.882353" xlink:href="#mb5c1518c88" y="172.01552"/>
      </g>
     </g>
     <g id="text_29">
      <!-- 50 -->
      <defs>
       <path d="M 10.796875 72.90625 
L 49.515625 72.90625 
L 49.515625 64.59375 
L 19.828125 64.59375 
L 19.828125 46.734375 
Q 21.96875 47.46875 24.109375 47.828125 
Q 26.265625 48.1875 28.421875 48.1875 
Q 40.625 48.1875 47.75 41.5 
Q 54.890625 34.8125 54.890625 23.390625 
Q 54.890625 11.625 47.5625 5.09375 
Q 40.234375 -1.421875 26.90625 -1.421875 
Q 22.3125 -1.421875 17.546875 -0.640625 
Q 12.796875 0.140625 7.71875 1.703125 
L 7.71875 11.625 
Q 12.109375 9.234375 16.796875 8.0625 
Q 21.484375 6.890625 26.703125 6.890625 
Q 35.15625 6.890625 40.078125 11.328125 
Q 45.015625 15.765625 45.015625 23.390625 
Q 45.015625 31 40.078125 35.4375 
Q 35.15625 39.890625 26.703125 39.890625 
Q 22.75 39.890625 18.8125 39.015625 
Q 14.890625 38.140625 10.796875 36.28125 
z
" id="DejaVuSans-53"/>
      </defs>
      <g transform="translate(554.157353 175.814739)scale(0.1 -0.1)">
       <use xlink:href="#DejaVuSans-53"/>
       <use x="63.623047" xlink:href="#DejaVuSans-48"/>
      </g>
     </g>
    </g>
    <g id="ytick_11">
     <g id="line2d_32">
      <g>
       <use style="stroke:#000000;stroke-width:0.8;" x="573.882353" xlink:href="#mb5c1518c88" y="132.6573"/>
      </g>
     </g>
     <g id="text_30">
      <!-- 60 -->
      <g transform="translate(554.157353 136.456518)scale(0.1 -0.1)">
       <use xlink:href="#DejaVuSans-54"/>
       <use x="63.623047" xlink:href="#DejaVuSans-48"/>
      </g>
     </g>
    </g>
    <g id="ytick_12">
     <g id="line2d_33">
      <g>
       <use style="stroke:#000000;stroke-width:0.8;" x="573.882353" xlink:href="#mb5c1518c88" y="93.299079"/>
      </g>
     </g>
     <g id="text_31">
      <!-- 70 -->
      <defs>
       <path d="M 8.203125 72.90625 
L 55.078125 72.90625 
L 55.078125 68.703125 
L 28.609375 0 
L 18.3125 0 
L 43.21875 64.59375 
L 8.203125 64.59375 
z
" id="DejaVuSans-55"/>
      </defs>
      <g transform="translate(554.157353 97.098298)scale(0.1 -0.1)">
       <use xlink:href="#DejaVuSans-55"/>
       <use x="63.623047" xlink:href="#DejaVuSans-48"/>
      </g>
     </g>
    </g>
    <g id="ytick_13">
     <g id="line2d_34">
      <g>
       <use style="stroke:#000000;stroke-width:0.8;" x="573.882353" xlink:href="#mb5c1518c88" y="53.940858"/>
      </g>
     </g>
     <g id="text_32">
      <!-- 80 -->
      <g transform="translate(554.157353 57.740077)scale(0.1 -0.1)">
       <use xlink:href="#DejaVuSans-56"/>
       <use x="63.623047" xlink:href="#DejaVuSans-48"/>
      </g>
     </g>
    </g>
    <g id="text_33">
     <!-- CPU [%] -->
     <defs>
      <path d="M 19.671875 64.796875 
L 19.671875 37.40625 
L 32.078125 37.40625 
Q 38.96875 37.40625 42.71875 40.96875 
Q 46.484375 44.53125 46.484375 51.125 
Q 46.484375 57.671875 42.71875 61.234375 
Q 38.96875 64.796875 32.078125 64.796875 
z
M 9.8125 72.90625 
L 32.078125 72.90625 
Q 44.34375 72.90625 50.609375 67.359375 
Q 56.890625 61.8125 56.890625 51.125 
Q 56.890625 40.328125 50.609375 34.8125 
Q 44.34375 29.296875 32.078125 29.296875 
L 19.671875 29.296875 
L 19.671875 0 
L 9.8125 0 
z
" id="DejaVuSans-80"/>
      <path d="M 8.6875 72.90625 
L 18.609375 72.90625 
L 18.609375 28.609375 
Q 18.609375 16.890625 22.84375 11.734375 
Q 27.09375 6.59375 36.625 6.59375 
Q 46.09375 6.59375 50.34375 11.734375 
Q 54.59375 16.890625 54.59375 28.609375 
L 54.59375 72.90625 
L 64.5 72.90625 
L 64.5 27.390625 
Q 64.5 13.140625 57.4375 5.859375 
Q 50.390625 -1.421875 36.625 -1.421875 
Q 22.796875 -1.421875 15.734375 5.859375 
Q 8.6875 13.140625 8.6875 27.390625 
z
" id="DejaVuSans-85"/>
      <path d="M 72.703125 32.078125 
Q 68.453125 32.078125 66.03125 28.46875 
Q 63.625 24.859375 63.625 18.40625 
Q 63.625 12.0625 66.03125 8.421875 
Q 68.453125 4.78125 72.703125 4.78125 
Q 76.859375 4.78125 79.265625 8.421875 
Q 81.6875 12.0625 81.6875 18.40625 
Q 81.6875 24.8125 79.265625 28.4375 
Q 76.859375 32.078125 72.703125 32.078125 
z
M 72.703125 38.28125 
Q 80.421875 38.28125 84.953125 32.90625 
Q 89.5 27.546875 89.5 18.40625 
Q 89.5 9.28125 84.9375 3.921875 
Q 80.375 -1.421875 72.703125 -1.421875 
Q 64.890625 -1.421875 60.34375 3.921875 
Q 55.8125 9.28125 55.8125 18.40625 
Q 55.8125 27.59375 60.375 32.9375 
Q 64.9375 38.28125 72.703125 38.28125 
z
M 22.3125 68.015625 
Q 18.109375 68.015625 15.6875 64.375 
Q 13.28125 60.75 13.28125 54.390625 
Q 13.28125 47.953125 15.671875 44.328125 
Q 18.0625 40.71875 22.3125 40.71875 
Q 26.5625 40.71875 28.96875 44.328125 
Q 31.390625 47.953125 31.390625 54.390625 
Q 31.390625 60.6875 28.953125 64.34375 
Q 26.515625 68.015625 22.3125 68.015625 
z
M 66.40625 74.21875 
L 74.21875 74.21875 
L 28.609375 -1.421875 
L 20.796875 -1.421875 
z
M 22.3125 74.21875 
Q 30.03125 74.21875 34.609375 68.875 
Q 39.203125 63.53125 39.203125 54.390625 
Q 39.203125 45.171875 34.640625 39.84375 
Q 30.078125 34.515625 22.3125 34.515625 
Q 14.546875 34.515625 10.03125 39.859375 
Q 5.515625 45.21875 5.515625 54.390625 
Q 5.515625 63.484375 10.046875 68.84375 
Q 14.59375 74.21875 22.3125 74.21875 
z
" id="DejaVuSans-37"/>
     </defs>
     <g transform="translate(548.077665 199.507031)rotate(-90)scale(0.1 -0.1)">
      <use xlink:href="#DejaVuSans-67"/>
      <use x="69.824219" xlink:href="#DejaVuSans-80"/>
      <use x="130.126953" xlink:href="#DejaVuSans-85"/>
      <use x="203.320312" xlink:href="#DejaVuSans-32"/>
      <use x="235.107422" xlink:href="#DejaVuSans-91"/>
      <use x="274.121094" xlink:href="#DejaVuSans-37"/>
      <use x="369.140625" xlink:href="#DejaVuSans-93"/>
     </g>
    </g>
   </g>
   <g id="LineCollection_4">
    <path clip-path="url(#pfec66d755d)" d="M 588.802139 174.416372 
L 588.802139 55.554545 
" style="fill:none;stroke:#808080;stroke-width:2;"/>
    <path clip-path="url(#pfec66d755d)" d="M 801.94194 176.935298 
L 801.94194 55.554545 
" style="fill:none;stroke:#808080;stroke-width:2;"/>
   </g>
   <g id="LineCollection_5">
    <path clip-path="url(#pfec66d755d)" d="M 631.430099 302.645455 
L 631.430099 132.578583 
" style="fill:none;stroke:#808080;stroke-width:2;"/>
    <path clip-path="url(#pfec66d755d)" d="M 844.569901 250.023514 
L 844.569901 119.629729 
" style="fill:none;stroke:#808080;stroke-width:2;"/>
   </g>
   <g id="LineCollection_6">
    <path clip-path="url(#pfec66d755d)" d="M 674.05806 227.077671 
L 674.05806 109.435949 
" style="fill:none;stroke:#808080;stroke-width:2;"/>
    <path clip-path="url(#pfec66d755d)" d="M 887.197861 233.29627 
L 887.197861 112.623965 
" style="fill:none;stroke:#808080;stroke-width:2;"/>
   </g>
   <g id="line2d_35">
    <g clip-path="url(#pfec66d755d)">
     <use style="fill:#ff0000;stroke:#ff0000;" x="588.802139" xlink:href="#m38a03eee2b" y="103.040239"/>
     <use style="fill:#ff0000;stroke:#ff0000;" x="801.94194" xlink:href="#m38a03eee2b" y="94.961964"/>
    </g>
   </g>
   <g id="line2d_36">
    <g clip-path="url(#pfec66d755d)">
     <use style="fill:#008000;stroke:#008000;" x="631.430099" xlink:href="#m81d3997185" y="228.100985"/>
     <use style="fill:#008000;stroke:#008000;" x="844.569901" xlink:href="#m81d3997185" y="203.600492"/>
    </g>
   </g>
   <g id="line2d_37">
    <g clip-path="url(#pfec66d755d)">
     <use style="fill:#0000ff;stroke:#0000ff;" x="674.05806" xlink:href="#me1cf99cabe" y="170.834774"/>
     <use style="fill:#0000ff;stroke:#0000ff;" x="887.197861" xlink:href="#me1cf99cabe" y="169.752423"/>
    </g>
   </g>
   <g id="patch_10">
    <path d="M 573.882353 315 
L 573.882353 43.2 
" style="fill:none;stroke:#000000;stroke-linecap:square;stroke-linejoin:miter;stroke-width:0.8;"/>
   </g>
   <g id="patch_11">
    <path d="M 902.117647 315 
L 902.117647 43.2 
" style="fill:none;stroke:#000000;stroke-linecap:square;stroke-linejoin:miter;stroke-width:0.8;"/>
   </g>
   <g id="patch_12">
    <path d="M 573.882353 315 
L 902.117647 315 
" style="fill:none;stroke:#000000;stroke-linecap:square;stroke-linejoin:miter;stroke-width:0.8;"/>
   </g>
   <g id="patch_13">
    <path d="M 573.882353 43.2 
L 902.117647 43.2 
" style="fill:none;stroke:#000000;stroke-linecap:square;stroke-linejoin:miter;stroke-width:0.8;"/>
   </g>
   <g id="text_34">
    <!-- Obiążenie procesora w zależności -->
    <defs>
     <path d="M 39.40625 66.21875 
Q 28.65625 66.21875 22.328125 58.203125 
Q 16.015625 50.203125 16.015625 36.375 
Q 16.015625 22.609375 22.328125 14.59375 
Q 28.65625 6.59375 39.40625 6.59375 
Q 50.140625 6.59375 56.421875 14.59375 
Q 62.703125 22.609375 62.703125 36.375 
Q 62.703125 50.203125 56.421875 58.203125 
Q 50.140625 66.21875 39.40625 66.21875 
z
M 39.40625 74.21875 
Q 54.734375 74.21875 63.90625 63.9375 
Q 73.09375 53.65625 73.09375 36.375 
Q 73.09375 19.140625 63.90625 8.859375 
Q 54.734375 -1.421875 39.40625 -1.421875 
Q 24.03125 -1.421875 14.8125 8.828125 
Q 5.609375 19.09375 5.609375 36.375 
Q 5.609375 53.65625 14.8125 63.9375 
Q 24.03125 74.21875 39.40625 74.21875 
z
" id="DejaVuSans-79"/>
     <path d="M 34.28125 27.484375 
Q 23.390625 27.484375 19.1875 25 
Q 14.984375 22.515625 14.984375 16.5 
Q 14.984375 11.71875 18.140625 8.90625 
Q 21.296875 6.109375 26.703125 6.109375 
Q 34.1875 6.109375 38.703125 11.40625 
Q 43.21875 16.703125 43.21875 25.484375 
L 43.21875 27.484375 
z
M 52.203125 31.203125 
L 52.203125 0 
L 43.21875 0 
L 43.21875 8.296875 
Q 40.140625 3.328125 35.546875 0.953125 
Q 30.953125 -1.421875 24.3125 -1.421875 
Q 15.921875 -1.421875 10.953125 3.296875 
Q 6 8.015625 6 15.921875 
Q 6 25.140625 12.171875 29.828125 
Q 18.359375 34.515625 30.609375 34.515625 
L 43.21875 34.515625 
L 43.21875 35.40625 
Q 43.21875 41.609375 39.140625 45 
Q 35.0625 48.390625 27.6875 48.390625 
Q 23 48.390625 18.546875 47.265625 
Q 14.109375 46.140625 10.015625 43.890625 
L 10.015625 52.203125 
Q 14.9375 54.109375 19.578125 55.046875 
Q 24.21875 56 28.609375 56 
Q 40.484375 56 46.34375 49.84375 
Q 52.203125 43.703125 52.203125 31.203125 
z
M 43.359375 0 
L 49.171875 0 
Q 46.96875 -2.984375 45.921875 -5.125 
Q 44.875 -7.28125 44.875 -8.796875 
Q 44.875 -11.03125 46.21875 -12.15625 
Q 47.5625 -13.28125 50.203125 -13.28125 
Q 51.765625 -13.28125 53.265625 -12.90625 
Q 54.78125 -12.546875 56.296875 -11.8125 
L 56.296875 -18.3125 
Q 54.4375 -18.796875 52.78125 -19.03125 
Q 51.125 -19.28125 49.65625 -19.28125 
Q 43.703125 -19.28125 40.890625 -17.15625 
Q 38.09375 -15.046875 38.09375 -10.5 
Q 38.09375 -8.15625 39.375 -5.59375 
Q 40.671875 -3.03125 43.359375 0 
z
" id="DejaVuSans-261"/>
    </defs>
    <g transform="translate(636.719063 23.186625)scale(0.12 -0.12)">
     <use xlink:href="#DejaVuSans-79"/>
     <use x="78.710938" xlink:href="#DejaVuSans-98"/>
     <use x="142.1875" xlink:href="#DejaVuSans-105"/>
     <use x="169.970703" xlink:href="#DejaVuSans-261"/>
     <use x="231.25" xlink:href="#DejaVuSans-380"/>
     <use x="283.740234" xlink:href="#DejaVuSans-101"/>
     <use x="345.263672" xlink:href="#DejaVuSans-110"/>
     <use x="408.642578" xlink:href="#DejaVuSans-105"/>
     <use x="436.425781" xlink:href="#DejaVuSans-101"/>
     <use x="497.949219" xlink:href="#DejaVuSans-32"/>
     <use x="529.736328" xlink:href="#DejaVuSans-112"/>
     <use x="593.212891" xlink:href="#DejaVuSans-114"/>
     <use x="634.294922" xlink:href="#DejaVuSans-111"/>
     <use x="695.476562" xlink:href="#DejaVuSans-99"/>
     <use x="750.457031" xlink:href="#DejaVuSans-101"/>
     <use x="811.980469" xlink:href="#DejaVuSans-115"/>
     <use x="864.080078" xlink:href="#DejaVuSans-111"/>
     <use x="925.261719" xlink:href="#DejaVuSans-114"/>
     <use x="966.375" xlink:href="#DejaVuSans-97"/>
     <use x="1027.654297" xlink:href="#DejaVuSans-32"/>
     <use x="1059.441406" xlink:href="#DejaVuSans-119"/>
     <use x="1141.228516" xlink:href="#DejaVuSans-32"/>
     <use x="1173.015625" xlink:href="#DejaVuSans-122"/>
     <use x="1225.505859" xlink:href="#DejaVuSans-97"/>
     <use x="1286.785156" xlink:href="#DejaVuSans-108"/>
     <use x="1314.568359" xlink:href="#DejaVuSans-101"/>
     <use x="1376.091797" xlink:href="#DejaVuSans-380"/>
     <use x="1428.582031" xlink:href="#DejaVuSans-110"/>
     <use x="1491.960938" xlink:href="#DejaVuSans-111"/>
     <use x="1553.142578" xlink:href="#DejaVuSans-347"/>
     <use x="1605.242188" xlink:href="#DejaVuSans-99"/>
     <use x="1660.222656" xlink:href="#DejaVuSans-105"/>
    </g>
    <!-- od różnorodności danych i formatu zapisu -->
    <g transform="translate(611.953125 37.2)scale(0.12 -0.12)">
     <use xlink:href="#DejaVuSans-111"/>
     <use x="61.181641" xlink:href="#DejaVuSans-100"/>
     <use x="124.658203" xlink:href="#DejaVuSans-32"/>
     <use x="156.445312" xlink:href="#DejaVuSans-114"/>
     <use x="197.527344" xlink:href="#DejaVuSans-243"/>
     <use x="258.708984" xlink:href="#DejaVuSans-380"/>
     <use x="311.199219" xlink:href="#DejaVuSans-110"/>
     <use x="374.578125" xlink:href="#DejaVuSans-111"/>
     <use x="435.759766" xlink:href="#DejaVuSans-114"/>
     <use x="476.841797" xlink:href="#DejaVuSans-111"/>
     <use x="538.023438" xlink:href="#DejaVuSans-100"/>
     <use x="601.5" xlink:href="#DejaVuSans-110"/>
     <use x="664.878906" xlink:href="#DejaVuSans-111"/>
     <use x="726.060547" xlink:href="#DejaVuSans-347"/>
     <use x="778.160156" xlink:href="#DejaVuSans-99"/>
     <use x="833.140625" xlink:href="#DejaVuSans-105"/>
     <use x="860.923828" xlink:href="#DejaVuSans-32"/>
     <use x="892.710938" xlink:href="#DejaVuSans-100"/>
     <use x="956.1875" xlink:href="#DejaVuSans-97"/>
     <use x="1017.466797" xlink:href="#DejaVuSans-110"/>
     <use x="1080.845703" xlink:href="#DejaVuSans-121"/>
     <use x="1140.025391" xlink:href="#DejaVuSans-99"/>
     <use x="1195.005859" xlink:href="#DejaVuSans-104"/>
     <use x="1258.384766" xlink:href="#DejaVuSans-32"/>
     <use x="1290.171875" xlink:href="#DejaVuSans-105"/>
     <use x="1317.955078" xlink:href="#DejaVuSans-32"/>
     <use x="1349.742188" xlink:href="#DejaVuSans-102"/>
     <use x="1384.947266" xlink:href="#DejaVuSans-111"/>
     <use x="1446.128906" xlink:href="#DejaVuSans-114"/>
     <use x="1487.226562" xlink:href="#DejaVuSans-109"/>
     <use x="1584.638672" xlink:href="#DejaVuSans-97"/>
     <use x="1645.917969" xlink:href="#DejaVuSans-116"/>
     <use x="1685.126953" xlink:href="#DejaVuSans-117"/>
     <use x="1748.505859" xlink:href="#DejaVuSans-32"/>
     <use x="1780.292969" xlink:href="#DejaVuSans-122"/>
     <use x="1832.783203" xlink:href="#DejaVuSans-97"/>
     <use x="1894.0625" xlink:href="#DejaVuSans-112"/>
     <use x="1957.539062" xlink:href="#DejaVuSans-105"/>
     <use x="1985.322266" xlink:href="#DejaVuSans-115"/>
     <use x="2037.421875" xlink:href="#DejaVuSans-117"/>
    </g>
   </g>
   <g id="legend_2">
    <g id="patch_14">
     <path d="M 684.603906 97.234375 
L 795.396094 97.234375 
Q 797.396094 97.234375 797.396094 95.234375 
L 797.396094 52.2 
Q 797.396094 50.2 795.396094 50.2 
L 684.603906 50.2 
Q 682.603906 50.2 682.603906 52.2 
L 682.603906 95.234375 
Q 682.603906 97.234375 684.603906 97.234375 
z
" style="fill:#4c4c4c;opacity:0.5;stroke:#4c4c4c;stroke-linejoin:miter;"/>
    </g>
    <g id="patch_15">
     <path d="M 682.603906 95.234375 
L 793.396094 95.234375 
Q 795.396094 95.234375 795.396094 93.234375 
L 795.396094 50.2 
Q 795.396094 48.2 793.396094 48.2 
L 682.603906 48.2 
Q 680.603906 48.2 680.603906 50.2 
L 680.603906 93.234375 
Q 680.603906 95.234375 682.603906 95.234375 
z
" style="fill:#ffffff;stroke:#cccccc;stroke-linejoin:miter;"/>
    </g>
    <g id="line2d_38"/>
    <g id="line2d_39">
     <g>
      <use style="fill:#ff0000;stroke:#ff0000;" x="694.603906" xlink:href="#m38a03eee2b" y="56.298437"/>
     </g>
    </g>
    <g id="text_35">
     <!-- csv -->
     <g transform="translate(712.603906 59.798437)scale(0.1 -0.1)">
      <use xlink:href="#DejaVuSans-99"/>
      <use x="54.980469" xlink:href="#DejaVuSans-115"/>
      <use x="107.080078" xlink:href="#DejaVuSans-118"/>
     </g>
    </g>
    <g id="line2d_40"/>
    <g id="line2d_41">
     <g>
      <use style="fill:#008000;stroke:#008000;" x="694.603906" xlink:href="#m81d3997185" y="70.976562"/>
     </g>
    </g>
    <g id="text_36">
     <!-- csv.gz -->
     <g transform="translate(712.603906 74.476562)scale(0.1 -0.1)">
      <use xlink:href="#DejaVuSans-99"/>
      <use x="54.980469" xlink:href="#DejaVuSans-115"/>
      <use x="107.080078" xlink:href="#DejaVuSans-118"/>
      <use x="166.150391" xlink:href="#DejaVuSans-46"/>
      <use x="197.9375" xlink:href="#DejaVuSans-103"/>
      <use x="261.414062" xlink:href="#DejaVuSans-122"/>
     </g>
    </g>
    <g id="line2d_42"/>
    <g id="line2d_43">
     <g>
      <use style="fill:#0000ff;stroke:#0000ff;" x="694.603906" xlink:href="#me1cf99cabe" y="85.654687"/>
     </g>
    </g>
    <g id="text_37">
     <!-- snappy.parquet -->
     <g transform="translate(712.603906 89.154687)scale(0.1 -0.1)">
      <use xlink:href="#DejaVuSans-115"/>
      <use x="52.099609" xlink:href="#DejaVuSans-110"/>
      <use x="115.478516" xlink:href="#DejaVuSans-97"/>
      <use x="176.757812" xlink:href="#DejaVuSans-112"/>
      <use x="240.234375" xlink:href="#DejaVuSans-112"/>
      <use x="303.710938" xlink:href="#DejaVuSans-121"/>
      <use x="362.671875" xlink:href="#DejaVuSans-46"/>
      <use x="394.458984" xlink:href="#DejaVuSans-112"/>
      <use x="457.935547" xlink:href="#DejaVuSans-97"/>
      <use x="519.214844" xlink:href="#DejaVuSans-114"/>
      <use x="560.3125" xlink:href="#DejaVuSans-113"/>
      <use x="623.789062" xlink:href="#DejaVuSans-117"/>
      <use x="687.167969" xlink:href="#DejaVuSans-101"/>
      <use x="748.691406" xlink:href="#DejaVuSans-116"/>
     </g>
    </g>
   </g>
  </g>
  <g id="axes_3">
   <g id="patch_16">
    <path d="M 967.764706 315 
L 1296 315 
L 1296 43.2 
L 967.764706 43.2 
z
" style="fill:#ffffff;"/>
   </g>
   <g id="matplotlib.axis_5">
    <g id="xtick_13">
     <g id="line2d_44">
      <g>
       <use style="stroke:#000000;stroke-width:0.8;" x="982.684492" xlink:href="#m6c71bc30fb" y="315"/>
      </g>
     </g>
     <g id="text_38">
      <!-- r -->
      <g transform="translate(980.629023 329.598437)scale(0.1 -0.1)">
       <use xlink:href="#DejaVuSans-114"/>
      </g>
     </g>
    </g>
    <g id="xtick_14">
     <g id="line2d_45">
      <g>
       <use style="stroke:#000000;stroke-width:0.8;" x="1025.312452" xlink:href="#m6c71bc30fb" y="315"/>
      </g>
     </g>
     <g id="text_39">
      <!-- r -->
      <g transform="translate(1023.256984 329.598437)scale(0.1 -0.1)">
       <use xlink:href="#DejaVuSans-114"/>
      </g>
     </g>
    </g>
    <g id="xtick_15">
     <g id="line2d_46">
      <g>
       <use style="stroke:#000000;stroke-width:0.8;" x="1067.940413" xlink:href="#m6c71bc30fb" y="315"/>
      </g>
     </g>
     <g id="text_40">
      <!-- r -->
      <g transform="translate(1065.884944 329.598437)scale(0.1 -0.1)">
       <use xlink:href="#DejaVuSans-114"/>
      </g>
     </g>
    </g>
    <g id="xtick_16">
     <g id="line2d_47">
      <g>
       <use style="stroke:#000000;stroke-width:0.8;" x="1195.824293" xlink:href="#m6c71bc30fb" y="315"/>
      </g>
     </g>
     <g id="text_41">
      <!-- u -->
      <g transform="translate(1192.655543 329.598437)scale(0.1 -0.1)">
       <use xlink:href="#DejaVuSans-117"/>
      </g>
     </g>
    </g>
    <g id="xtick_17">
     <g id="line2d_48">
      <g>
       <use style="stroke:#000000;stroke-width:0.8;" x="1238.452254" xlink:href="#m6c71bc30fb" y="315"/>
      </g>
     </g>
     <g id="text_42">
      <!-- u -->
      <g transform="translate(1235.283504 329.598437)scale(0.1 -0.1)">
       <use xlink:href="#DejaVuSans-117"/>
      </g>
     </g>
    </g>
    <g id="xtick_18">
     <g id="line2d_49">
      <g>
       <use style="stroke:#000000;stroke-width:0.8;" x="1281.080214" xlink:href="#m6c71bc30fb" y="315"/>
      </g>
     </g>
     <g id="text_43">
      <!-- u -->
      <g transform="translate(1277.911464 329.598437)scale(0.1 -0.1)">
       <use xlink:href="#DejaVuSans-117"/>
      </g>
     </g>
    </g>
    <g id="text_44">
     <!-- Różnorodność danych -->
     <g transform="translate(1076.756572 343.676562)scale(0.1 -0.1)">
      <use xlink:href="#DejaVuSans-82"/>
      <use x="69.419922" xlink:href="#DejaVuSans-243"/>
      <use x="130.601562" xlink:href="#DejaVuSans-380"/>
      <use x="183.091797" xlink:href="#DejaVuSans-110"/>
      <use x="246.470703" xlink:href="#DejaVuSans-111"/>
      <use x="307.652344" xlink:href="#DejaVuSans-114"/>
      <use x="348.734375" xlink:href="#DejaVuSans-111"/>
      <use x="409.916016" xlink:href="#DejaVuSans-100"/>
      <use x="473.392578" xlink:href="#DejaVuSans-110"/>
      <use x="536.771484" xlink:href="#DejaVuSans-111"/>
      <use x="597.953125" xlink:href="#DejaVuSans-347"/>
      <use x="650.052734" xlink:href="#DejaVuSans-263"/>
      <use x="705.033203" xlink:href="#DejaVuSans-32"/>
      <use x="736.820312" xlink:href="#DejaVuSans-100"/>
      <use x="800.296875" xlink:href="#DejaVuSans-97"/>
      <use x="861.576172" xlink:href="#DejaVuSans-110"/>
      <use x="924.955078" xlink:href="#DejaVuSans-121"/>
      <use x="984.134766" xlink:href="#DejaVuSans-99"/>
      <use x="1039.115234" xlink:href="#DejaVuSans-104"/>
     </g>
    </g>
   </g>
   <g id="matplotlib.axis_6">
    <g id="ytick_14">
     <g id="line2d_50">
      <g>
       <use style="stroke:#000000;stroke-width:0.8;" x="967.764706" xlink:href="#mb5c1518c88" y="283.463397"/>
      </g>
     </g>
     <g id="text_45">
      <!-- 700 -->
      <g transform="translate(941.677206 287.262616)scale(0.1 -0.1)">
       <use xlink:href="#DejaVuSans-55"/>
       <use x="63.623047" xlink:href="#DejaVuSans-48"/>
       <use x="127.246094" xlink:href="#DejaVuSans-48"/>
      </g>
     </g>
    </g>
    <g id="ytick_15">
     <g id="line2d_51">
      <g>
       <use style="stroke:#000000;stroke-width:0.8;" x="967.764706" xlink:href="#mb5c1518c88" y="250.951435"/>
      </g>
     </g>
     <g id="text_46">
      <!-- 800 -->
      <g transform="translate(941.677206 254.750654)scale(0.1 -0.1)">
       <use xlink:href="#DejaVuSans-56"/>
       <use x="63.623047" xlink:href="#DejaVuSans-48"/>
       <use x="127.246094" xlink:href="#DejaVuSans-48"/>
      </g>
     </g>
    </g>
    <g id="ytick_16">
     <g id="line2d_52">
      <g>
       <use style="stroke:#000000;stroke-width:0.8;" x="967.764706" xlink:href="#mb5c1518c88" y="218.439474"/>
      </g>
     </g>
     <g id="text_47">
      <!-- 900 -->
      <defs>
       <path d="M 10.984375 1.515625 
L 10.984375 10.5 
Q 14.703125 8.734375 18.5 7.8125 
Q 22.3125 6.890625 25.984375 6.890625 
Q 35.75 6.890625 40.890625 13.453125 
Q 46.046875 20.015625 46.78125 33.40625 
Q 43.953125 29.203125 39.59375 26.953125 
Q 35.25 24.703125 29.984375 24.703125 
Q 19.046875 24.703125 12.671875 31.3125 
Q 6.296875 37.9375 6.296875 49.421875 
Q 6.296875 60.640625 12.9375 67.421875 
Q 19.578125 74.21875 30.609375 74.21875 
Q 43.265625 74.21875 49.921875 64.515625 
Q 56.59375 54.828125 56.59375 36.375 
Q 56.59375 19.140625 48.40625 8.859375 
Q 40.234375 -1.421875 26.421875 -1.421875 
Q 22.703125 -1.421875 18.890625 -0.6875 
Q 15.09375 0.046875 10.984375 1.515625 
z
M 30.609375 32.421875 
Q 37.25 32.421875 41.125 36.953125 
Q 45.015625 41.5 45.015625 49.421875 
Q 45.015625 57.28125 41.125 61.84375 
Q 37.25 66.40625 30.609375 66.40625 
Q 23.96875 66.40625 20.09375 61.84375 
Q 16.21875 57.28125 16.21875 49.421875 
Q 16.21875 41.5 20.09375 36.953125 
Q 23.96875 32.421875 30.609375 32.421875 
z
" id="DejaVuSans-57"/>
      </defs>
      <g transform="translate(941.677206 222.238692)scale(0.1 -0.1)">
       <use xlink:href="#DejaVuSans-57"/>
       <use x="63.623047" xlink:href="#DejaVuSans-48"/>
       <use x="127.246094" xlink:href="#DejaVuSans-48"/>
      </g>
     </g>
    </g>
    <g id="ytick_17">
     <g id="line2d_53">
      <g>
       <use style="stroke:#000000;stroke-width:0.8;" x="967.764706" xlink:href="#mb5c1518c88" y="185.927512"/>
      </g>
     </g>
     <g id="text_48">
      <!-- 1000 -->
      <g transform="translate(935.314706 189.726731)scale(0.1 -0.1)">
       <use xlink:href="#DejaVuSans-49"/>
       <use x="63.623047" xlink:href="#DejaVuSans-48"/>
       <use x="127.246094" xlink:href="#DejaVuSans-48"/>
       <use x="190.869141" xlink:href="#DejaVuSans-48"/>
      </g>
     </g>
    </g>
    <g id="ytick_18">
     <g id="line2d_54">
      <g>
       <use style="stroke:#000000;stroke-width:0.8;" x="967.764706" xlink:href="#mb5c1518c88" y="153.41555"/>
      </g>
     </g>
     <g id="text_49">
      <!-- 1100 -->
      <g transform="translate(935.314706 157.214769)scale(0.1 -0.1)">
       <use xlink:href="#DejaVuSans-49"/>
       <use x="63.623047" xlink:href="#DejaVuSans-49"/>
       <use x="127.246094" xlink:href="#DejaVuSans-48"/>
       <use x="190.869141" xlink:href="#DejaVuSans-48"/>
      </g>
     </g>
    </g>
    <g id="ytick_19">
     <g id="line2d_55">
      <g>
       <use style="stroke:#000000;stroke-width:0.8;" x="967.764706" xlink:href="#mb5c1518c88" y="120.903589"/>
      </g>
     </g>
     <g id="text_50">
      <!-- 1200 -->
      <g transform="translate(935.314706 124.702807)scale(0.1 -0.1)">
       <use xlink:href="#DejaVuSans-49"/>
       <use x="63.623047" xlink:href="#DejaVuSans-50"/>
       <use x="127.246094" xlink:href="#DejaVuSans-48"/>
       <use x="190.869141" xlink:href="#DejaVuSans-48"/>
      </g>
     </g>
    </g>
    <g id="ytick_20">
     <g id="line2d_56">
      <g>
       <use style="stroke:#000000;stroke-width:0.8;" x="967.764706" xlink:href="#mb5c1518c88" y="88.391627"/>
      </g>
     </g>
     <g id="text_51">
      <!-- 1300 -->
      <g transform="translate(935.314706 92.190846)scale(0.1 -0.1)">
       <use xlink:href="#DejaVuSans-49"/>
       <use x="63.623047" xlink:href="#DejaVuSans-51"/>
       <use x="127.246094" xlink:href="#DejaVuSans-48"/>
       <use x="190.869141" xlink:href="#DejaVuSans-48"/>
      </g>
     </g>
    </g>
    <g id="ytick_21">
     <g id="line2d_57">
      <g>
       <use style="stroke:#000000;stroke-width:0.8;" x="967.764706" xlink:href="#mb5c1518c88" y="55.879665"/>
      </g>
     </g>
     <g id="text_52">
      <!-- 1400 -->
      <g transform="translate(935.314706 59.678884)scale(0.1 -0.1)">
       <use xlink:href="#DejaVuSans-49"/>
       <use x="63.623047" xlink:href="#DejaVuSans-52"/>
       <use x="127.246094" xlink:href="#DejaVuSans-48"/>
       <use x="190.869141" xlink:href="#DejaVuSans-48"/>
      </g>
     </g>
    </g>
    <g id="text_53">
     <!-- RAM [MB] -->
     <defs>
      <path d="M 34.1875 63.1875 
L 20.796875 26.90625 
L 47.609375 26.90625 
z
M 28.609375 72.90625 
L 39.796875 72.90625 
L 67.578125 0 
L 57.328125 0 
L 50.6875 18.703125 
L 17.828125 18.703125 
L 11.1875 0 
L 0.78125 0 
z
" id="DejaVuSans-65"/>
      <path d="M 9.8125 72.90625 
L 24.515625 72.90625 
L 43.109375 23.296875 
L 61.8125 72.90625 
L 76.515625 72.90625 
L 76.515625 0 
L 66.890625 0 
L 66.890625 64.015625 
L 48.09375 14.015625 
L 38.1875 14.015625 
L 19.390625 64.015625 
L 19.390625 0 
L 9.8125 0 
z
" id="DejaVuSans-77"/>
      <path d="M 19.671875 34.8125 
L 19.671875 8.109375 
L 35.5 8.109375 
Q 43.453125 8.109375 47.28125 11.40625 
Q 51.125 14.703125 51.125 21.484375 
Q 51.125 28.328125 47.28125 31.5625 
Q 43.453125 34.8125 35.5 34.8125 
z
M 19.671875 64.796875 
L 19.671875 42.828125 
L 34.28125 42.828125 
Q 41.5 42.828125 45.03125 45.53125 
Q 48.578125 48.25 48.578125 53.8125 
Q 48.578125 59.328125 45.03125 62.0625 
Q 41.5 64.796875 34.28125 64.796875 
z
M 9.8125 72.90625 
L 35.015625 72.90625 
Q 46.296875 72.90625 52.390625 68.21875 
Q 58.5 63.53125 58.5 54.890625 
Q 58.5 48.1875 55.375 44.234375 
Q 52.25 40.28125 46.1875 39.3125 
Q 53.46875 37.75 57.5 32.78125 
Q 61.53125 27.828125 61.53125 20.40625 
Q 61.53125 10.640625 54.890625 5.3125 
Q 48.25 0 35.984375 0 
L 9.8125 0 
z
" id="DejaVuSans-66"/>
     </defs>
     <g transform="translate(929.235018 203.540625)rotate(-90)scale(0.1 -0.1)">
      <use xlink:href="#DejaVuSans-82"/>
      <use x="69.419922" xlink:href="#DejaVuSans-65"/>
      <use x="137.828125" xlink:href="#DejaVuSans-77"/>
      <use x="224.107422" xlink:href="#DejaVuSans-32"/>
      <use x="255.894531" xlink:href="#DejaVuSans-91"/>
      <use x="294.908203" xlink:href="#DejaVuSans-77"/>
      <use x="381.1875" xlink:href="#DejaVuSans-66"/>
      <use x="449.791016" xlink:href="#DejaVuSans-93"/>
     </g>
    </g>
   </g>
   <g id="LineCollection_7">
    <path clip-path="url(#p8123fce09a)" d="M 982.684492 302.645455 
L 982.684492 165.119856 
" style="fill:none;stroke:#808080;stroke-width:2;"/>
    <path clip-path="url(#p8123fce09a)" d="M 1195.824293 251.276555 
L 1195.824293 176.824163 
" style="fill:none;stroke:#808080;stroke-width:2;"/>
   </g>
   <g id="LineCollection_8">
    <path clip-path="url(#p8123fce09a)" d="M 1025.312452 292.566746 
L 1025.312452 61.406699 
" style="fill:none;stroke:#808080;stroke-width:2;"/>
    <path clip-path="url(#p8123fce09a)" d="M 1238.452254 301.670096 
L 1238.452254 275.660526 
" style="fill:none;stroke:#808080;stroke-width:2;"/>
   </g>
   <g id="LineCollection_9">
    <path clip-path="url(#p8123fce09a)" d="M 1067.940413 275.985646 
L 1067.940413 55.554545 
" style="fill:none;stroke:#808080;stroke-width:2;"/>
    <path clip-path="url(#p8123fce09a)" d="M 1281.080214 292.891866 
L 1281.080214 65.958373 
" style="fill:none;stroke:#808080;stroke-width:2;"/>
   </g>
   <g id="line2d_58">
    <g clip-path="url(#p8123fce09a)">
     <use style="fill:#ff0000;stroke:#ff0000;" x="982.684492" xlink:href="#m38a03eee2b" y="255.66567"/>
     <use style="fill:#ff0000;stroke:#ff0000;" x="1195.824293" xlink:href="#m38a03eee2b" y="227.705383"/>
    </g>
   </g>
   <g id="line2d_59">
    <g clip-path="url(#p8123fce09a)">
     <use style="fill:#008000;stroke:#008000;" x="1025.312452" xlink:href="#m81d3997185" y="209.092285"/>
     <use style="fill:#008000;stroke:#008000;" x="1238.452254" xlink:href="#m81d3997185" y="282.894438"/>
    </g>
   </g>
   <g id="line2d_60">
    <g clip-path="url(#p8123fce09a)">
     <use style="fill:#0000ff;stroke:#0000ff;" x="1067.940413" xlink:href="#me1cf99cabe" y="184.464474"/>
     <use style="fill:#0000ff;stroke:#0000ff;" x="1281.080214" xlink:href="#me1cf99cabe" y="197.794378"/>
    </g>
   </g>
   <g id="patch_17">
    <path d="M 967.764706 315 
L 967.764706 43.2 
" style="fill:none;stroke:#000000;stroke-linecap:square;stroke-linejoin:miter;stroke-width:0.8;"/>
   </g>
   <g id="patch_18">
    <path d="M 1296 315 
L 1296 43.2 
" style="fill:none;stroke:#000000;stroke-linecap:square;stroke-linejoin:miter;stroke-width:0.8;"/>
   </g>
   <g id="patch_19">
    <path d="M 967.764706 315 
L 1296 315 
" style="fill:none;stroke:#000000;stroke-linecap:square;stroke-linejoin:miter;stroke-width:0.8;"/>
   </g>
   <g id="patch_20">
    <path d="M 967.764706 43.2 
L 1296 43.2 
" style="fill:none;stroke:#000000;stroke-linecap:square;stroke-linejoin:miter;stroke-width:0.8;"/>
   </g>
   <g id="text_54">
    <!-- Zużycie pamięci RAM w zależności -->
    <defs>
     <path d="M 5.609375 72.90625 
L 62.890625 72.90625 
L 62.890625 65.375 
L 16.796875 8.296875 
L 64.015625 8.296875 
L 64.015625 0 
L 4.5 0 
L 4.5 7.515625 
L 50.59375 64.59375 
L 5.609375 64.59375 
z
" id="DejaVuSans-90"/>
     <path d="M 56.203125 29.59375 
L 56.203125 25.203125 
L 14.890625 25.203125 
Q 15.484375 15.921875 20.484375 11.0625 
Q 25.484375 6.203125 34.421875 6.203125 
Q 39.59375 6.203125 44.453125 7.46875 
Q 49.3125 8.734375 54.109375 11.28125 
L 54.109375 2.78125 
Q 49.265625 0.734375 44.1875 -0.34375 
Q 39.109375 -1.421875 33.890625 -1.421875 
Q 20.796875 -1.421875 13.15625 6.1875 
Q 5.515625 13.8125 5.515625 26.8125 
Q 5.515625 40.234375 12.765625 48.109375 
Q 20.015625 56 32.328125 56 
Q 43.359375 56 49.78125 48.890625 
Q 56.203125 41.796875 56.203125 29.59375 
z
M 47.21875 32.234375 
Q 47.125 39.59375 43.09375 43.984375 
Q 39.0625 48.390625 32.421875 48.390625 
Q 24.90625 48.390625 20.390625 44.140625 
Q 15.875 39.890625 15.1875 32.171875 
z
M 39.859375 0 
L 45.671875 0 
Q 43.46875 -2.984375 42.421875 -5.125 
Q 41.375 -7.28125 41.375 -8.796875 
Q 41.375 -11.03125 42.71875 -12.15625 
Q 44.0625 -13.28125 46.703125 -13.28125 
Q 48.265625 -13.28125 49.765625 -12.90625 
Q 51.28125 -12.546875 52.796875 -11.8125 
L 52.796875 -18.3125 
Q 50.9375 -18.796875 49.28125 -19.03125 
Q 47.625 -19.28125 46.15625 -19.28125 
Q 40.203125 -19.28125 37.390625 -17.15625 
Q 34.59375 -15.046875 34.59375 -10.5 
Q 34.59375 -8.15625 35.875 -5.59375 
Q 37.171875 -3.03125 39.859375 0 
z
" id="DejaVuSans-281"/>
    </defs>
    <g transform="translate(1028.076728 23.186625)scale(0.12 -0.12)">
     <use xlink:href="#DejaVuSans-90"/>
     <use x="68.505859" xlink:href="#DejaVuSans-117"/>
     <use x="131.884766" xlink:href="#DejaVuSans-380"/>
     <use x="184.375" xlink:href="#DejaVuSans-121"/>
     <use x="243.554688" xlink:href="#DejaVuSans-99"/>
     <use x="298.535156" xlink:href="#DejaVuSans-105"/>
     <use x="326.318359" xlink:href="#DejaVuSans-101"/>
     <use x="387.841797" xlink:href="#DejaVuSans-32"/>
     <use x="419.628906" xlink:href="#DejaVuSans-112"/>
     <use x="483.105469" xlink:href="#DejaVuSans-97"/>
     <use x="544.384766" xlink:href="#DejaVuSans-109"/>
     <use x="641.796875" xlink:href="#DejaVuSans-105"/>
     <use x="669.580078" xlink:href="#DejaVuSans-281"/>
     <use x="731.103516" xlink:href="#DejaVuSans-99"/>
     <use x="786.083984" xlink:href="#DejaVuSans-105"/>
     <use x="813.867188" xlink:href="#DejaVuSans-32"/>
     <use x="845.654297" xlink:href="#DejaVuSans-82"/>
     <use x="915.074219" xlink:href="#DejaVuSans-65"/>
     <use x="983.482422" xlink:href="#DejaVuSans-77"/>
     <use x="1069.761719" xlink:href="#DejaVuSans-32"/>
     <use x="1101.548828" xlink:href="#DejaVuSans-119"/>
     <use x="1183.335938" xlink:href="#DejaVuSans-32"/>
     <use x="1215.123047" xlink:href="#DejaVuSans-122"/>
     <use x="1267.613281" xlink:href="#DejaVuSans-97"/>
     <use x="1328.892578" xlink:href="#DejaVuSans-108"/>
     <use x="1356.675781" xlink:href="#DejaVuSans-101"/>
     <use x="1418.199219" xlink:href="#DejaVuSans-380"/>
     <use x="1470.689453" xlink:href="#DejaVuSans-110"/>
     <use x="1534.068359" xlink:href="#DejaVuSans-111"/>
     <use x="1595.25" xlink:href="#DejaVuSans-347"/>
     <use x="1647.349609" xlink:href="#DejaVuSans-99"/>
     <use x="1702.330078" xlink:href="#DejaVuSans-105"/>
    </g>
    <!-- od różnorodności danych i formatu zapisu -->
    <g transform="translate(1005.835478 37.2)scale(0.12 -0.12)">
     <use xlink:href="#DejaVuSans-111"/>
     <use x="61.181641" xlink:href="#DejaVuSans-100"/>
     <use x="124.658203" xlink:href="#DejaVuSans-32"/>
     <use x="156.445312" xlink:href="#DejaVuSans-114"/>
     <use x="197.527344" xlink:href="#DejaVuSans-243"/>
     <use x="258.708984" xlink:href="#DejaVuSans-380"/>
     <use x="311.199219" xlink:href="#DejaVuSans-110"/>
     <use x="374.578125" xlink:href="#DejaVuSans-111"/>
     <use x="435.759766" xlink:href="#DejaVuSans-114"/>
     <use x="476.841797" xlink:href="#DejaVuSans-111"/>
     <use x="538.023438" xlink:href="#DejaVuSans-100"/>
     <use x="601.5" xlink:href="#DejaVuSans-110"/>
     <use x="664.878906" xlink:href="#DejaVuSans-111"/>
     <use x="726.060547" xlink:href="#DejaVuSans-347"/>
     <use x="778.160156" xlink:href="#DejaVuSans-99"/>
     <use x="833.140625" xlink:href="#DejaVuSans-105"/>
     <use x="860.923828" xlink:href="#DejaVuSans-32"/>
     <use x="892.710938" xlink:href="#DejaVuSans-100"/>
     <use x="956.1875" xlink:href="#DejaVuSans-97"/>
     <use x="1017.466797" xlink:href="#DejaVuSans-110"/>
     <use x="1080.845703" xlink:href="#DejaVuSans-121"/>
     <use x="1140.025391" xlink:href="#DejaVuSans-99"/>
     <use x="1195.005859" xlink:href="#DejaVuSans-104"/>
     <use x="1258.384766" xlink:href="#DejaVuSans-32"/>
     <use x="1290.171875" xlink:href="#DejaVuSans-105"/>
     <use x="1317.955078" xlink:href="#DejaVuSans-32"/>
     <use x="1349.742188" xlink:href="#DejaVuSans-102"/>
     <use x="1384.947266" xlink:href="#DejaVuSans-111"/>
     <use x="1446.128906" xlink:href="#DejaVuSans-114"/>
     <use x="1487.226562" xlink:href="#DejaVuSans-109"/>
     <use x="1584.638672" xlink:href="#DejaVuSans-97"/>
     <use x="1645.917969" xlink:href="#DejaVuSans-116"/>
     <use x="1685.126953" xlink:href="#DejaVuSans-117"/>
     <use x="1748.505859" xlink:href="#DejaVuSans-32"/>
     <use x="1780.292969" xlink:href="#DejaVuSans-122"/>
     <use x="1832.783203" xlink:href="#DejaVuSans-97"/>
     <use x="1894.0625" xlink:href="#DejaVuSans-112"/>
     <use x="1957.539062" xlink:href="#DejaVuSans-105"/>
     <use x="1985.322266" xlink:href="#DejaVuSans-115"/>
     <use x="2037.421875" xlink:href="#DejaVuSans-117"/>
    </g>
   </g>
   <g id="legend_3">
    <g id="patch_21">
     <path d="M 1078.486259 97.234375 
L 1189.278447 97.234375 
Q 1191.278447 97.234375 1191.278447 95.234375 
L 1191.278447 52.2 
Q 1191.278447 50.2 1189.278447 50.2 
L 1078.486259 50.2 
Q 1076.486259 50.2 1076.486259 52.2 
L 1076.486259 95.234375 
Q 1076.486259 97.234375 1078.486259 97.234375 
z
" style="fill:#4c4c4c;opacity:0.5;stroke:#4c4c4c;stroke-linejoin:miter;"/>
    </g>
    <g id="patch_22">
     <path d="M 1076.486259 95.234375 
L 1187.278447 95.234375 
Q 1189.278447 95.234375 1189.278447 93.234375 
L 1189.278447 50.2 
Q 1189.278447 48.2 1187.278447 48.2 
L 1076.486259 48.2 
Q 1074.486259 48.2 1074.486259 50.2 
L 1074.486259 93.234375 
Q 1074.486259 95.234375 1076.486259 95.234375 
z
" style="fill:#ffffff;stroke:#cccccc;stroke-linejoin:miter;"/>
    </g>
    <g id="line2d_61"/>
    <g id="line2d_62">
     <g>
      <use style="fill:#ff0000;stroke:#ff0000;" x="1088.486259" xlink:href="#m38a03eee2b" y="56.298437"/>
     </g>
    </g>
    <g id="text_55">
     <!-- csv -->
     <g transform="translate(1106.486259 59.798437)scale(0.1 -0.1)">
      <use xlink:href="#DejaVuSans-99"/>
      <use x="54.980469" xlink:href="#DejaVuSans-115"/>
      <use x="107.080078" xlink:href="#DejaVuSans-118"/>
     </g>
    </g>
    <g id="line2d_63"/>
    <g id="line2d_64">
     <g>
      <use style="fill:#008000;stroke:#008000;" x="1088.486259" xlink:href="#m81d3997185" y="70.976562"/>
     </g>
    </g>
    <g id="text_56">
     <!-- csv.gz -->
     <g transform="translate(1106.486259 74.476562)scale(0.1 -0.1)">
      <use xlink:href="#DejaVuSans-99"/>
      <use x="54.980469" xlink:href="#DejaVuSans-115"/>
      <use x="107.080078" xlink:href="#DejaVuSans-118"/>
      <use x="166.150391" xlink:href="#DejaVuSans-46"/>
      <use x="197.9375" xlink:href="#DejaVuSans-103"/>
      <use x="261.414062" xlink:href="#DejaVuSans-122"/>
     </g>
    </g>
    <g id="line2d_65"/>
    <g id="line2d_66">
     <g>
      <use style="fill:#0000ff;stroke:#0000ff;" x="1088.486259" xlink:href="#me1cf99cabe" y="85.654687"/>
     </g>
    </g>
    <g id="text_57">
     <!-- snappy.parquet -->
     <g transform="translate(1106.486259 89.154687)scale(0.1 -0.1)">
      <use xlink:href="#DejaVuSans-115"/>
      <use x="52.099609" xlink:href="#DejaVuSans-110"/>
      <use x="115.478516" xlink:href="#DejaVuSans-97"/>
      <use x="176.757812" xlink:href="#DejaVuSans-112"/>
      <use x="240.234375" xlink:href="#DejaVuSans-112"/>
      <use x="303.710938" xlink:href="#DejaVuSans-121"/>
      <use x="362.671875" xlink:href="#DejaVuSans-46"/>
      <use x="394.458984" xlink:href="#DejaVuSans-112"/>
      <use x="457.935547" xlink:href="#DejaVuSans-97"/>
      <use x="519.214844" xlink:href="#DejaVuSans-114"/>
      <use x="560.3125" xlink:href="#DejaVuSans-113"/>
      <use x="623.789062" xlink:href="#DejaVuSans-117"/>
      <use x="687.167969" xlink:href="#DejaVuSans-101"/>
      <use x="748.691406" xlink:href="#DejaVuSans-116"/>
     </g>
    </g>
   </g>
  </g>
 </g>
 <defs>
  <clipPath id="p571236add2">
   <rect height="271.8" width="328.235294" x="180" y="43.2"/>
  </clipPath>
  <clipPath id="pfec66d755d">
   <rect height="271.8" width="328.235294" x="573.882353" y="43.2"/>
  </clipPath>
  <clipPath id="p8123fce09a">
   <rect height="271.8" width="328.235294" x="967.764706" y="43.2"/>
  </clipPath>
 </defs>
</svg>
