<?xml version="1.0" encoding="utf-8" standalone="no"?>
<!DOCTYPE svg PUBLIC "-//W3C//DTD SVG 1.1//EN"
  "http://www.w3.org/Graphics/SVG/1.1/DTD/svg11.dtd">
<!-- Created with matplotlib (https://matplotlib.org/) -->
<svg height="515.56917pt" version="1.1" viewBox="0 0 1208.560165 515.56917" width="1208.560165pt" xmlns="http://www.w3.org/2000/svg" xmlns:xlink="http://www.w3.org/1999/xlink">
 <defs>
  <style type="text/css">
*{stroke-linecap:butt;stroke-linejoin:round;}
  </style>
 </defs>
 <g id="figure_1">
  <g id="patch_1">
   <path d="M 0 515.56917 
L 1208.560165 515.56917 
L 1208.560165 0 
L 0 0 
z
" style="fill:#ffffff;"/>
  </g>
  <g id="axes_1">
   <g id="patch_2">
    <path d="M 60.4075 429.13725 
L 388.642794 429.13725 
L 388.642794 48.61725 
L 60.4075 48.61725 
z
" style="fill:#ffffff;"/>
   </g>
   <g id="matplotlib.axis_1">
    <g id="xtick_1">
     <g id="line2d_1">
      <defs>
       <path d="M 0 0 
L 0 3.5 
" id="m351048859f" style="stroke:#000000;stroke-width:0.8;"/>
      </defs>
      <g>
       <use style="stroke:#000000;stroke-width:0.8;" x="75.327286" xlink:href="#m351048859f" y="429.13725"/>
      </g>
     </g>
     <g id="text_1">
      <!-- ustalona -->
      <defs>
       <path d="M 8.5 21.578125 
L 8.5 54.6875 
L 17.484375 54.6875 
L 17.484375 21.921875 
Q 17.484375 14.15625 20.5 10.265625 
Q 23.53125 6.390625 29.59375 6.390625 
Q 36.859375 6.390625 41.078125 11.03125 
Q 45.3125 15.671875 45.3125 23.6875 
L 45.3125 54.6875 
L 54.296875 54.6875 
L 54.296875 0 
L 45.3125 0 
L 45.3125 8.40625 
Q 42.046875 3.421875 37.71875 1 
Q 33.40625 -1.421875 27.6875 -1.421875 
Q 18.265625 -1.421875 13.375 4.4375 
Q 8.5 10.296875 8.5 21.578125 
z
M 31.109375 56 
z
" id="DejaVuSans-117"/>
       <path d="M 44.28125 53.078125 
L 44.28125 44.578125 
Q 40.484375 46.53125 36.375 47.5 
Q 32.28125 48.484375 27.875 48.484375 
Q 21.1875 48.484375 17.84375 46.4375 
Q 14.5 44.390625 14.5 40.28125 
Q 14.5 37.15625 16.890625 35.375 
Q 19.28125 33.59375 26.515625 31.984375 
L 29.59375 31.296875 
Q 39.15625 29.25 43.1875 25.515625 
Q 47.21875 21.78125 47.21875 15.09375 
Q 47.21875 7.46875 41.1875 3.015625 
Q 35.15625 -1.421875 24.609375 -1.421875 
Q 20.21875 -1.421875 15.453125 -0.5625 
Q 10.6875 0.296875 5.421875 2 
L 5.421875 11.28125 
Q 10.40625 8.6875 15.234375 7.390625 
Q 20.0625 6.109375 24.8125 6.109375 
Q 31.15625 6.109375 34.5625 8.28125 
Q 37.984375 10.453125 37.984375 14.40625 
Q 37.984375 18.0625 35.515625 20.015625 
Q 33.0625 21.96875 24.703125 23.78125 
L 21.578125 24.515625 
Q 13.234375 26.265625 9.515625 29.90625 
Q 5.8125 33.546875 5.8125 39.890625 
Q 5.8125 47.609375 11.28125 51.796875 
Q 16.75 56 26.8125 56 
Q 31.78125 56 36.171875 55.265625 
Q 40.578125 54.546875 44.28125 53.078125 
z
" id="DejaVuSans-115"/>
       <path d="M 18.3125 70.21875 
L 18.3125 54.6875 
L 36.8125 54.6875 
L 36.8125 47.703125 
L 18.3125 47.703125 
L 18.3125 18.015625 
Q 18.3125 11.328125 20.140625 9.421875 
Q 21.96875 7.515625 27.59375 7.515625 
L 36.8125 7.515625 
L 36.8125 0 
L 27.59375 0 
Q 17.1875 0 13.234375 3.875 
Q 9.28125 7.765625 9.28125 18.015625 
L 9.28125 47.703125 
L 2.6875 47.703125 
L 2.6875 54.6875 
L 9.28125 54.6875 
L 9.28125 70.21875 
z
" id="DejaVuSans-116"/>
       <path d="M 34.28125 27.484375 
Q 23.390625 27.484375 19.1875 25 
Q 14.984375 22.515625 14.984375 16.5 
Q 14.984375 11.71875 18.140625 8.90625 
Q 21.296875 6.109375 26.703125 6.109375 
Q 34.1875 6.109375 38.703125 11.40625 
Q 43.21875 16.703125 43.21875 25.484375 
L 43.21875 27.484375 
z
M 52.203125 31.203125 
L 52.203125 0 
L 43.21875 0 
L 43.21875 8.296875 
Q 40.140625 3.328125 35.546875 0.953125 
Q 30.953125 -1.421875 24.3125 -1.421875 
Q 15.921875 -1.421875 10.953125 3.296875 
Q 6 8.015625 6 15.921875 
Q 6 25.140625 12.171875 29.828125 
Q 18.359375 34.515625 30.609375 34.515625 
L 43.21875 34.515625 
L 43.21875 35.40625 
Q 43.21875 41.609375 39.140625 45 
Q 35.0625 48.390625 27.6875 48.390625 
Q 23 48.390625 18.546875 47.265625 
Q 14.109375 46.140625 10.015625 43.890625 
L 10.015625 52.203125 
Q 14.9375 54.109375 19.578125 55.046875 
Q 24.21875 56 28.609375 56 
Q 40.484375 56 46.34375 49.84375 
Q 52.203125 43.703125 52.203125 31.203125 
z
" id="DejaVuSans-97"/>
       <path d="M 9.421875 75.984375 
L 18.40625 75.984375 
L 18.40625 0 
L 9.421875 0 
z
" id="DejaVuSans-108"/>
       <path d="M 30.609375 48.390625 
Q 23.390625 48.390625 19.1875 42.75 
Q 14.984375 37.109375 14.984375 27.296875 
Q 14.984375 17.484375 19.15625 11.84375 
Q 23.34375 6.203125 30.609375 6.203125 
Q 37.796875 6.203125 41.984375 11.859375 
Q 46.1875 17.53125 46.1875 27.296875 
Q 46.1875 37.015625 41.984375 42.703125 
Q 37.796875 48.390625 30.609375 48.390625 
z
M 30.609375 56 
Q 42.328125 56 49.015625 48.375 
Q 55.71875 40.765625 55.71875 27.296875 
Q 55.71875 13.875 49.015625 6.21875 
Q 42.328125 -1.421875 30.609375 -1.421875 
Q 18.84375 -1.421875 12.171875 6.21875 
Q 5.515625 13.875 5.515625 27.296875 
Q 5.515625 40.765625 12.171875 48.375 
Q 18.84375 56 30.609375 56 
z
" id="DejaVuSans-111"/>
       <path d="M 54.890625 33.015625 
L 54.890625 0 
L 45.90625 0 
L 45.90625 32.71875 
Q 45.90625 40.484375 42.875 44.328125 
Q 39.84375 48.1875 33.796875 48.1875 
Q 26.515625 48.1875 22.3125 43.546875 
Q 18.109375 38.921875 18.109375 30.90625 
L 18.109375 0 
L 9.078125 0 
L 9.078125 54.6875 
L 18.109375 54.6875 
L 18.109375 46.1875 
Q 21.34375 51.125 25.703125 53.5625 
Q 30.078125 56 35.796875 56 
Q 45.21875 56 50.046875 50.171875 
Q 54.890625 44.34375 54.890625 33.015625 
z
" id="DejaVuSans-110"/>
      </defs>
      <g transform="translate(56.795896 486.185384)rotate(-45)scale(0.14 -0.14)">
       <use xlink:href="#DejaVuSans-117"/>
       <use x="63.378906" xlink:href="#DejaVuSans-115"/>
       <use x="115.478516" xlink:href="#DejaVuSans-116"/>
       <use x="154.6875" xlink:href="#DejaVuSans-97"/>
       <use x="215.966797" xlink:href="#DejaVuSans-108"/>
       <use x="243.75" xlink:href="#DejaVuSans-111"/>
       <use x="304.931641" xlink:href="#DejaVuSans-110"/>
       <use x="368.310547" xlink:href="#DejaVuSans-97"/>
      </g>
     </g>
    </g>
    <g id="xtick_2">
     <g id="line2d_2">
      <g>
       <use style="stroke:#000000;stroke-width:0.8;" x="117.955246" xlink:href="#m351048859f" y="429.13725"/>
      </g>
     </g>
     <g id="text_2">
      <!-- ustalona -->
      <g transform="translate(99.423856 486.185384)rotate(-45)scale(0.14 -0.14)">
       <use xlink:href="#DejaVuSans-117"/>
       <use x="63.378906" xlink:href="#DejaVuSans-115"/>
       <use x="115.478516" xlink:href="#DejaVuSans-116"/>
       <use x="154.6875" xlink:href="#DejaVuSans-97"/>
       <use x="215.966797" xlink:href="#DejaVuSans-108"/>
       <use x="243.75" xlink:href="#DejaVuSans-111"/>
       <use x="304.931641" xlink:href="#DejaVuSans-110"/>
       <use x="368.310547" xlink:href="#DejaVuSans-97"/>
      </g>
     </g>
    </g>
    <g id="xtick_3">
     <g id="line2d_3">
      <g>
       <use style="stroke:#000000;stroke-width:0.8;" x="160.583207" xlink:href="#m351048859f" y="429.13725"/>
      </g>
     </g>
     <g id="text_3">
      <!-- ustalona -->
      <g transform="translate(142.051816 486.185384)rotate(-45)scale(0.14 -0.14)">
       <use xlink:href="#DejaVuSans-117"/>
       <use x="63.378906" xlink:href="#DejaVuSans-115"/>
       <use x="115.478516" xlink:href="#DejaVuSans-116"/>
       <use x="154.6875" xlink:href="#DejaVuSans-97"/>
       <use x="215.966797" xlink:href="#DejaVuSans-108"/>
       <use x="243.75" xlink:href="#DejaVuSans-111"/>
       <use x="304.931641" xlink:href="#DejaVuSans-110"/>
       <use x="368.310547" xlink:href="#DejaVuSans-97"/>
      </g>
     </g>
    </g>
    <g id="xtick_4">
     <g id="line2d_4">
      <g>
       <use style="stroke:#000000;stroke-width:0.8;" x="288.467087" xlink:href="#m351048859f" y="429.13725"/>
      </g>
     </g>
     <g id="text_4">
      <!-- dowolna -->
      <defs>
       <path d="M 45.40625 46.390625 
L 45.40625 75.984375 
L 54.390625 75.984375 
L 54.390625 0 
L 45.40625 0 
L 45.40625 8.203125 
Q 42.578125 3.328125 38.25 0.953125 
Q 33.9375 -1.421875 27.875 -1.421875 
Q 17.96875 -1.421875 11.734375 6.484375 
Q 5.515625 14.40625 5.515625 27.296875 
Q 5.515625 40.1875 11.734375 48.09375 
Q 17.96875 56 27.875 56 
Q 33.9375 56 38.25 53.625 
Q 42.578125 51.265625 45.40625 46.390625 
z
M 14.796875 27.296875 
Q 14.796875 17.390625 18.875 11.75 
Q 22.953125 6.109375 30.078125 6.109375 
Q 37.203125 6.109375 41.296875 11.75 
Q 45.40625 17.390625 45.40625 27.296875 
Q 45.40625 37.203125 41.296875 42.84375 
Q 37.203125 48.484375 30.078125 48.484375 
Q 22.953125 48.484375 18.875 42.84375 
Q 14.796875 37.203125 14.796875 27.296875 
z
" id="DejaVuSans-100"/>
       <path d="M 4.203125 54.6875 
L 13.1875 54.6875 
L 24.421875 12.015625 
L 35.59375 54.6875 
L 46.1875 54.6875 
L 57.421875 12.015625 
L 68.609375 54.6875 
L 77.59375 54.6875 
L 63.28125 0 
L 52.6875 0 
L 40.921875 44.828125 
L 29.109375 0 
L 18.5 0 
z
" id="DejaVuSans-119"/>
      </defs>
      <g transform="translate(270.405923 485.244932)rotate(-45)scale(0.14 -0.14)">
       <use xlink:href="#DejaVuSans-100"/>
       <use x="63.476562" xlink:href="#DejaVuSans-111"/>
       <use x="124.658203" xlink:href="#DejaVuSans-119"/>
       <use x="206.445312" xlink:href="#DejaVuSans-111"/>
       <use x="267.626953" xlink:href="#DejaVuSans-108"/>
       <use x="295.410156" xlink:href="#DejaVuSans-110"/>
       <use x="358.789062" xlink:href="#DejaVuSans-97"/>
      </g>
     </g>
    </g>
    <g id="xtick_5">
     <g id="line2d_5">
      <g>
       <use style="stroke:#000000;stroke-width:0.8;" x="331.095048" xlink:href="#m351048859f" y="429.13725"/>
      </g>
     </g>
     <g id="text_5">
      <!-- dowolna -->
      <g transform="translate(313.033883 485.244932)rotate(-45)scale(0.14 -0.14)">
       <use xlink:href="#DejaVuSans-100"/>
       <use x="63.476562" xlink:href="#DejaVuSans-111"/>
       <use x="124.658203" xlink:href="#DejaVuSans-119"/>
       <use x="206.445312" xlink:href="#DejaVuSans-111"/>
       <use x="267.626953" xlink:href="#DejaVuSans-108"/>
       <use x="295.410156" xlink:href="#DejaVuSans-110"/>
       <use x="358.789062" xlink:href="#DejaVuSans-97"/>
      </g>
     </g>
    </g>
    <g id="xtick_6">
     <g id="line2d_6">
      <g>
       <use style="stroke:#000000;stroke-width:0.8;" x="373.723008" xlink:href="#m351048859f" y="429.13725"/>
      </g>
     </g>
     <g id="text_6">
      <!-- dowolna -->
      <g transform="translate(355.661844 485.244932)rotate(-45)scale(0.14 -0.14)">
       <use xlink:href="#DejaVuSans-100"/>
       <use x="63.476562" xlink:href="#DejaVuSans-111"/>
       <use x="124.658203" xlink:href="#DejaVuSans-119"/>
       <use x="206.445312" xlink:href="#DejaVuSans-111"/>
       <use x="267.626953" xlink:href="#DejaVuSans-108"/>
       <use x="295.410156" xlink:href="#DejaVuSans-110"/>
       <use x="358.789062" xlink:href="#DejaVuSans-97"/>
      </g>
     </g>
    </g>
    <g id="text_7">
     <!-- Różnorodność danych -->
     <defs>
      <path d="M 44.390625 34.1875 
Q 47.5625 33.109375 50.5625 29.59375 
Q 53.5625 26.078125 56.59375 19.921875 
L 66.609375 0 
L 56 0 
L 46.6875 18.703125 
Q 43.0625 26.03125 39.671875 28.421875 
Q 36.28125 30.8125 30.421875 30.8125 
L 19.671875 30.8125 
L 19.671875 0 
L 9.8125 0 
L 9.8125 72.90625 
L 32.078125 72.90625 
Q 44.578125 72.90625 50.734375 67.671875 
Q 56.890625 62.453125 56.890625 51.90625 
Q 56.890625 45.015625 53.6875 40.46875 
Q 50.484375 35.9375 44.390625 34.1875 
z
M 19.671875 64.796875 
L 19.671875 38.921875 
L 32.078125 38.921875 
Q 39.203125 38.921875 42.84375 42.21875 
Q 46.484375 45.515625 46.484375 51.90625 
Q 46.484375 58.296875 42.84375 61.546875 
Q 39.203125 64.796875 32.078125 64.796875 
z
" id="DejaVuSans-82"/>
      <path d="M 30.609375 48.390625 
Q 23.390625 48.390625 19.1875 42.75 
Q 14.984375 37.109375 14.984375 27.296875 
Q 14.984375 17.484375 19.15625 11.84375 
Q 23.34375 6.203125 30.609375 6.203125 
Q 37.796875 6.203125 41.984375 11.859375 
Q 46.1875 17.53125 46.1875 27.296875 
Q 46.1875 37.015625 41.984375 42.703125 
Q 37.796875 48.390625 30.609375 48.390625 
z
M 30.609375 56 
Q 42.328125 56 49.015625 48.375 
Q 55.71875 40.765625 55.71875 27.296875 
Q 55.71875 13.875 49.015625 6.21875 
Q 42.328125 -1.421875 30.609375 -1.421875 
Q 18.84375 -1.421875 12.171875 6.21875 
Q 5.515625 13.875 5.515625 27.296875 
Q 5.515625 40.765625 12.171875 48.375 
Q 18.84375 56 30.609375 56 
z
M 37.40625 79.984375 
L 47.125 79.984375 
L 31.21875 61.625 
L 23.734375 61.625 
z
" id="DejaVuSans-243"/>
      <path d="M 21.53125 75.984375 
L 30.515625 75.984375 
L 30.515625 64.59375 
L 21.53125 64.59375 
z
M 26.125 56 
z
M 5.515625 54.6875 
L 48.1875 54.6875 
L 48.1875 46.484375 
L 14.40625 7.171875 
L 48.1875 7.171875 
L 48.1875 0 
L 4.296875 0 
L 4.296875 8.203125 
L 38.09375 47.515625 
L 5.515625 47.515625 
z
" id="DejaVuSans-380"/>
      <path d="M 41.109375 46.296875 
Q 39.59375 47.171875 37.8125 47.578125 
Q 36.03125 48 33.890625 48 
Q 26.265625 48 22.1875 43.046875 
Q 18.109375 38.09375 18.109375 28.8125 
L 18.109375 0 
L 9.078125 0 
L 9.078125 54.6875 
L 18.109375 54.6875 
L 18.109375 46.1875 
Q 20.953125 51.171875 25.484375 53.578125 
Q 30.03125 56 36.53125 56 
Q 37.453125 56 38.578125 55.875 
Q 39.703125 55.765625 41.0625 55.515625 
z
" id="DejaVuSans-114"/>
      <path d="M 35.03125 79.984375 
L 44.75 79.984375 
L 28.84375 61.625 
L 21.359375 61.625 
z
M 44.28125 53.078125 
L 44.28125 44.578125 
Q 40.484375 46.53125 36.375 47.5 
Q 32.28125 48.484375 27.875 48.484375 
Q 21.1875 48.484375 17.84375 46.4375 
Q 14.5 44.390625 14.5 40.28125 
Q 14.5 37.15625 16.890625 35.375 
Q 19.28125 33.59375 26.515625 31.984375 
L 29.59375 31.296875 
Q 39.15625 29.25 43.1875 25.515625 
Q 47.21875 21.78125 47.21875 15.09375 
Q 47.21875 7.46875 41.1875 3.015625 
Q 35.15625 -1.421875 24.609375 -1.421875 
Q 20.21875 -1.421875 15.453125 -0.5625 
Q 10.6875 0.296875 5.421875 2 
L 5.421875 11.28125 
Q 10.40625 8.6875 15.234375 7.390625 
Q 20.0625 6.109375 24.8125 6.109375 
Q 31.15625 6.109375 34.5625 8.28125 
Q 37.984375 10.453125 37.984375 14.40625 
Q 37.984375 18.0625 35.515625 20.015625 
Q 33.0625 21.96875 24.703125 23.78125 
L 21.578125 24.515625 
Q 13.234375 26.265625 9.515625 29.90625 
Q 5.8125 33.546875 5.8125 39.890625 
Q 5.8125 47.609375 11.28125 51.796875 
Q 16.75 56 26.8125 56 
Q 31.78125 56 36.171875 55.265625 
Q 40.578125 54.546875 44.28125 53.078125 
z
" id="DejaVuSans-347"/>
      <path d="M 48.78125 52.59375 
L 48.78125 44.1875 
Q 44.96875 46.296875 41.140625 47.34375 
Q 37.3125 48.390625 33.40625 48.390625 
Q 24.65625 48.390625 19.8125 42.84375 
Q 14.984375 37.3125 14.984375 27.296875 
Q 14.984375 17.28125 19.8125 11.734375 
Q 24.65625 6.203125 33.40625 6.203125 
Q 37.3125 6.203125 41.140625 7.25 
Q 44.96875 8.296875 48.78125 10.40625 
L 48.78125 2.09375 
Q 45.015625 0.34375 40.984375 -0.53125 
Q 36.96875 -1.421875 32.421875 -1.421875 
Q 20.0625 -1.421875 12.78125 6.34375 
Q 5.515625 14.109375 5.515625 27.296875 
Q 5.515625 40.671875 12.859375 48.328125 
Q 20.21875 56 33.015625 56 
Q 37.15625 56 41.109375 55.140625 
Q 45.0625 54.296875 48.78125 52.59375 
z
M 38.53125 79.984375 
L 48.25 79.984375 
L 32.34375 61.625 
L 24.859375 61.625 
z
" id="DejaVuSans-263"/>
      <path id="DejaVuSans-32"/>
      <path d="M 32.171875 -5.078125 
Q 28.375 -14.84375 24.75 -17.8125 
Q 21.140625 -20.796875 15.09375 -20.796875 
L 7.90625 -20.796875 
L 7.90625 -13.28125 
L 13.1875 -13.28125 
Q 16.890625 -13.28125 18.9375 -11.515625 
Q 21 -9.765625 23.484375 -3.21875 
L 25.09375 0.875 
L 2.984375 54.6875 
L 12.5 54.6875 
L 29.59375 11.921875 
L 46.6875 54.6875 
L 56.203125 54.6875 
z
" id="DejaVuSans-121"/>
      <path d="M 48.78125 52.59375 
L 48.78125 44.1875 
Q 44.96875 46.296875 41.140625 47.34375 
Q 37.3125 48.390625 33.40625 48.390625 
Q 24.65625 48.390625 19.8125 42.84375 
Q 14.984375 37.3125 14.984375 27.296875 
Q 14.984375 17.28125 19.8125 11.734375 
Q 24.65625 6.203125 33.40625 6.203125 
Q 37.3125 6.203125 41.140625 7.25 
Q 44.96875 8.296875 48.78125 10.40625 
L 48.78125 2.09375 
Q 45.015625 0.34375 40.984375 -0.53125 
Q 36.96875 -1.421875 32.421875 -1.421875 
Q 20.0625 -1.421875 12.78125 6.34375 
Q 5.515625 14.109375 5.515625 27.296875 
Q 5.515625 40.671875 12.859375 48.328125 
Q 20.21875 56 33.015625 56 
Q 37.15625 56 41.109375 55.140625 
Q 45.0625 54.296875 48.78125 52.59375 
z
" id="DejaVuSans-99"/>
      <path d="M 54.890625 33.015625 
L 54.890625 0 
L 45.90625 0 
L 45.90625 32.71875 
Q 45.90625 40.484375 42.875 44.328125 
Q 39.84375 48.1875 33.796875 48.1875 
Q 26.515625 48.1875 22.3125 43.546875 
Q 18.109375 38.921875 18.109375 30.90625 
L 18.109375 0 
L 9.078125 0 
L 9.078125 75.984375 
L 18.109375 75.984375 
L 18.109375 46.1875 
Q 21.34375 51.125 25.703125 53.5625 
Q 30.078125 56 35.796875 56 
Q 45.21875 56 50.046875 50.171875 
Q 54.890625 44.34375 54.890625 33.015625 
z
" id="DejaVuSans-104"/>
     </defs>
     <g transform="translate(136.323897 505.04167)scale(0.16 -0.16)">
      <use xlink:href="#DejaVuSans-82"/>
      <use x="69.419922" xlink:href="#DejaVuSans-243"/>
      <use x="130.601562" xlink:href="#DejaVuSans-380"/>
      <use x="183.091797" xlink:href="#DejaVuSans-110"/>
      <use x="246.470703" xlink:href="#DejaVuSans-111"/>
      <use x="307.652344" xlink:href="#DejaVuSans-114"/>
      <use x="348.734375" xlink:href="#DejaVuSans-111"/>
      <use x="409.916016" xlink:href="#DejaVuSans-100"/>
      <use x="473.392578" xlink:href="#DejaVuSans-110"/>
      <use x="536.771484" xlink:href="#DejaVuSans-111"/>
      <use x="597.953125" xlink:href="#DejaVuSans-347"/>
      <use x="650.052734" xlink:href="#DejaVuSans-263"/>
      <use x="705.033203" xlink:href="#DejaVuSans-32"/>
      <use x="736.820312" xlink:href="#DejaVuSans-100"/>
      <use x="800.296875" xlink:href="#DejaVuSans-97"/>
      <use x="861.576172" xlink:href="#DejaVuSans-110"/>
      <use x="924.955078" xlink:href="#DejaVuSans-121"/>
      <use x="984.134766" xlink:href="#DejaVuSans-99"/>
      <use x="1039.115234" xlink:href="#DejaVuSans-104"/>
     </g>
    </g>
   </g>
   <g id="matplotlib.axis_2">
    <g id="ytick_1">
     <g id="line2d_7">
      <defs>
       <path d="M 0 0 
L -3.5 0 
" id="mebcb23b58b" style="stroke:#000000;stroke-width:0.8;"/>
      </defs>
      <g>
       <use style="stroke:#000000;stroke-width:0.8;" x="60.4075" xlink:href="#mebcb23b58b" y="429.13725"/>
      </g>
     </g>
     <g id="text_8">
      <!-- 0 -->
      <defs>
       <path d="M 31.78125 66.40625 
Q 24.171875 66.40625 20.328125 58.90625 
Q 16.5 51.421875 16.5 36.375 
Q 16.5 21.390625 20.328125 13.890625 
Q 24.171875 6.390625 31.78125 6.390625 
Q 39.453125 6.390625 43.28125 13.890625 
Q 47.125 21.390625 47.125 36.375 
Q 47.125 51.421875 43.28125 58.90625 
Q 39.453125 66.40625 31.78125 66.40625 
z
M 31.78125 74.21875 
Q 44.046875 74.21875 50.515625 64.515625 
Q 56.984375 54.828125 56.984375 36.375 
Q 56.984375 17.96875 50.515625 8.265625 
Q 44.046875 -1.421875 31.78125 -1.421875 
Q 19.53125 -1.421875 13.0625 8.265625 
Q 6.59375 17.96875 6.59375 36.375 
Q 6.59375 54.828125 13.0625 64.515625 
Q 19.53125 74.21875 31.78125 74.21875 
z
" id="DejaVuSans-48"/>
      </defs>
      <g transform="translate(44.5 434.456156)scale(0.14 -0.14)">
       <use xlink:href="#DejaVuSans-48"/>
      </g>
     </g>
    </g>
    <g id="ytick_2">
     <g id="line2d_8">
      <g>
       <use style="stroke:#000000;stroke-width:0.8;" x="60.4075" xlink:href="#mebcb23b58b" y="368.73725"/>
      </g>
     </g>
     <g id="text_9">
      <!-- 20 -->
      <defs>
       <path d="M 19.1875 8.296875 
L 53.609375 8.296875 
L 53.609375 0 
L 7.328125 0 
L 7.328125 8.296875 
Q 12.9375 14.109375 22.625 23.890625 
Q 32.328125 33.6875 34.8125 36.53125 
Q 39.546875 41.84375 41.421875 45.53125 
Q 43.3125 49.21875 43.3125 52.78125 
Q 43.3125 58.59375 39.234375 62.25 
Q 35.15625 65.921875 28.609375 65.921875 
Q 23.96875 65.921875 18.8125 64.3125 
Q 13.671875 62.703125 7.8125 59.421875 
L 7.8125 69.390625 
Q 13.765625 71.78125 18.9375 73 
Q 24.125 74.21875 28.421875 74.21875 
Q 39.75 74.21875 46.484375 68.546875 
Q 53.21875 62.890625 53.21875 53.421875 
Q 53.21875 48.921875 51.53125 44.890625 
Q 49.859375 40.875 45.40625 35.40625 
Q 44.1875 33.984375 37.640625 27.21875 
Q 31.109375 20.453125 19.1875 8.296875 
z
" id="DejaVuSans-50"/>
      </defs>
      <g transform="translate(35.5925 374.056156)scale(0.14 -0.14)">
       <use xlink:href="#DejaVuSans-50"/>
       <use x="63.623047" xlink:href="#DejaVuSans-48"/>
      </g>
     </g>
    </g>
    <g id="ytick_3">
     <g id="line2d_9">
      <g>
       <use style="stroke:#000000;stroke-width:0.8;" x="60.4075" xlink:href="#mebcb23b58b" y="308.33725"/>
      </g>
     </g>
     <g id="text_10">
      <!-- 40 -->
      <defs>
       <path d="M 37.796875 64.3125 
L 12.890625 25.390625 
L 37.796875 25.390625 
z
M 35.203125 72.90625 
L 47.609375 72.90625 
L 47.609375 25.390625 
L 58.015625 25.390625 
L 58.015625 17.1875 
L 47.609375 17.1875 
L 47.609375 0 
L 37.796875 0 
L 37.796875 17.1875 
L 4.890625 17.1875 
L 4.890625 26.703125 
z
" id="DejaVuSans-52"/>
      </defs>
      <g transform="translate(35.5925 313.656156)scale(0.14 -0.14)">
       <use xlink:href="#DejaVuSans-52"/>
       <use x="63.623047" xlink:href="#DejaVuSans-48"/>
      </g>
     </g>
    </g>
    <g id="ytick_4">
     <g id="line2d_10">
      <g>
       <use style="stroke:#000000;stroke-width:0.8;" x="60.4075" xlink:href="#mebcb23b58b" y="247.93725"/>
      </g>
     </g>
     <g id="text_11">
      <!-- 60 -->
      <defs>
       <path d="M 33.015625 40.375 
Q 26.375 40.375 22.484375 35.828125 
Q 18.609375 31.296875 18.609375 23.390625 
Q 18.609375 15.53125 22.484375 10.953125 
Q 26.375 6.390625 33.015625 6.390625 
Q 39.65625 6.390625 43.53125 10.953125 
Q 47.40625 15.53125 47.40625 23.390625 
Q 47.40625 31.296875 43.53125 35.828125 
Q 39.65625 40.375 33.015625 40.375 
z
M 52.59375 71.296875 
L 52.59375 62.3125 
Q 48.875 64.0625 45.09375 64.984375 
Q 41.3125 65.921875 37.59375 65.921875 
Q 27.828125 65.921875 22.671875 59.328125 
Q 17.53125 52.734375 16.796875 39.40625 
Q 19.671875 43.65625 24.015625 45.921875 
Q 28.375 48.1875 33.59375 48.1875 
Q 44.578125 48.1875 50.953125 41.515625 
Q 57.328125 34.859375 57.328125 23.390625 
Q 57.328125 12.15625 50.6875 5.359375 
Q 44.046875 -1.421875 33.015625 -1.421875 
Q 20.359375 -1.421875 13.671875 8.265625 
Q 6.984375 17.96875 6.984375 36.375 
Q 6.984375 53.65625 15.1875 63.9375 
Q 23.390625 74.21875 37.203125 74.21875 
Q 40.921875 74.21875 44.703125 73.484375 
Q 48.484375 72.75 52.59375 71.296875 
z
" id="DejaVuSans-54"/>
      </defs>
      <g transform="translate(35.5925 253.256156)scale(0.14 -0.14)">
       <use xlink:href="#DejaVuSans-54"/>
       <use x="63.623047" xlink:href="#DejaVuSans-48"/>
      </g>
     </g>
    </g>
    <g id="ytick_5">
     <g id="line2d_11">
      <g>
       <use style="stroke:#000000;stroke-width:0.8;" x="60.4075" xlink:href="#mebcb23b58b" y="187.53725"/>
      </g>
     </g>
     <g id="text_12">
      <!-- 80 -->
      <defs>
       <path d="M 31.78125 34.625 
Q 24.75 34.625 20.71875 30.859375 
Q 16.703125 27.09375 16.703125 20.515625 
Q 16.703125 13.921875 20.71875 10.15625 
Q 24.75 6.390625 31.78125 6.390625 
Q 38.8125 6.390625 42.859375 10.171875 
Q 46.921875 13.96875 46.921875 20.515625 
Q 46.921875 27.09375 42.890625 30.859375 
Q 38.875 34.625 31.78125 34.625 
z
M 21.921875 38.8125 
Q 15.578125 40.375 12.03125 44.71875 
Q 8.5 49.078125 8.5 55.328125 
Q 8.5 64.0625 14.71875 69.140625 
Q 20.953125 74.21875 31.78125 74.21875 
Q 42.671875 74.21875 48.875 69.140625 
Q 55.078125 64.0625 55.078125 55.328125 
Q 55.078125 49.078125 51.53125 44.71875 
Q 48 40.375 41.703125 38.8125 
Q 48.828125 37.15625 52.796875 32.3125 
Q 56.78125 27.484375 56.78125 20.515625 
Q 56.78125 9.90625 50.3125 4.234375 
Q 43.84375 -1.421875 31.78125 -1.421875 
Q 19.734375 -1.421875 13.25 4.234375 
Q 6.78125 9.90625 6.78125 20.515625 
Q 6.78125 27.484375 10.78125 32.3125 
Q 14.796875 37.15625 21.921875 38.8125 
z
M 18.3125 54.390625 
Q 18.3125 48.734375 21.84375 45.5625 
Q 25.390625 42.390625 31.78125 42.390625 
Q 38.140625 42.390625 41.71875 45.5625 
Q 45.3125 48.734375 45.3125 54.390625 
Q 45.3125 60.0625 41.71875 63.234375 
Q 38.140625 66.40625 31.78125 66.40625 
Q 25.390625 66.40625 21.84375 63.234375 
Q 18.3125 60.0625 18.3125 54.390625 
z
" id="DejaVuSans-56"/>
      </defs>
      <g transform="translate(35.5925 192.856156)scale(0.14 -0.14)">
       <use xlink:href="#DejaVuSans-56"/>
       <use x="63.623047" xlink:href="#DejaVuSans-48"/>
      </g>
     </g>
    </g>
    <g id="ytick_6">
     <g id="line2d_12">
      <g>
       <use style="stroke:#000000;stroke-width:0.8;" x="60.4075" xlink:href="#mebcb23b58b" y="127.13725"/>
      </g>
     </g>
     <g id="text_13">
      <!-- 100 -->
      <defs>
       <path d="M 12.40625 8.296875 
L 28.515625 8.296875 
L 28.515625 63.921875 
L 10.984375 60.40625 
L 10.984375 69.390625 
L 28.421875 72.90625 
L 38.28125 72.90625 
L 38.28125 8.296875 
L 54.390625 8.296875 
L 54.390625 0 
L 12.40625 0 
z
" id="DejaVuSans-49"/>
      </defs>
      <g transform="translate(26.685 132.456156)scale(0.14 -0.14)">
       <use xlink:href="#DejaVuSans-49"/>
       <use x="63.623047" xlink:href="#DejaVuSans-48"/>
       <use x="127.246094" xlink:href="#DejaVuSans-48"/>
      </g>
     </g>
    </g>
    <g id="ytick_7">
     <g id="line2d_13">
      <g>
       <use style="stroke:#000000;stroke-width:0.8;" x="60.4075" xlink:href="#mebcb23b58b" y="66.73725"/>
      </g>
     </g>
     <g id="text_14">
      <!-- 120 -->
      <g transform="translate(26.685 72.056156)scale(0.14 -0.14)">
       <use xlink:href="#DejaVuSans-49"/>
       <use x="63.623047" xlink:href="#DejaVuSans-50"/>
       <use x="127.246094" xlink:href="#DejaVuSans-48"/>
      </g>
     </g>
    </g>
    <g id="text_15">
     <!-- Czas [s] -->
     <defs>
      <path d="M 64.40625 67.28125 
L 64.40625 56.890625 
Q 59.421875 61.53125 53.78125 63.8125 
Q 48.140625 66.109375 41.796875 66.109375 
Q 29.296875 66.109375 22.65625 58.46875 
Q 16.015625 50.828125 16.015625 36.375 
Q 16.015625 21.96875 22.65625 14.328125 
Q 29.296875 6.6875 41.796875 6.6875 
Q 48.140625 6.6875 53.78125 8.984375 
Q 59.421875 11.28125 64.40625 15.921875 
L 64.40625 5.609375 
Q 59.234375 2.09375 53.4375 0.328125 
Q 47.65625 -1.421875 41.21875 -1.421875 
Q 24.65625 -1.421875 15.125 8.703125 
Q 5.609375 18.84375 5.609375 36.375 
Q 5.609375 53.953125 15.125 64.078125 
Q 24.65625 74.21875 41.21875 74.21875 
Q 47.75 74.21875 53.53125 72.484375 
Q 59.328125 70.75 64.40625 67.28125 
z
" id="DejaVuSans-67"/>
      <path d="M 5.515625 54.6875 
L 48.1875 54.6875 
L 48.1875 46.484375 
L 14.40625 7.171875 
L 48.1875 7.171875 
L 48.1875 0 
L 4.296875 0 
L 4.296875 8.203125 
L 38.09375 47.515625 
L 5.515625 47.515625 
z
" id="DejaVuSans-122"/>
      <path d="M 8.59375 75.984375 
L 29.296875 75.984375 
L 29.296875 69 
L 17.578125 69 
L 17.578125 -6.203125 
L 29.296875 -6.203125 
L 29.296875 -13.1875 
L 8.59375 -13.1875 
z
" id="DejaVuSans-91"/>
      <path d="M 30.421875 75.984375 
L 30.421875 -13.1875 
L 9.71875 -13.1875 
L 9.71875 -6.203125 
L 21.390625 -6.203125 
L 21.390625 69 
L 9.71875 69 
L 9.71875 75.984375 
z
" id="DejaVuSans-93"/>
     </defs>
     <g transform="translate(19.3575 270.68475)rotate(-90)scale(0.16 -0.16)">
      <use xlink:href="#DejaVuSans-67"/>
      <use x="69.824219" xlink:href="#DejaVuSans-122"/>
      <use x="122.314453" xlink:href="#DejaVuSans-97"/>
      <use x="183.59375" xlink:href="#DejaVuSans-115"/>
      <use x="235.693359" xlink:href="#DejaVuSans-32"/>
      <use x="267.480469" xlink:href="#DejaVuSans-91"/>
      <use x="306.494141" xlink:href="#DejaVuSans-115"/>
      <use x="358.59375" xlink:href="#DejaVuSans-93"/>
     </g>
    </g>
   </g>
   <g id="LineCollection_1">
    <path clip-path="url(#p0d8db7dd7a)" d="M 75.327286 409.71865 
L 75.327286 194.12085 
" style="fill:none;stroke:#808080;stroke-width:4;"/>
    <path clip-path="url(#p0d8db7dd7a)" d="M 288.467087 403.85985 
L 288.467087 198.04685 
" style="fill:none;stroke:#808080;stroke-width:4;"/>
   </g>
   <g id="LineCollection_2">
    <path clip-path="url(#p0d8db7dd7a)" d="M 117.955246 413.43325 
L 117.955246 171.28965 
" style="fill:none;stroke:#808080;stroke-width:4;"/>
    <path clip-path="url(#p0d8db7dd7a)" d="M 331.095048 408.54085 
L 331.095048 110.55745 
" style="fill:none;stroke:#808080;stroke-width:4;"/>
   </g>
   <g id="LineCollection_3">
    <path clip-path="url(#p0d8db7dd7a)" d="M 160.583207 416.18145 
L 160.583207 389.06185 
" style="fill:none;stroke:#808080;stroke-width:4;"/>
    <path clip-path="url(#p0d8db7dd7a)" d="M 373.723008 414.91305 
L 373.723008 375.13965 
" style="fill:none;stroke:#808080;stroke-width:4;"/>
   </g>
   <g id="line2d_14">
    <defs>
     <path d="M -6 6 
L 6 -6 
M -6 -6 
L 6 6 
" id="maca6dc5d51" style="stroke:#ff0000;stroke-width:2;"/>
    </defs>
    <g clip-path="url(#p0d8db7dd7a)">
     <use style="fill:#ff0000;stroke:#ff0000;stroke-width:2;" x="75.327286" xlink:href="#maca6dc5d51" y="346.5629"/>
     <use style="fill:#ff0000;stroke:#ff0000;stroke-width:2;" x="288.467087" xlink:href="#maca6dc5d51" y="346.9102"/>
    </g>
   </g>
   <g id="line2d_15">
    <defs>
     <path d="M -6 6 
L 6 -6 
M -6 -6 
L 6 6 
" id="ma2c03445ad" style="stroke:#008000;stroke-width:2;"/>
    </defs>
    <g clip-path="url(#p0d8db7dd7a)">
     <use style="fill:#008000;stroke:#008000;stroke-width:2;" x="117.955246" xlink:href="#ma2c03445ad" y="330.9948"/>
     <use style="fill:#008000;stroke:#008000;stroke-width:2;" x="331.095048" xlink:href="#ma2c03445ad" y="333.31265"/>
    </g>
   </g>
   <g id="line2d_16">
    <defs>
     <path d="M -6 6 
L 6 -6 
M -6 -6 
L 6 6 
" id="mdd0adbec6a" style="stroke:#0000ff;stroke-width:2;"/>
    </defs>
    <g clip-path="url(#p0d8db7dd7a)">
     <use style="fill:#0000ff;stroke:#0000ff;stroke-width:2;" x="160.583207" xlink:href="#mdd0adbec6a" y="406.7062"/>
     <use style="fill:#0000ff;stroke:#0000ff;stroke-width:2;" x="373.723008" xlink:href="#mdd0adbec6a" y="404.02595"/>
    </g>
   </g>
   <g id="patch_3">
    <path d="M 60.4075 429.13725 
L 60.4075 48.61725 
" style="fill:none;stroke:#000000;stroke-linecap:square;stroke-linejoin:miter;stroke-width:0.8;"/>
   </g>
   <g id="patch_4">
    <path d="M 388.642794 429.13725 
L 388.642794 48.61725 
" style="fill:none;stroke:#000000;stroke-linecap:square;stroke-linejoin:miter;stroke-width:0.8;"/>
   </g>
   <g id="patch_5">
    <path d="M 60.4075 429.13725 
L 388.642794 429.13725 
" style="fill:none;stroke:#000000;stroke-linecap:square;stroke-linejoin:miter;stroke-width:0.8;"/>
   </g>
   <g id="patch_6">
    <path d="M 60.4075 48.61725 
L 388.642794 48.61725 
" style="fill:none;stroke:#000000;stroke-linecap:square;stroke-linejoin:miter;stroke-width:0.8;"/>
   </g>
   <g id="text_16">
    <!-- Czas obliczeń w zależności -->
    <defs>
     <path d="M 48.6875 27.296875 
Q 48.6875 37.203125 44.609375 42.84375 
Q 40.53125 48.484375 33.40625 48.484375 
Q 26.265625 48.484375 22.1875 42.84375 
Q 18.109375 37.203125 18.109375 27.296875 
Q 18.109375 17.390625 22.1875 11.75 
Q 26.265625 6.109375 33.40625 6.109375 
Q 40.53125 6.109375 44.609375 11.75 
Q 48.6875 17.390625 48.6875 27.296875 
z
M 18.109375 46.390625 
Q 20.953125 51.265625 25.265625 53.625 
Q 29.59375 56 35.59375 56 
Q 45.5625 56 51.78125 48.09375 
Q 58.015625 40.1875 58.015625 27.296875 
Q 58.015625 14.40625 51.78125 6.484375 
Q 45.5625 -1.421875 35.59375 -1.421875 
Q 29.59375 -1.421875 25.265625 0.953125 
Q 20.953125 3.328125 18.109375 8.203125 
L 18.109375 0 
L 9.078125 0 
L 9.078125 75.984375 
L 18.109375 75.984375 
z
" id="DejaVuSans-98"/>
     <path d="M 9.421875 54.6875 
L 18.40625 54.6875 
L 18.40625 0 
L 9.421875 0 
z
M 9.421875 75.984375 
L 18.40625 75.984375 
L 18.40625 64.59375 
L 9.421875 64.59375 
z
" id="DejaVuSans-105"/>
     <path d="M 56.203125 29.59375 
L 56.203125 25.203125 
L 14.890625 25.203125 
Q 15.484375 15.921875 20.484375 11.0625 
Q 25.484375 6.203125 34.421875 6.203125 
Q 39.59375 6.203125 44.453125 7.46875 
Q 49.3125 8.734375 54.109375 11.28125 
L 54.109375 2.78125 
Q 49.265625 0.734375 44.1875 -0.34375 
Q 39.109375 -1.421875 33.890625 -1.421875 
Q 20.796875 -1.421875 13.15625 6.1875 
Q 5.515625 13.8125 5.515625 26.8125 
Q 5.515625 40.234375 12.765625 48.109375 
Q 20.015625 56 32.328125 56 
Q 43.359375 56 49.78125 48.890625 
Q 56.203125 41.796875 56.203125 29.59375 
z
M 47.21875 32.234375 
Q 47.125 39.59375 43.09375 43.984375 
Q 39.0625 48.390625 32.421875 48.390625 
Q 24.90625 48.390625 20.390625 44.140625 
Q 15.875 39.890625 15.1875 32.171875 
z
" id="DejaVuSans-101"/>
     <path d="M 35.03125 79.984375 
L 44.75 79.984375 
L 28.84375 61.625 
L 21.359375 61.625 
z
M 54.890625 33.015625 
L 54.890625 0 
L 45.90625 0 
L 45.90625 32.71875 
Q 45.90625 40.484375 42.875 44.328125 
Q 39.84375 48.1875 33.796875 48.1875 
Q 26.515625 48.1875 22.3125 43.546875 
Q 18.109375 38.921875 18.109375 30.90625 
L 18.109375 0 
L 9.078125 0 
L 9.078125 54.6875 
L 18.109375 54.6875 
L 18.109375 46.1875 
Q 21.34375 51.125 25.703125 53.5625 
Q 30.078125 56 35.796875 56 
Q 45.21875 56 50.046875 50.171875 
Q 54.890625 44.34375 54.890625 33.015625 
z
" id="DejaVuSans-324"/>
    </defs>
    <g transform="translate(103.888585 21.597187)scale(0.18 -0.18)">
     <use xlink:href="#DejaVuSans-67"/>
     <use x="69.824219" xlink:href="#DejaVuSans-122"/>
     <use x="122.314453" xlink:href="#DejaVuSans-97"/>
     <use x="183.59375" xlink:href="#DejaVuSans-115"/>
     <use x="235.693359" xlink:href="#DejaVuSans-32"/>
     <use x="267.480469" xlink:href="#DejaVuSans-111"/>
     <use x="328.662109" xlink:href="#DejaVuSans-98"/>
     <use x="392.138672" xlink:href="#DejaVuSans-108"/>
     <use x="419.921875" xlink:href="#DejaVuSans-105"/>
     <use x="447.705078" xlink:href="#DejaVuSans-99"/>
     <use x="502.685547" xlink:href="#DejaVuSans-122"/>
     <use x="555.175781" xlink:href="#DejaVuSans-101"/>
     <use x="616.699219" xlink:href="#DejaVuSans-324"/>
     <use x="680.078125" xlink:href="#DejaVuSans-32"/>
     <use x="711.865234" xlink:href="#DejaVuSans-119"/>
     <use x="793.652344" xlink:href="#DejaVuSans-32"/>
     <use x="825.439453" xlink:href="#DejaVuSans-122"/>
     <use x="877.929688" xlink:href="#DejaVuSans-97"/>
     <use x="939.208984" xlink:href="#DejaVuSans-108"/>
     <use x="966.992188" xlink:href="#DejaVuSans-101"/>
     <use x="1028.515625" xlink:href="#DejaVuSans-380"/>
     <use x="1081.005859" xlink:href="#DejaVuSans-110"/>
     <use x="1144.384766" xlink:href="#DejaVuSans-111"/>
     <use x="1205.566406" xlink:href="#DejaVuSans-347"/>
     <use x="1257.666016" xlink:href="#DejaVuSans-99"/>
     <use x="1312.646484" xlink:href="#DejaVuSans-105"/>
    </g>
    <!-- od różnorodności danych i formatu zapisu -->
    <defs>
     <path d="M 37.109375 75.984375 
L 37.109375 68.5 
L 28.515625 68.5 
Q 23.6875 68.5 21.796875 66.546875 
Q 19.921875 64.59375 19.921875 59.515625 
L 19.921875 54.6875 
L 34.71875 54.6875 
L 34.71875 47.703125 
L 19.921875 47.703125 
L 19.921875 0 
L 10.890625 0 
L 10.890625 47.703125 
L 2.296875 47.703125 
L 2.296875 54.6875 
L 10.890625 54.6875 
L 10.890625 58.5 
Q 10.890625 67.625 15.140625 71.796875 
Q 19.390625 75.984375 28.609375 75.984375 
z
" id="DejaVuSans-102"/>
     <path d="M 52 44.1875 
Q 55.375 50.25 60.0625 53.125 
Q 64.75 56 71.09375 56 
Q 79.640625 56 84.28125 50.015625 
Q 88.921875 44.046875 88.921875 33.015625 
L 88.921875 0 
L 79.890625 0 
L 79.890625 32.71875 
Q 79.890625 40.578125 77.09375 44.375 
Q 74.3125 48.1875 68.609375 48.1875 
Q 61.625 48.1875 57.5625 43.546875 
Q 53.515625 38.921875 53.515625 30.90625 
L 53.515625 0 
L 44.484375 0 
L 44.484375 32.71875 
Q 44.484375 40.625 41.703125 44.40625 
Q 38.921875 48.1875 33.109375 48.1875 
Q 26.21875 48.1875 22.15625 43.53125 
Q 18.109375 38.875 18.109375 30.90625 
L 18.109375 0 
L 9.078125 0 
L 9.078125 54.6875 
L 18.109375 54.6875 
L 18.109375 46.1875 
Q 21.1875 51.21875 25.484375 53.609375 
Q 29.78125 56 35.6875 56 
Q 41.65625 56 45.828125 52.96875 
Q 50 49.953125 52 44.1875 
z
" id="DejaVuSans-109"/>
     <path d="M 18.109375 8.203125 
L 18.109375 -20.796875 
L 9.078125 -20.796875 
L 9.078125 54.6875 
L 18.109375 54.6875 
L 18.109375 46.390625 
Q 20.953125 51.265625 25.265625 53.625 
Q 29.59375 56 35.59375 56 
Q 45.5625 56 51.78125 48.09375 
Q 58.015625 40.1875 58.015625 27.296875 
Q 58.015625 14.40625 51.78125 6.484375 
Q 45.5625 -1.421875 35.59375 -1.421875 
Q 29.59375 -1.421875 25.265625 0.953125 
Q 20.953125 3.328125 18.109375 8.203125 
z
M 48.6875 27.296875 
Q 48.6875 37.203125 44.609375 42.84375 
Q 40.53125 48.484375 33.40625 48.484375 
Q 26.265625 48.484375 22.1875 42.84375 
Q 18.109375 37.203125 18.109375 27.296875 
Q 18.109375 17.390625 22.1875 11.75 
Q 26.265625 6.109375 33.40625 6.109375 
Q 40.53125 6.109375 44.609375 11.75 
Q 48.6875 17.390625 48.6875 27.296875 
z
" id="DejaVuSans-112"/>
    </defs>
    <g transform="translate(35.454835 42.61725)scale(0.18 -0.18)">
     <use xlink:href="#DejaVuSans-111"/>
     <use x="61.181641" xlink:href="#DejaVuSans-100"/>
     <use x="124.658203" xlink:href="#DejaVuSans-32"/>
     <use x="156.445312" xlink:href="#DejaVuSans-114"/>
     <use x="197.527344" xlink:href="#DejaVuSans-243"/>
     <use x="258.708984" xlink:href="#DejaVuSans-380"/>
     <use x="311.199219" xlink:href="#DejaVuSans-110"/>
     <use x="374.578125" xlink:href="#DejaVuSans-111"/>
     <use x="435.759766" xlink:href="#DejaVuSans-114"/>
     <use x="476.841797" xlink:href="#DejaVuSans-111"/>
     <use x="538.023438" xlink:href="#DejaVuSans-100"/>
     <use x="601.5" xlink:href="#DejaVuSans-110"/>
     <use x="664.878906" xlink:href="#DejaVuSans-111"/>
     <use x="726.060547" xlink:href="#DejaVuSans-347"/>
     <use x="778.160156" xlink:href="#DejaVuSans-99"/>
     <use x="833.140625" xlink:href="#DejaVuSans-105"/>
     <use x="860.923828" xlink:href="#DejaVuSans-32"/>
     <use x="892.710938" xlink:href="#DejaVuSans-100"/>
     <use x="956.1875" xlink:href="#DejaVuSans-97"/>
     <use x="1017.466797" xlink:href="#DejaVuSans-110"/>
     <use x="1080.845703" xlink:href="#DejaVuSans-121"/>
     <use x="1140.025391" xlink:href="#DejaVuSans-99"/>
     <use x="1195.005859" xlink:href="#DejaVuSans-104"/>
     <use x="1258.384766" xlink:href="#DejaVuSans-32"/>
     <use x="1290.171875" xlink:href="#DejaVuSans-105"/>
     <use x="1317.955078" xlink:href="#DejaVuSans-32"/>
     <use x="1349.742188" xlink:href="#DejaVuSans-102"/>
     <use x="1384.947266" xlink:href="#DejaVuSans-111"/>
     <use x="1446.128906" xlink:href="#DejaVuSans-114"/>
     <use x="1487.226562" xlink:href="#DejaVuSans-109"/>
     <use x="1584.638672" xlink:href="#DejaVuSans-97"/>
     <use x="1645.917969" xlink:href="#DejaVuSans-116"/>
     <use x="1685.126953" xlink:href="#DejaVuSans-117"/>
     <use x="1748.505859" xlink:href="#DejaVuSans-32"/>
     <use x="1780.292969" xlink:href="#DejaVuSans-122"/>
     <use x="1832.783203" xlink:href="#DejaVuSans-97"/>
     <use x="1894.0625" xlink:href="#DejaVuSans-112"/>
     <use x="1957.539062" xlink:href="#DejaVuSans-105"/>
     <use x="1985.322266" xlink:href="#DejaVuSans-115"/>
     <use x="2037.421875" xlink:href="#DejaVuSans-117"/>
    </g>
   </g>
   <g id="legend_1">
    <g id="patch_7">
     <path d="M 69.239522 75.831 
L 379.810772 75.831 
L 379.810772 54.61725 
L 69.239522 54.61725 
z
" style="fill:#ffffff;opacity:0.8;stroke:#cccccc;stroke-linejoin:miter;"/>
    </g>
    <g id="line2d_17"/>
    <g id="line2d_18">
     <g>
      <use style="fill:#ff0000;stroke:#ff0000;stroke-width:2;" x="86.039522" xlink:href="#maca6dc5d51" y="64.335375"/>
     </g>
    </g>
    <g id="text_17">
     <!-- csv -->
     <defs>
      <path d="M 2.984375 54.6875 
L 12.5 54.6875 
L 29.59375 8.796875 
L 46.6875 54.6875 
L 56.203125 54.6875 
L 35.6875 0 
L 23.484375 0 
z
" id="DejaVuSans-118"/>
     </defs>
     <g transform="translate(107.639522 68.535375)scale(0.12 -0.12)">
      <use xlink:href="#DejaVuSans-99"/>
      <use x="54.980469" xlink:href="#DejaVuSans-115"/>
      <use x="107.080078" xlink:href="#DejaVuSans-118"/>
     </g>
    </g>
    <g id="line2d_19"/>
    <g id="line2d_20">
     <g>
      <use style="fill:#008000;stroke:#008000;stroke-width:2;" x="163.591397" xlink:href="#ma2c03445ad" y="64.335375"/>
     </g>
    </g>
    <g id="text_18">
     <!-- csv.gz -->
     <defs>
      <path d="M 10.6875 12.40625 
L 21 12.40625 
L 21 0 
L 10.6875 0 
z
" id="DejaVuSans-46"/>
      <path d="M 45.40625 27.984375 
Q 45.40625 37.75 41.375 43.109375 
Q 37.359375 48.484375 30.078125 48.484375 
Q 22.859375 48.484375 18.828125 43.109375 
Q 14.796875 37.75 14.796875 27.984375 
Q 14.796875 18.265625 18.828125 12.890625 
Q 22.859375 7.515625 30.078125 7.515625 
Q 37.359375 7.515625 41.375 12.890625 
Q 45.40625 18.265625 45.40625 27.984375 
z
M 54.390625 6.78125 
Q 54.390625 -7.171875 48.1875 -13.984375 
Q 42 -20.796875 29.203125 -20.796875 
Q 24.46875 -20.796875 20.265625 -20.09375 
Q 16.0625 -19.390625 12.109375 -17.921875 
L 12.109375 -9.1875 
Q 16.0625 -11.328125 19.921875 -12.34375 
Q 23.78125 -13.375 27.78125 -13.375 
Q 36.625 -13.375 41.015625 -8.765625 
Q 45.40625 -4.15625 45.40625 5.171875 
L 45.40625 9.625 
Q 42.625 4.78125 38.28125 2.390625 
Q 33.9375 0 27.875 0 
Q 17.828125 0 11.671875 7.65625 
Q 5.515625 15.328125 5.515625 27.984375 
Q 5.515625 40.671875 11.671875 48.328125 
Q 17.828125 56 27.875 56 
Q 33.9375 56 38.28125 53.609375 
Q 42.625 51.21875 45.40625 46.390625 
L 45.40625 54.6875 
L 54.390625 54.6875 
z
" id="DejaVuSans-103"/>
     </defs>
     <g transform="translate(185.191397 68.535375)scale(0.12 -0.12)">
      <use xlink:href="#DejaVuSans-99"/>
      <use x="54.980469" xlink:href="#DejaVuSans-115"/>
      <use x="107.080078" xlink:href="#DejaVuSans-118"/>
      <use x="166.150391" xlink:href="#DejaVuSans-46"/>
      <use x="197.9375" xlink:href="#DejaVuSans-103"/>
      <use x="261.414062" xlink:href="#DejaVuSans-122"/>
     </g>
    </g>
    <g id="line2d_21"/>
    <g id="line2d_22">
     <g>
      <use style="fill:#0000ff;stroke:#0000ff;stroke-width:2;" x="258.860147" xlink:href="#mdd0adbec6a" y="64.335375"/>
     </g>
    </g>
    <g id="text_19">
     <!-- snappy.parquet -->
     <defs>
      <path d="M 14.796875 27.296875 
Q 14.796875 17.390625 18.875 11.75 
Q 22.953125 6.109375 30.078125 6.109375 
Q 37.203125 6.109375 41.296875 11.75 
Q 45.40625 17.390625 45.40625 27.296875 
Q 45.40625 37.203125 41.296875 42.84375 
Q 37.203125 48.484375 30.078125 48.484375 
Q 22.953125 48.484375 18.875 42.84375 
Q 14.796875 37.203125 14.796875 27.296875 
z
M 45.40625 8.203125 
Q 42.578125 3.328125 38.25 0.953125 
Q 33.9375 -1.421875 27.875 -1.421875 
Q 17.96875 -1.421875 11.734375 6.484375 
Q 5.515625 14.40625 5.515625 27.296875 
Q 5.515625 40.1875 11.734375 48.09375 
Q 17.96875 56 27.875 56 
Q 33.9375 56 38.25 53.625 
Q 42.578125 51.265625 45.40625 46.390625 
L 45.40625 54.6875 
L 54.390625 54.6875 
L 54.390625 -20.796875 
L 45.40625 -20.796875 
z
" id="DejaVuSans-113"/>
     </defs>
     <g transform="translate(280.460147 68.535375)scale(0.12 -0.12)">
      <use xlink:href="#DejaVuSans-115"/>
      <use x="52.099609" xlink:href="#DejaVuSans-110"/>
      <use x="115.478516" xlink:href="#DejaVuSans-97"/>
      <use x="176.757812" xlink:href="#DejaVuSans-112"/>
      <use x="240.234375" xlink:href="#DejaVuSans-112"/>
      <use x="303.710938" xlink:href="#DejaVuSans-121"/>
      <use x="362.671875" xlink:href="#DejaVuSans-46"/>
      <use x="394.458984" xlink:href="#DejaVuSans-112"/>
      <use x="457.935547" xlink:href="#DejaVuSans-97"/>
      <use x="519.214844" xlink:href="#DejaVuSans-114"/>
      <use x="560.3125" xlink:href="#DejaVuSans-113"/>
      <use x="623.789062" xlink:href="#DejaVuSans-117"/>
      <use x="687.167969" xlink:href="#DejaVuSans-101"/>
      <use x="748.691406" xlink:href="#DejaVuSans-116"/>
     </g>
    </g>
   </g>
  </g>
  <g id="axes_2">
   <g id="patch_8">
    <path d="M 454.289853 429.13725 
L 782.525147 429.13725 
L 782.525147 48.61725 
L 454.289853 48.61725 
z
" style="fill:#ffffff;"/>
   </g>
   <g id="matplotlib.axis_3">
    <g id="xtick_7">
     <g id="line2d_23">
      <g>
       <use style="stroke:#000000;stroke-width:0.8;" x="469.209639" xlink:href="#m351048859f" y="429.13725"/>
      </g>
     </g>
     <g id="text_20">
      <!-- ustalona -->
      <g transform="translate(450.678249 486.185384)rotate(-45)scale(0.14 -0.14)">
       <use xlink:href="#DejaVuSans-117"/>
       <use x="63.378906" xlink:href="#DejaVuSans-115"/>
       <use x="115.478516" xlink:href="#DejaVuSans-116"/>
       <use x="154.6875" xlink:href="#DejaVuSans-97"/>
       <use x="215.966797" xlink:href="#DejaVuSans-108"/>
       <use x="243.75" xlink:href="#DejaVuSans-111"/>
       <use x="304.931641" xlink:href="#DejaVuSans-110"/>
       <use x="368.310547" xlink:href="#DejaVuSans-97"/>
      </g>
     </g>
    </g>
    <g id="xtick_8">
     <g id="line2d_24">
      <g>
       <use style="stroke:#000000;stroke-width:0.8;" x="511.837599" xlink:href="#m351048859f" y="429.13725"/>
      </g>
     </g>
     <g id="text_21">
      <!-- ustalona -->
      <g transform="translate(493.306209 486.185384)rotate(-45)scale(0.14 -0.14)">
       <use xlink:href="#DejaVuSans-117"/>
       <use x="63.378906" xlink:href="#DejaVuSans-115"/>
       <use x="115.478516" xlink:href="#DejaVuSans-116"/>
       <use x="154.6875" xlink:href="#DejaVuSans-97"/>
       <use x="215.966797" xlink:href="#DejaVuSans-108"/>
       <use x="243.75" xlink:href="#DejaVuSans-111"/>
       <use x="304.931641" xlink:href="#DejaVuSans-110"/>
       <use x="368.310547" xlink:href="#DejaVuSans-97"/>
      </g>
     </g>
    </g>
    <g id="xtick_9">
     <g id="line2d_25">
      <g>
       <use style="stroke:#000000;stroke-width:0.8;" x="554.46556" xlink:href="#m351048859f" y="429.13725"/>
      </g>
     </g>
     <g id="text_22">
      <!-- ustalona -->
      <g transform="translate(535.934169 486.185384)rotate(-45)scale(0.14 -0.14)">
       <use xlink:href="#DejaVuSans-117"/>
       <use x="63.378906" xlink:href="#DejaVuSans-115"/>
       <use x="115.478516" xlink:href="#DejaVuSans-116"/>
       <use x="154.6875" xlink:href="#DejaVuSans-97"/>
       <use x="215.966797" xlink:href="#DejaVuSans-108"/>
       <use x="243.75" xlink:href="#DejaVuSans-111"/>
       <use x="304.931641" xlink:href="#DejaVuSans-110"/>
       <use x="368.310547" xlink:href="#DejaVuSans-97"/>
      </g>
     </g>
    </g>
    <g id="xtick_10">
     <g id="line2d_26">
      <g>
       <use style="stroke:#000000;stroke-width:0.8;" x="682.34944" xlink:href="#m351048859f" y="429.13725"/>
      </g>
     </g>
     <g id="text_23">
      <!-- dowolna -->
      <g transform="translate(664.288276 485.244932)rotate(-45)scale(0.14 -0.14)">
       <use xlink:href="#DejaVuSans-100"/>
       <use x="63.476562" xlink:href="#DejaVuSans-111"/>
       <use x="124.658203" xlink:href="#DejaVuSans-119"/>
       <use x="206.445312" xlink:href="#DejaVuSans-111"/>
       <use x="267.626953" xlink:href="#DejaVuSans-108"/>
       <use x="295.410156" xlink:href="#DejaVuSans-110"/>
       <use x="358.789062" xlink:href="#DejaVuSans-97"/>
      </g>
     </g>
    </g>
    <g id="xtick_11">
     <g id="line2d_27">
      <g>
       <use style="stroke:#000000;stroke-width:0.8;" x="724.977401" xlink:href="#m351048859f" y="429.13725"/>
      </g>
     </g>
     <g id="text_24">
      <!-- dowolna -->
      <g transform="translate(706.916236 485.244932)rotate(-45)scale(0.14 -0.14)">
       <use xlink:href="#DejaVuSans-100"/>
       <use x="63.476562" xlink:href="#DejaVuSans-111"/>
       <use x="124.658203" xlink:href="#DejaVuSans-119"/>
       <use x="206.445312" xlink:href="#DejaVuSans-111"/>
       <use x="267.626953" xlink:href="#DejaVuSans-108"/>
       <use x="295.410156" xlink:href="#DejaVuSans-110"/>
       <use x="358.789062" xlink:href="#DejaVuSans-97"/>
      </g>
     </g>
    </g>
    <g id="xtick_12">
     <g id="line2d_28">
      <g>
       <use style="stroke:#000000;stroke-width:0.8;" x="767.605361" xlink:href="#m351048859f" y="429.13725"/>
      </g>
     </g>
     <g id="text_25">
      <!-- dowolna -->
      <g transform="translate(749.544196 485.244932)rotate(-45)scale(0.14 -0.14)">
       <use xlink:href="#DejaVuSans-100"/>
       <use x="63.476562" xlink:href="#DejaVuSans-111"/>
       <use x="124.658203" xlink:href="#DejaVuSans-119"/>
       <use x="206.445312" xlink:href="#DejaVuSans-111"/>
       <use x="267.626953" xlink:href="#DejaVuSans-108"/>
       <use x="295.410156" xlink:href="#DejaVuSans-110"/>
       <use x="358.789062" xlink:href="#DejaVuSans-97"/>
      </g>
     </g>
    </g>
    <g id="text_26">
     <!-- Różnorodność danych -->
     <g transform="translate(530.20625 505.04167)scale(0.16 -0.16)">
      <use xlink:href="#DejaVuSans-82"/>
      <use x="69.419922" xlink:href="#DejaVuSans-243"/>
      <use x="130.601562" xlink:href="#DejaVuSans-380"/>
      <use x="183.091797" xlink:href="#DejaVuSans-110"/>
      <use x="246.470703" xlink:href="#DejaVuSans-111"/>
      <use x="307.652344" xlink:href="#DejaVuSans-114"/>
      <use x="348.734375" xlink:href="#DejaVuSans-111"/>
      <use x="409.916016" xlink:href="#DejaVuSans-100"/>
      <use x="473.392578" xlink:href="#DejaVuSans-110"/>
      <use x="536.771484" xlink:href="#DejaVuSans-111"/>
      <use x="597.953125" xlink:href="#DejaVuSans-347"/>
      <use x="650.052734" xlink:href="#DejaVuSans-263"/>
      <use x="705.033203" xlink:href="#DejaVuSans-32"/>
      <use x="736.820312" xlink:href="#DejaVuSans-100"/>
      <use x="800.296875" xlink:href="#DejaVuSans-97"/>
      <use x="861.576172" xlink:href="#DejaVuSans-110"/>
      <use x="924.955078" xlink:href="#DejaVuSans-121"/>
      <use x="984.134766" xlink:href="#DejaVuSans-99"/>
      <use x="1039.115234" xlink:href="#DejaVuSans-104"/>
     </g>
    </g>
   </g>
   <g id="matplotlib.axis_4">
    <g id="ytick_8">
     <g id="line2d_29">
      <g>
       <use style="stroke:#000000;stroke-width:0.8;" x="454.289853" xlink:href="#mebcb23b58b" y="429.13725"/>
      </g>
     </g>
     <g id="text_27">
      <!-- 0 -->
      <g transform="translate(438.382353 434.456156)scale(0.14 -0.14)">
       <use xlink:href="#DejaVuSans-48"/>
      </g>
     </g>
    </g>
    <g id="ytick_9">
     <g id="line2d_30">
      <g>
       <use style="stroke:#000000;stroke-width:0.8;" x="454.289853" xlink:href="#mebcb23b58b" y="349.027776"/>
      </g>
     </g>
     <g id="text_28">
      <!-- 20 -->
      <g transform="translate(429.474853 354.346683)scale(0.14 -0.14)">
       <use xlink:href="#DejaVuSans-50"/>
       <use x="63.623047" xlink:href="#DejaVuSans-48"/>
      </g>
     </g>
    </g>
    <g id="ytick_10">
     <g id="line2d_31">
      <g>
       <use style="stroke:#000000;stroke-width:0.8;" x="454.289853" xlink:href="#mebcb23b58b" y="268.918303"/>
      </g>
     </g>
     <g id="text_29">
      <!-- 40 -->
      <g transform="translate(429.474853 274.237209)scale(0.14 -0.14)">
       <use xlink:href="#DejaVuSans-52"/>
       <use x="63.623047" xlink:href="#DejaVuSans-48"/>
      </g>
     </g>
    </g>
    <g id="ytick_11">
     <g id="line2d_32">
      <g>
       <use style="stroke:#000000;stroke-width:0.8;" x="454.289853" xlink:href="#mebcb23b58b" y="188.808829"/>
      </g>
     </g>
     <g id="text_30">
      <!-- 60 -->
      <g transform="translate(429.474853 194.127735)scale(0.14 -0.14)">
       <use xlink:href="#DejaVuSans-54"/>
       <use x="63.623047" xlink:href="#DejaVuSans-48"/>
      </g>
     </g>
    </g>
    <g id="ytick_12">
     <g id="line2d_33">
      <g>
       <use style="stroke:#000000;stroke-width:0.8;" x="454.289853" xlink:href="#mebcb23b58b" y="108.699355"/>
      </g>
     </g>
     <g id="text_31">
      <!-- 80 -->
      <g transform="translate(429.474853 114.018262)scale(0.14 -0.14)">
       <use xlink:href="#DejaVuSans-56"/>
       <use x="63.623047" xlink:href="#DejaVuSans-48"/>
      </g>
     </g>
    </g>
    <g id="text_32">
     <!-- CPU [%] -->
     <defs>
      <path d="M 19.671875 64.796875 
L 19.671875 37.40625 
L 32.078125 37.40625 
Q 38.96875 37.40625 42.71875 40.96875 
Q 46.484375 44.53125 46.484375 51.125 
Q 46.484375 57.671875 42.71875 61.234375 
Q 38.96875 64.796875 32.078125 64.796875 
z
M 9.8125 72.90625 
L 32.078125 72.90625 
Q 44.34375 72.90625 50.609375 67.359375 
Q 56.890625 61.8125 56.890625 51.125 
Q 56.890625 40.328125 50.609375 34.8125 
Q 44.34375 29.296875 32.078125 29.296875 
L 19.671875 29.296875 
L 19.671875 0 
L 9.8125 0 
z
" id="DejaVuSans-80"/>
      <path d="M 8.6875 72.90625 
L 18.609375 72.90625 
L 18.609375 28.609375 
Q 18.609375 16.890625 22.84375 11.734375 
Q 27.09375 6.59375 36.625 6.59375 
Q 46.09375 6.59375 50.34375 11.734375 
Q 54.59375 16.890625 54.59375 28.609375 
L 54.59375 72.90625 
L 64.5 72.90625 
L 64.5 27.390625 
Q 64.5 13.140625 57.4375 5.859375 
Q 50.390625 -1.421875 36.625 -1.421875 
Q 22.796875 -1.421875 15.734375 5.859375 
Q 8.6875 13.140625 8.6875 27.390625 
z
" id="DejaVuSans-85"/>
      <path d="M 72.703125 32.078125 
Q 68.453125 32.078125 66.03125 28.46875 
Q 63.625 24.859375 63.625 18.40625 
Q 63.625 12.0625 66.03125 8.421875 
Q 68.453125 4.78125 72.703125 4.78125 
Q 76.859375 4.78125 79.265625 8.421875 
Q 81.6875 12.0625 81.6875 18.40625 
Q 81.6875 24.8125 79.265625 28.4375 
Q 76.859375 32.078125 72.703125 32.078125 
z
M 72.703125 38.28125 
Q 80.421875 38.28125 84.953125 32.90625 
Q 89.5 27.546875 89.5 18.40625 
Q 89.5 9.28125 84.9375 3.921875 
Q 80.375 -1.421875 72.703125 -1.421875 
Q 64.890625 -1.421875 60.34375 3.921875 
Q 55.8125 9.28125 55.8125 18.40625 
Q 55.8125 27.59375 60.375 32.9375 
Q 64.9375 38.28125 72.703125 38.28125 
z
M 22.3125 68.015625 
Q 18.109375 68.015625 15.6875 64.375 
Q 13.28125 60.75 13.28125 54.390625 
Q 13.28125 47.953125 15.671875 44.328125 
Q 18.0625 40.71875 22.3125 40.71875 
Q 26.5625 40.71875 28.96875 44.328125 
Q 31.390625 47.953125 31.390625 54.390625 
Q 31.390625 60.6875 28.953125 64.34375 
Q 26.515625 68.015625 22.3125 68.015625 
z
M 66.40625 74.21875 
L 74.21875 74.21875 
L 28.609375 -1.421875 
L 20.796875 -1.421875 
z
M 22.3125 74.21875 
Q 30.03125 74.21875 34.609375 68.875 
Q 39.203125 63.53125 39.203125 54.390625 
Q 39.203125 45.171875 34.640625 39.84375 
Q 30.078125 34.515625 22.3125 34.515625 
Q 14.546875 34.515625 10.03125 39.859375 
Q 5.515625 45.21875 5.515625 54.390625 
Q 5.515625 63.484375 10.046875 68.84375 
Q 14.59375 74.21875 22.3125 74.21875 
z
" id="DejaVuSans-37"/>
     </defs>
     <g transform="translate(422.147353 271.5285)rotate(-90)scale(0.16 -0.16)">
      <use xlink:href="#DejaVuSans-67"/>
      <use x="69.824219" xlink:href="#DejaVuSans-80"/>
      <use x="130.126953" xlink:href="#DejaVuSans-85"/>
      <use x="203.320312" xlink:href="#DejaVuSans-32"/>
      <use x="235.107422" xlink:href="#DejaVuSans-91"/>
      <use x="274.121094" xlink:href="#DejaVuSans-37"/>
      <use x="369.140625" xlink:href="#DejaVuSans-93"/>
     </g>
    </g>
   </g>
   <g id="LineCollection_4">
    <path clip-path="url(#pc46fee030b)" d="M 469.209639 231.306905 
L 469.209639 110.341599 
" style="fill:none;stroke:#808080;stroke-width:4;"/>
    <path clip-path="url(#pc46fee030b)" d="M 682.34944 233.870408 
L 682.34944 110.341599 
" style="fill:none;stroke:#808080;stroke-width:4;"/>
   </g>
   <g id="LineCollection_5">
    <path clip-path="url(#pc46fee030b)" d="M 511.837599 361.805237 
L 511.837599 188.728719 
" style="fill:none;stroke:#808080;stroke-width:4;"/>
    <path clip-path="url(#pc46fee030b)" d="M 724.977401 308.252054 
L 724.977401 175.550711 
" style="fill:none;stroke:#808080;stroke-width:4;"/>
   </g>
   <g id="LineCollection_6">
    <path clip-path="url(#pc46fee030b)" d="M 554.46556 284.900143 
L 554.46556 165.176534 
" style="fill:none;stroke:#808080;stroke-width:4;"/>
    <path clip-path="url(#pc46fee030b)" d="M 767.605361 291.228791 
L 767.605361 168.420968 
" style="fill:none;stroke:#808080;stroke-width:4;"/>
   </g>
   <g id="line2d_34">
    <g clip-path="url(#pc46fee030b)">
     <use style="fill:#ff0000;stroke:#ff0000;stroke-width:2;" x="469.209639" xlink:href="#maca6dc5d51" y="158.667639"/>
     <use style="fill:#ff0000;stroke:#ff0000;stroke-width:2;" x="682.34944" xlink:href="#maca6dc5d51" y="150.446405"/>
    </g>
   </g>
   <g id="line2d_35">
    <g clip-path="url(#pc46fee030b)">
     <use style="fill:#008000;stroke:#008000;stroke-width:2;" x="511.837599" xlink:href="#ma2c03445ad" y="285.941566"/>
     <use style="fill:#008000;stroke:#008000;stroke-width:2;" x="724.977401" xlink:href="#ma2c03445ad" y="261.007492"/>
    </g>
   </g>
   <g id="line2d_36">
    <g clip-path="url(#pc46fee030b)">
     <use style="fill:#0000ff;stroke:#0000ff;stroke-width:2;" x="554.46556" xlink:href="#mdd0adbec6a" y="227.661924"/>
     <use style="fill:#0000ff;stroke:#0000ff;stroke-width:2;" x="767.605361" xlink:href="#mdd0adbec6a" y="226.560418"/>
    </g>
   </g>
   <g id="patch_9">
    <path d="M 454.289853 429.13725 
L 454.289853 48.61725 
" style="fill:none;stroke:#000000;stroke-linecap:square;stroke-linejoin:miter;stroke-width:0.8;"/>
   </g>
   <g id="patch_10">
    <path d="M 782.525147 429.13725 
L 782.525147 48.61725 
" style="fill:none;stroke:#000000;stroke-linecap:square;stroke-linejoin:miter;stroke-width:0.8;"/>
   </g>
   <g id="patch_11">
    <path d="M 454.289853 429.13725 
L 782.525147 429.13725 
" style="fill:none;stroke:#000000;stroke-linecap:square;stroke-linejoin:miter;stroke-width:0.8;"/>
   </g>
   <g id="patch_12">
    <path d="M 454.289853 48.61725 
L 782.525147 48.61725 
" style="fill:none;stroke:#000000;stroke-linecap:square;stroke-linejoin:miter;stroke-width:0.8;"/>
   </g>
   <g id="text_33">
    <!-- Obiążenie procesora w zależności -->
    <defs>
     <path d="M 39.40625 66.21875 
Q 28.65625 66.21875 22.328125 58.203125 
Q 16.015625 50.203125 16.015625 36.375 
Q 16.015625 22.609375 22.328125 14.59375 
Q 28.65625 6.59375 39.40625 6.59375 
Q 50.140625 6.59375 56.421875 14.59375 
Q 62.703125 22.609375 62.703125 36.375 
Q 62.703125 50.203125 56.421875 58.203125 
Q 50.140625 66.21875 39.40625 66.21875 
z
M 39.40625 74.21875 
Q 54.734375 74.21875 63.90625 63.9375 
Q 73.09375 53.65625 73.09375 36.375 
Q 73.09375 19.140625 63.90625 8.859375 
Q 54.734375 -1.421875 39.40625 -1.421875 
Q 24.03125 -1.421875 14.8125 8.828125 
Q 5.609375 19.09375 5.609375 36.375 
Q 5.609375 53.65625 14.8125 63.9375 
Q 24.03125 74.21875 39.40625 74.21875 
z
" id="DejaVuSans-79"/>
     <path d="M 34.28125 27.484375 
Q 23.390625 27.484375 19.1875 25 
Q 14.984375 22.515625 14.984375 16.5 
Q 14.984375 11.71875 18.140625 8.90625 
Q 21.296875 6.109375 26.703125 6.109375 
Q 34.1875 6.109375 38.703125 11.40625 
Q 43.21875 16.703125 43.21875 25.484375 
L 43.21875 27.484375 
z
M 52.203125 31.203125 
L 52.203125 0 
L 43.21875 0 
L 43.21875 8.296875 
Q 40.140625 3.328125 35.546875 0.953125 
Q 30.953125 -1.421875 24.3125 -1.421875 
Q 15.921875 -1.421875 10.953125 3.296875 
Q 6 8.015625 6 15.921875 
Q 6 25.140625 12.171875 29.828125 
Q 18.359375 34.515625 30.609375 34.515625 
L 43.21875 34.515625 
L 43.21875 35.40625 
Q 43.21875 41.609375 39.140625 45 
Q 35.0625 48.390625 27.6875 48.390625 
Q 23 48.390625 18.546875 47.265625 
Q 14.109375 46.140625 10.015625 43.890625 
L 10.015625 52.203125 
Q 14.9375 54.109375 19.578125 55.046875 
Q 24.21875 56 28.609375 56 
Q 40.484375 56 46.34375 49.84375 
Q 52.203125 43.703125 52.203125 31.203125 
z
M 43.359375 0 
L 49.171875 0 
Q 46.96875 -2.984375 45.921875 -5.125 
Q 44.875 -7.28125 44.875 -8.796875 
Q 44.875 -11.03125 46.21875 -12.15625 
Q 47.5625 -13.28125 50.203125 -13.28125 
Q 51.765625 -13.28125 53.265625 -12.90625 
Q 54.78125 -12.546875 56.296875 -11.8125 
L 56.296875 -18.3125 
Q 54.4375 -18.796875 52.78125 -19.03125 
Q 51.125 -19.28125 49.65625 -19.28125 
Q 43.703125 -19.28125 40.890625 -17.15625 
Q 38.09375 -15.046875 38.09375 -10.5 
Q 38.09375 -8.15625 39.375 -5.59375 
Q 40.671875 -3.03125 43.359375 0 
z
" id="DejaVuSans-261"/>
    </defs>
    <g transform="translate(466.486094 21.597187)scale(0.18 -0.18)">
     <use xlink:href="#DejaVuSans-79"/>
     <use x="78.710938" xlink:href="#DejaVuSans-98"/>
     <use x="142.1875" xlink:href="#DejaVuSans-105"/>
     <use x="169.970703" xlink:href="#DejaVuSans-261"/>
     <use x="231.25" xlink:href="#DejaVuSans-380"/>
     <use x="283.740234" xlink:href="#DejaVuSans-101"/>
     <use x="345.263672" xlink:href="#DejaVuSans-110"/>
     <use x="408.642578" xlink:href="#DejaVuSans-105"/>
     <use x="436.425781" xlink:href="#DejaVuSans-101"/>
     <use x="497.949219" xlink:href="#DejaVuSans-32"/>
     <use x="529.736328" xlink:href="#DejaVuSans-112"/>
     <use x="593.212891" xlink:href="#DejaVuSans-114"/>
     <use x="634.294922" xlink:href="#DejaVuSans-111"/>
     <use x="695.476562" xlink:href="#DejaVuSans-99"/>
     <use x="750.457031" xlink:href="#DejaVuSans-101"/>
     <use x="811.980469" xlink:href="#DejaVuSans-115"/>
     <use x="864.080078" xlink:href="#DejaVuSans-111"/>
     <use x="925.261719" xlink:href="#DejaVuSans-114"/>
     <use x="966.375" xlink:href="#DejaVuSans-97"/>
     <use x="1027.654297" xlink:href="#DejaVuSans-32"/>
     <use x="1059.441406" xlink:href="#DejaVuSans-119"/>
     <use x="1141.228516" xlink:href="#DejaVuSans-32"/>
     <use x="1173.015625" xlink:href="#DejaVuSans-122"/>
     <use x="1225.505859" xlink:href="#DejaVuSans-97"/>
     <use x="1286.785156" xlink:href="#DejaVuSans-108"/>
     <use x="1314.568359" xlink:href="#DejaVuSans-101"/>
     <use x="1376.091797" xlink:href="#DejaVuSans-380"/>
     <use x="1428.582031" xlink:href="#DejaVuSans-110"/>
     <use x="1491.960938" xlink:href="#DejaVuSans-111"/>
     <use x="1553.142578" xlink:href="#DejaVuSans-347"/>
     <use x="1605.242188" xlink:href="#DejaVuSans-99"/>
     <use x="1660.222656" xlink:href="#DejaVuSans-105"/>
    </g>
    <!-- od różnorodności danych i formatu zapisu -->
    <g transform="translate(429.337188 42.61725)scale(0.18 -0.18)">
     <use xlink:href="#DejaVuSans-111"/>
     <use x="61.181641" xlink:href="#DejaVuSans-100"/>
     <use x="124.658203" xlink:href="#DejaVuSans-32"/>
     <use x="156.445312" xlink:href="#DejaVuSans-114"/>
     <use x="197.527344" xlink:href="#DejaVuSans-243"/>
     <use x="258.708984" xlink:href="#DejaVuSans-380"/>
     <use x="311.199219" xlink:href="#DejaVuSans-110"/>
     <use x="374.578125" xlink:href="#DejaVuSans-111"/>
     <use x="435.759766" xlink:href="#DejaVuSans-114"/>
     <use x="476.841797" xlink:href="#DejaVuSans-111"/>
     <use x="538.023438" xlink:href="#DejaVuSans-100"/>
     <use x="601.5" xlink:href="#DejaVuSans-110"/>
     <use x="664.878906" xlink:href="#DejaVuSans-111"/>
     <use x="726.060547" xlink:href="#DejaVuSans-347"/>
     <use x="778.160156" xlink:href="#DejaVuSans-99"/>
     <use x="833.140625" xlink:href="#DejaVuSans-105"/>
     <use x="860.923828" xlink:href="#DejaVuSans-32"/>
     <use x="892.710938" xlink:href="#DejaVuSans-100"/>
     <use x="956.1875" xlink:href="#DejaVuSans-97"/>
     <use x="1017.466797" xlink:href="#DejaVuSans-110"/>
     <use x="1080.845703" xlink:href="#DejaVuSans-121"/>
     <use x="1140.025391" xlink:href="#DejaVuSans-99"/>
     <use x="1195.005859" xlink:href="#DejaVuSans-104"/>
     <use x="1258.384766" xlink:href="#DejaVuSans-32"/>
     <use x="1290.171875" xlink:href="#DejaVuSans-105"/>
     <use x="1317.955078" xlink:href="#DejaVuSans-32"/>
     <use x="1349.742188" xlink:href="#DejaVuSans-102"/>
     <use x="1384.947266" xlink:href="#DejaVuSans-111"/>
     <use x="1446.128906" xlink:href="#DejaVuSans-114"/>
     <use x="1487.226562" xlink:href="#DejaVuSans-109"/>
     <use x="1584.638672" xlink:href="#DejaVuSans-97"/>
     <use x="1645.917969" xlink:href="#DejaVuSans-116"/>
     <use x="1685.126953" xlink:href="#DejaVuSans-117"/>
     <use x="1748.505859" xlink:href="#DejaVuSans-32"/>
     <use x="1780.292969" xlink:href="#DejaVuSans-122"/>
     <use x="1832.783203" xlink:href="#DejaVuSans-97"/>
     <use x="1894.0625" xlink:href="#DejaVuSans-112"/>
     <use x="1957.539062" xlink:href="#DejaVuSans-105"/>
     <use x="1985.322266" xlink:href="#DejaVuSans-115"/>
     <use x="2037.421875" xlink:href="#DejaVuSans-117"/>
    </g>
   </g>
   <g id="legend_2">
    <g id="patch_13">
     <path d="M 463.121875 75.831 
L 773.693125 75.831 
L 773.693125 54.61725 
L 463.121875 54.61725 
z
" style="fill:#ffffff;opacity:0.8;stroke:#cccccc;stroke-linejoin:miter;"/>
    </g>
    <g id="line2d_37"/>
    <g id="line2d_38">
     <g>
      <use style="fill:#ff0000;stroke:#ff0000;stroke-width:2;" x="479.921875" xlink:href="#maca6dc5d51" y="64.335375"/>
     </g>
    </g>
    <g id="text_34">
     <!-- csv -->
     <g transform="translate(501.521875 68.535375)scale(0.12 -0.12)">
      <use xlink:href="#DejaVuSans-99"/>
      <use x="54.980469" xlink:href="#DejaVuSans-115"/>
      <use x="107.080078" xlink:href="#DejaVuSans-118"/>
     </g>
    </g>
    <g id="line2d_39"/>
    <g id="line2d_40">
     <g>
      <use style="fill:#008000;stroke:#008000;stroke-width:2;" x="557.47375" xlink:href="#ma2c03445ad" y="64.335375"/>
     </g>
    </g>
    <g id="text_35">
     <!-- csv.gz -->
     <g transform="translate(579.07375 68.535375)scale(0.12 -0.12)">
      <use xlink:href="#DejaVuSans-99"/>
      <use x="54.980469" xlink:href="#DejaVuSans-115"/>
      <use x="107.080078" xlink:href="#DejaVuSans-118"/>
      <use x="166.150391" xlink:href="#DejaVuSans-46"/>
      <use x="197.9375" xlink:href="#DejaVuSans-103"/>
      <use x="261.414062" xlink:href="#DejaVuSans-122"/>
     </g>
    </g>
    <g id="line2d_41"/>
    <g id="line2d_42">
     <g>
      <use style="fill:#0000ff;stroke:#0000ff;stroke-width:2;" x="652.7425" xlink:href="#mdd0adbec6a" y="64.335375"/>
     </g>
    </g>
    <g id="text_36">
     <!-- snappy.parquet -->
     <g transform="translate(674.3425 68.535375)scale(0.12 -0.12)">
      <use xlink:href="#DejaVuSans-115"/>
      <use x="52.099609" xlink:href="#DejaVuSans-110"/>
      <use x="115.478516" xlink:href="#DejaVuSans-97"/>
      <use x="176.757812" xlink:href="#DejaVuSans-112"/>
      <use x="240.234375" xlink:href="#DejaVuSans-112"/>
      <use x="303.710938" xlink:href="#DejaVuSans-121"/>
      <use x="362.671875" xlink:href="#DejaVuSans-46"/>
      <use x="394.458984" xlink:href="#DejaVuSans-112"/>
      <use x="457.935547" xlink:href="#DejaVuSans-97"/>
      <use x="519.214844" xlink:href="#DejaVuSans-114"/>
      <use x="560.3125" xlink:href="#DejaVuSans-113"/>
      <use x="623.789062" xlink:href="#DejaVuSans-117"/>
      <use x="687.167969" xlink:href="#DejaVuSans-101"/>
      <use x="748.691406" xlink:href="#DejaVuSans-116"/>
     </g>
    </g>
   </g>
  </g>
  <g id="axes_3">
   <g id="patch_14">
    <path d="M 848.172206 429.13725 
L 1176.4075 429.13725 
L 1176.4075 48.61725 
L 848.172206 48.61725 
z
" style="fill:#ffffff;"/>
   </g>
   <g id="matplotlib.axis_5">
    <g id="xtick_13">
     <g id="line2d_43">
      <g>
       <use style="stroke:#000000;stroke-width:0.8;" x="863.091992" xlink:href="#m351048859f" y="429.13725"/>
      </g>
     </g>
     <g id="text_37">
      <!-- ustalona -->
      <g transform="translate(844.560601 486.185384)rotate(-45)scale(0.14 -0.14)">
       <use xlink:href="#DejaVuSans-117"/>
       <use x="63.378906" xlink:href="#DejaVuSans-115"/>
       <use x="115.478516" xlink:href="#DejaVuSans-116"/>
       <use x="154.6875" xlink:href="#DejaVuSans-97"/>
       <use x="215.966797" xlink:href="#DejaVuSans-108"/>
       <use x="243.75" xlink:href="#DejaVuSans-111"/>
       <use x="304.931641" xlink:href="#DejaVuSans-110"/>
       <use x="368.310547" xlink:href="#DejaVuSans-97"/>
      </g>
     </g>
    </g>
    <g id="xtick_14">
     <g id="line2d_44">
      <g>
       <use style="stroke:#000000;stroke-width:0.8;" x="905.719952" xlink:href="#m351048859f" y="429.13725"/>
      </g>
     </g>
     <g id="text_38">
      <!-- ustalona -->
      <g transform="translate(887.188562 486.185384)rotate(-45)scale(0.14 -0.14)">
       <use xlink:href="#DejaVuSans-117"/>
       <use x="63.378906" xlink:href="#DejaVuSans-115"/>
       <use x="115.478516" xlink:href="#DejaVuSans-116"/>
       <use x="154.6875" xlink:href="#DejaVuSans-97"/>
       <use x="215.966797" xlink:href="#DejaVuSans-108"/>
       <use x="243.75" xlink:href="#DejaVuSans-111"/>
       <use x="304.931641" xlink:href="#DejaVuSans-110"/>
       <use x="368.310547" xlink:href="#DejaVuSans-97"/>
      </g>
     </g>
    </g>
    <g id="xtick_15">
     <g id="line2d_45">
      <g>
       <use style="stroke:#000000;stroke-width:0.8;" x="948.347913" xlink:href="#m351048859f" y="429.13725"/>
      </g>
     </g>
     <g id="text_39">
      <!-- ustalona -->
      <g transform="translate(929.816522 486.185384)rotate(-45)scale(0.14 -0.14)">
       <use xlink:href="#DejaVuSans-117"/>
       <use x="63.378906" xlink:href="#DejaVuSans-115"/>
       <use x="115.478516" xlink:href="#DejaVuSans-116"/>
       <use x="154.6875" xlink:href="#DejaVuSans-97"/>
       <use x="215.966797" xlink:href="#DejaVuSans-108"/>
       <use x="243.75" xlink:href="#DejaVuSans-111"/>
       <use x="304.931641" xlink:href="#DejaVuSans-110"/>
       <use x="368.310547" xlink:href="#DejaVuSans-97"/>
      </g>
     </g>
    </g>
    <g id="xtick_16">
     <g id="line2d_46">
      <g>
       <use style="stroke:#000000;stroke-width:0.8;" x="1076.231793" xlink:href="#m351048859f" y="429.13725"/>
      </g>
     </g>
     <g id="text_40">
      <!-- dowolna -->
      <g transform="translate(1058.170629 485.244932)rotate(-45)scale(0.14 -0.14)">
       <use xlink:href="#DejaVuSans-100"/>
       <use x="63.476562" xlink:href="#DejaVuSans-111"/>
       <use x="124.658203" xlink:href="#DejaVuSans-119"/>
       <use x="206.445312" xlink:href="#DejaVuSans-111"/>
       <use x="267.626953" xlink:href="#DejaVuSans-108"/>
       <use x="295.410156" xlink:href="#DejaVuSans-110"/>
       <use x="358.789062" xlink:href="#DejaVuSans-97"/>
      </g>
     </g>
    </g>
    <g id="xtick_17">
     <g id="line2d_47">
      <g>
       <use style="stroke:#000000;stroke-width:0.8;" x="1118.859754" xlink:href="#m351048859f" y="429.13725"/>
      </g>
     </g>
     <g id="text_41">
      <!-- dowolna -->
      <g transform="translate(1100.798589 485.244932)rotate(-45)scale(0.14 -0.14)">
       <use xlink:href="#DejaVuSans-100"/>
       <use x="63.476562" xlink:href="#DejaVuSans-111"/>
       <use x="124.658203" xlink:href="#DejaVuSans-119"/>
       <use x="206.445312" xlink:href="#DejaVuSans-111"/>
       <use x="267.626953" xlink:href="#DejaVuSans-108"/>
       <use x="295.410156" xlink:href="#DejaVuSans-110"/>
       <use x="358.789062" xlink:href="#DejaVuSans-97"/>
      </g>
     </g>
    </g>
    <g id="xtick_18">
     <g id="line2d_48">
      <g>
       <use style="stroke:#000000;stroke-width:0.8;" x="1161.487714" xlink:href="#m351048859f" y="429.13725"/>
      </g>
     </g>
     <g id="text_42">
      <!-- dowolna -->
      <g transform="translate(1143.426549 485.244932)rotate(-45)scale(0.14 -0.14)">
       <use xlink:href="#DejaVuSans-100"/>
       <use x="63.476562" xlink:href="#DejaVuSans-111"/>
       <use x="124.658203" xlink:href="#DejaVuSans-119"/>
       <use x="206.445312" xlink:href="#DejaVuSans-111"/>
       <use x="267.626953" xlink:href="#DejaVuSans-108"/>
       <use x="295.410156" xlink:href="#DejaVuSans-110"/>
       <use x="358.789062" xlink:href="#DejaVuSans-97"/>
      </g>
     </g>
    </g>
    <g id="text_43">
     <!-- Różnorodność danych -->
     <g transform="translate(924.088603 505.04167)scale(0.16 -0.16)">
      <use xlink:href="#DejaVuSans-82"/>
      <use x="69.419922" xlink:href="#DejaVuSans-243"/>
      <use x="130.601562" xlink:href="#DejaVuSans-380"/>
      <use x="183.091797" xlink:href="#DejaVuSans-110"/>
      <use x="246.470703" xlink:href="#DejaVuSans-111"/>
      <use x="307.652344" xlink:href="#DejaVuSans-114"/>
      <use x="348.734375" xlink:href="#DejaVuSans-111"/>
      <use x="409.916016" xlink:href="#DejaVuSans-100"/>
      <use x="473.392578" xlink:href="#DejaVuSans-110"/>
      <use x="536.771484" xlink:href="#DejaVuSans-111"/>
      <use x="597.953125" xlink:href="#DejaVuSans-347"/>
      <use x="650.052734" xlink:href="#DejaVuSans-263"/>
      <use x="705.033203" xlink:href="#DejaVuSans-32"/>
      <use x="736.820312" xlink:href="#DejaVuSans-100"/>
      <use x="800.296875" xlink:href="#DejaVuSans-97"/>
      <use x="861.576172" xlink:href="#DejaVuSans-110"/>
      <use x="924.955078" xlink:href="#DejaVuSans-121"/>
      <use x="984.134766" xlink:href="#DejaVuSans-99"/>
      <use x="1039.115234" xlink:href="#DejaVuSans-104"/>
     </g>
    </g>
   </g>
   <g id="matplotlib.axis_6">
    <g id="ytick_13">
     <g id="line2d_49">
      <g>
       <use style="stroke:#000000;stroke-width:0.8;" x="848.172206" xlink:href="#mebcb23b58b" y="429.13725"/>
      </g>
     </g>
     <g id="text_44">
      <!-- 0 -->
      <g transform="translate(832.264706 434.456156)scale(0.14 -0.14)">
       <use xlink:href="#DejaVuSans-48"/>
      </g>
     </g>
    </g>
    <g id="ytick_14">
     <g id="line2d_50">
      <g>
       <use style="stroke:#000000;stroke-width:0.8;" x="848.172206" xlink:href="#mebcb23b58b" y="383.864198"/>
      </g>
     </g>
     <g id="text_45">
      <!-- 200 -->
      <g transform="translate(814.449706 389.183104)scale(0.14 -0.14)">
       <use xlink:href="#DejaVuSans-50"/>
       <use x="63.623047" xlink:href="#DejaVuSans-48"/>
       <use x="127.246094" xlink:href="#DejaVuSans-48"/>
      </g>
     </g>
    </g>
    <g id="ytick_15">
     <g id="line2d_51">
      <g>
       <use style="stroke:#000000;stroke-width:0.8;" x="848.172206" xlink:href="#mebcb23b58b" y="338.591146"/>
      </g>
     </g>
     <g id="text_46">
      <!-- 400 -->
      <g transform="translate(814.449706 343.910053)scale(0.14 -0.14)">
       <use xlink:href="#DejaVuSans-52"/>
       <use x="63.623047" xlink:href="#DejaVuSans-48"/>
       <use x="127.246094" xlink:href="#DejaVuSans-48"/>
      </g>
     </g>
    </g>
    <g id="ytick_16">
     <g id="line2d_52">
      <g>
       <use style="stroke:#000000;stroke-width:0.8;" x="848.172206" xlink:href="#mebcb23b58b" y="293.318095"/>
      </g>
     </g>
     <g id="text_47">
      <!-- 600 -->
      <g transform="translate(814.449706 298.637001)scale(0.14 -0.14)">
       <use xlink:href="#DejaVuSans-54"/>
       <use x="63.623047" xlink:href="#DejaVuSans-48"/>
       <use x="127.246094" xlink:href="#DejaVuSans-48"/>
      </g>
     </g>
    </g>
    <g id="ytick_17">
     <g id="line2d_53">
      <g>
       <use style="stroke:#000000;stroke-width:0.8;" x="848.172206" xlink:href="#mebcb23b58b" y="248.045043"/>
      </g>
     </g>
     <g id="text_48">
      <!-- 800 -->
      <g transform="translate(814.449706 253.363949)scale(0.14 -0.14)">
       <use xlink:href="#DejaVuSans-56"/>
       <use x="63.623047" xlink:href="#DejaVuSans-48"/>
       <use x="127.246094" xlink:href="#DejaVuSans-48"/>
      </g>
     </g>
    </g>
    <g id="ytick_18">
     <g id="line2d_54">
      <g>
       <use style="stroke:#000000;stroke-width:0.8;" x="848.172206" xlink:href="#mebcb23b58b" y="202.771991"/>
      </g>
     </g>
     <g id="text_49">
      <!-- 1000 -->
      <g transform="translate(805.542206 208.090897)scale(0.14 -0.14)">
       <use xlink:href="#DejaVuSans-49"/>
       <use x="63.623047" xlink:href="#DejaVuSans-48"/>
       <use x="127.246094" xlink:href="#DejaVuSans-48"/>
       <use x="190.869141" xlink:href="#DejaVuSans-48"/>
      </g>
     </g>
    </g>
    <g id="ytick_19">
     <g id="line2d_55">
      <g>
       <use style="stroke:#000000;stroke-width:0.8;" x="848.172206" xlink:href="#mebcb23b58b" y="157.498939"/>
      </g>
     </g>
     <g id="text_50">
      <!-- 1200 -->
      <g transform="translate(805.542206 162.817846)scale(0.14 -0.14)">
       <use xlink:href="#DejaVuSans-49"/>
       <use x="63.623047" xlink:href="#DejaVuSans-50"/>
       <use x="127.246094" xlink:href="#DejaVuSans-48"/>
       <use x="190.869141" xlink:href="#DejaVuSans-48"/>
      </g>
     </g>
    </g>
    <g id="ytick_20">
     <g id="line2d_56">
      <g>
       <use style="stroke:#000000;stroke-width:0.8;" x="848.172206" xlink:href="#mebcb23b58b" y="112.225888"/>
      </g>
     </g>
     <g id="text_51">
      <!-- 1400 -->
      <g transform="translate(805.542206 117.544794)scale(0.14 -0.14)">
       <use xlink:href="#DejaVuSans-49"/>
       <use x="63.623047" xlink:href="#DejaVuSans-52"/>
       <use x="127.246094" xlink:href="#DejaVuSans-48"/>
       <use x="190.869141" xlink:href="#DejaVuSans-48"/>
      </g>
     </g>
    </g>
    <g id="ytick_21">
     <g id="line2d_57">
      <g>
       <use style="stroke:#000000;stroke-width:0.8;" x="848.172206" xlink:href="#mebcb23b58b" y="66.952836"/>
      </g>
     </g>
     <g id="text_52">
      <!-- 1600 -->
      <g transform="translate(805.542206 72.271742)scale(0.14 -0.14)">
       <use xlink:href="#DejaVuSans-49"/>
       <use x="63.623047" xlink:href="#DejaVuSans-54"/>
       <use x="127.246094" xlink:href="#DejaVuSans-48"/>
       <use x="190.869141" xlink:href="#DejaVuSans-48"/>
      </g>
     </g>
    </g>
    <g id="text_53">
     <!-- RAM [MB] -->
     <defs>
      <path d="M 34.1875 63.1875 
L 20.796875 26.90625 
L 47.609375 26.90625 
z
M 28.609375 72.90625 
L 39.796875 72.90625 
L 67.578125 0 
L 57.328125 0 
L 50.6875 18.703125 
L 17.828125 18.703125 
L 11.1875 0 
L 0.78125 0 
z
" id="DejaVuSans-65"/>
      <path d="M 9.8125 72.90625 
L 24.515625 72.90625 
L 43.109375 23.296875 
L 61.8125 72.90625 
L 76.515625 72.90625 
L 76.515625 0 
L 66.890625 0 
L 66.890625 64.015625 
L 48.09375 14.015625 
L 38.1875 14.015625 
L 19.390625 64.015625 
L 19.390625 0 
L 9.8125 0 
z
" id="DejaVuSans-77"/>
      <path d="M 19.671875 34.8125 
L 19.671875 8.109375 
L 35.5 8.109375 
Q 43.453125 8.109375 47.28125 11.40625 
Q 51.125 14.703125 51.125 21.484375 
Q 51.125 28.328125 47.28125 31.5625 
Q 43.453125 34.8125 35.5 34.8125 
z
M 19.671875 64.796875 
L 19.671875 42.828125 
L 34.28125 42.828125 
Q 41.5 42.828125 45.03125 45.53125 
Q 48.578125 48.25 48.578125 53.8125 
Q 48.578125 59.328125 45.03125 62.0625 
Q 41.5 64.796875 34.28125 64.796875 
z
M 9.8125 72.90625 
L 35.015625 72.90625 
Q 46.296875 72.90625 52.390625 68.21875 
Q 58.5 63.53125 58.5 54.890625 
Q 58.5 48.1875 55.375 44.234375 
Q 52.25 40.28125 46.1875 39.3125 
Q 53.46875 37.75 57.5 32.78125 
Q 61.53125 27.828125 61.53125 20.40625 
Q 61.53125 10.640625 54.890625 5.3125 
Q 48.25 0 35.984375 0 
L 9.8125 0 
z
" id="DejaVuSans-66"/>
     </defs>
     <g transform="translate(798.214706 277.98225)rotate(-90)scale(0.16 -0.16)">
      <use xlink:href="#DejaVuSans-82"/>
      <use x="69.419922" xlink:href="#DejaVuSans-65"/>
      <use x="137.828125" xlink:href="#DejaVuSans-77"/>
      <use x="224.107422" xlink:href="#DejaVuSans-32"/>
      <use x="255.894531" xlink:href="#DejaVuSans-91"/>
      <use x="294.908203" xlink:href="#DejaVuSans-77"/>
      <use x="381.1875" xlink:href="#DejaVuSans-66"/>
      <use x="449.791016" xlink:href="#DejaVuSans-93"/>
     </g>
    </g>
   </g>
   <g id="LineCollection_7">
    <path clip-path="url(#p7ef1d37efa)" d="M 863.091992 284.037119 
L 863.091992 188.284615 
" style="fill:none;stroke:#808080;stroke-width:4;"/>
    <path clip-path="url(#p7ef1d37efa)" d="M 1076.231793 248.271408 
L 1076.231793 196.433764 
" style="fill:none;stroke:#808080;stroke-width:4;"/>
   </g>
   <g id="LineCollection_8">
    <path clip-path="url(#p7ef1d37efa)" d="M 905.719952 277.019796 
L 905.719952 116.074097 
" style="fill:none;stroke:#808080;stroke-width:4;"/>
    <path clip-path="url(#p7ef1d37efa)" d="M 1118.859754 283.358023 
L 1118.859754 265.248803 
" style="fill:none;stroke:#808080;stroke-width:4;"/>
   </g>
   <g id="LineCollection_9">
    <path clip-path="url(#p7ef1d37efa)" d="M 948.347913 265.475168 
L 948.347913 111.999522 
" style="fill:none;stroke:#808080;stroke-width:4;"/>
    <path clip-path="url(#p7ef1d37efa)" d="M 1161.487714 277.246161 
L 1161.487714 119.243211 
" style="fill:none;stroke:#808080;stroke-width:4;"/>
   </g>
   <g id="line2d_58">
    <g clip-path="url(#p7ef1d37efa)">
     <use style="fill:#ff0000;stroke:#ff0000;stroke-width:2;" x="863.091992" xlink:href="#maca6dc5d51" y="251.327339"/>
     <use style="fill:#ff0000;stroke:#ff0000;stroke-width:2;" x="1076.231793" xlink:href="#maca6dc5d51" y="231.859927"/>
    </g>
   </g>
   <g id="line2d_59">
    <g clip-path="url(#p7ef1d37efa)">
     <use style="fill:#008000;stroke:#008000;stroke-width:2;" x="905.719952" xlink:href="#ma2c03445ad" y="218.900516"/>
     <use style="fill:#008000;stroke:#008000;stroke-width:2;" x="1118.859754" xlink:href="#ma2c03445ad" y="270.28543"/>
    </g>
   </g>
   <g id="line2d_60">
    <g clip-path="url(#p7ef1d37efa)">
     <use style="fill:#0000ff;stroke:#0000ff;stroke-width:2;" x="948.347913" xlink:href="#mdd0adbec6a" y="201.753348"/>
     <use style="fill:#0000ff;stroke:#0000ff;stroke-width:2;" x="1161.487714" xlink:href="#mdd0adbec6a" y="211.034323"/>
    </g>
   </g>
   <g id="patch_15">
    <path d="M 848.172206 429.13725 
L 848.172206 48.61725 
" style="fill:none;stroke:#000000;stroke-linecap:square;stroke-linejoin:miter;stroke-width:0.8;"/>
   </g>
   <g id="patch_16">
    <path d="M 1176.4075 429.13725 
L 1176.4075 48.61725 
" style="fill:none;stroke:#000000;stroke-linecap:square;stroke-linejoin:miter;stroke-width:0.8;"/>
   </g>
   <g id="patch_17">
    <path d="M 848.172206 429.13725 
L 1176.4075 429.13725 
" style="fill:none;stroke:#000000;stroke-linecap:square;stroke-linejoin:miter;stroke-width:0.8;"/>
   </g>
   <g id="patch_18">
    <path d="M 848.172206 48.61725 
L 1176.4075 48.61725 
" style="fill:none;stroke:#000000;stroke-linecap:square;stroke-linejoin:miter;stroke-width:0.8;"/>
   </g>
   <g id="text_54">
    <!-- Zużycie pamięci RAM w zależności -->
    <defs>
     <path d="M 5.609375 72.90625 
L 62.890625 72.90625 
L 62.890625 65.375 
L 16.796875 8.296875 
L 64.015625 8.296875 
L 64.015625 0 
L 4.5 0 
L 4.5 7.515625 
L 50.59375 64.59375 
L 5.609375 64.59375 
z
" id="DejaVuSans-90"/>
     <path d="M 56.203125 29.59375 
L 56.203125 25.203125 
L 14.890625 25.203125 
Q 15.484375 15.921875 20.484375 11.0625 
Q 25.484375 6.203125 34.421875 6.203125 
Q 39.59375 6.203125 44.453125 7.46875 
Q 49.3125 8.734375 54.109375 11.28125 
L 54.109375 2.78125 
Q 49.265625 0.734375 44.1875 -0.34375 
Q 39.109375 -1.421875 33.890625 -1.421875 
Q 20.796875 -1.421875 13.15625 6.1875 
Q 5.515625 13.8125 5.515625 26.8125 
Q 5.515625 40.234375 12.765625 48.109375 
Q 20.015625 56 32.328125 56 
Q 43.359375 56 49.78125 48.890625 
Q 56.203125 41.796875 56.203125 29.59375 
z
M 47.21875 32.234375 
Q 47.125 39.59375 43.09375 43.984375 
Q 39.0625 48.390625 32.421875 48.390625 
Q 24.90625 48.390625 20.390625 44.140625 
Q 15.875 39.890625 15.1875 32.171875 
z
M 39.859375 0 
L 45.671875 0 
Q 43.46875 -2.984375 42.421875 -5.125 
Q 41.375 -7.28125 41.375 -8.796875 
Q 41.375 -11.03125 42.71875 -12.15625 
Q 44.0625 -13.28125 46.703125 -13.28125 
Q 48.265625 -13.28125 49.765625 -12.90625 
Q 51.28125 -12.546875 52.796875 -11.8125 
L 52.796875 -18.3125 
Q 50.9375 -18.796875 49.28125 -19.03125 
Q 47.625 -19.28125 46.15625 -19.28125 
Q 40.203125 -19.28125 37.390625 -17.15625 
Q 34.59375 -15.046875 34.59375 -10.5 
Q 34.59375 -8.15625 35.875 -5.59375 
Q 37.171875 -3.03125 39.859375 0 
z
" id="DejaVuSans-281"/>
    </defs>
    <g transform="translate(856.581415 21.597187)scale(0.18 -0.18)">
     <use xlink:href="#DejaVuSans-90"/>
     <use x="68.505859" xlink:href="#DejaVuSans-117"/>
     <use x="131.884766" xlink:href="#DejaVuSans-380"/>
     <use x="184.375" xlink:href="#DejaVuSans-121"/>
     <use x="243.554688" xlink:href="#DejaVuSans-99"/>
     <use x="298.535156" xlink:href="#DejaVuSans-105"/>
     <use x="326.318359" xlink:href="#DejaVuSans-101"/>
     <use x="387.841797" xlink:href="#DejaVuSans-32"/>
     <use x="419.628906" xlink:href="#DejaVuSans-112"/>
     <use x="483.105469" xlink:href="#DejaVuSans-97"/>
     <use x="544.384766" xlink:href="#DejaVuSans-109"/>
     <use x="641.796875" xlink:href="#DejaVuSans-105"/>
     <use x="669.580078" xlink:href="#DejaVuSans-281"/>
     <use x="731.103516" xlink:href="#DejaVuSans-99"/>
     <use x="786.083984" xlink:href="#DejaVuSans-105"/>
     <use x="813.867188" xlink:href="#DejaVuSans-32"/>
     <use x="845.654297" xlink:href="#DejaVuSans-82"/>
     <use x="915.074219" xlink:href="#DejaVuSans-65"/>
     <use x="983.482422" xlink:href="#DejaVuSans-77"/>
     <use x="1069.761719" xlink:href="#DejaVuSans-32"/>
     <use x="1101.548828" xlink:href="#DejaVuSans-119"/>
     <use x="1183.335938" xlink:href="#DejaVuSans-32"/>
     <use x="1215.123047" xlink:href="#DejaVuSans-122"/>
     <use x="1267.613281" xlink:href="#DejaVuSans-97"/>
     <use x="1328.892578" xlink:href="#DejaVuSans-108"/>
     <use x="1356.675781" xlink:href="#DejaVuSans-101"/>
     <use x="1418.199219" xlink:href="#DejaVuSans-380"/>
     <use x="1470.689453" xlink:href="#DejaVuSans-110"/>
     <use x="1534.068359" xlink:href="#DejaVuSans-111"/>
     <use x="1595.25" xlink:href="#DejaVuSans-347"/>
     <use x="1647.349609" xlink:href="#DejaVuSans-99"/>
     <use x="1702.330078" xlink:href="#DejaVuSans-105"/>
    </g>
    <!-- od różnorodności danych i formatu zapisu -->
    <g transform="translate(823.21954 42.61725)scale(0.18 -0.18)">
     <use xlink:href="#DejaVuSans-111"/>
     <use x="61.181641" xlink:href="#DejaVuSans-100"/>
     <use x="124.658203" xlink:href="#DejaVuSans-32"/>
     <use x="156.445312" xlink:href="#DejaVuSans-114"/>
     <use x="197.527344" xlink:href="#DejaVuSans-243"/>
     <use x="258.708984" xlink:href="#DejaVuSans-380"/>
     <use x="311.199219" xlink:href="#DejaVuSans-110"/>
     <use x="374.578125" xlink:href="#DejaVuSans-111"/>
     <use x="435.759766" xlink:href="#DejaVuSans-114"/>
     <use x="476.841797" xlink:href="#DejaVuSans-111"/>
     <use x="538.023438" xlink:href="#DejaVuSans-100"/>
     <use x="601.5" xlink:href="#DejaVuSans-110"/>
     <use x="664.878906" xlink:href="#DejaVuSans-111"/>
     <use x="726.060547" xlink:href="#DejaVuSans-347"/>
     <use x="778.160156" xlink:href="#DejaVuSans-99"/>
     <use x="833.140625" xlink:href="#DejaVuSans-105"/>
     <use x="860.923828" xlink:href="#DejaVuSans-32"/>
     <use x="892.710938" xlink:href="#DejaVuSans-100"/>
     <use x="956.1875" xlink:href="#DejaVuSans-97"/>
     <use x="1017.466797" xlink:href="#DejaVuSans-110"/>
     <use x="1080.845703" xlink:href="#DejaVuSans-121"/>
     <use x="1140.025391" xlink:href="#DejaVuSans-99"/>
     <use x="1195.005859" xlink:href="#DejaVuSans-104"/>
     <use x="1258.384766" xlink:href="#DejaVuSans-32"/>
     <use x="1290.171875" xlink:href="#DejaVuSans-105"/>
     <use x="1317.955078" xlink:href="#DejaVuSans-32"/>
     <use x="1349.742188" xlink:href="#DejaVuSans-102"/>
     <use x="1384.947266" xlink:href="#DejaVuSans-111"/>
     <use x="1446.128906" xlink:href="#DejaVuSans-114"/>
     <use x="1487.226562" xlink:href="#DejaVuSans-109"/>
     <use x="1584.638672" xlink:href="#DejaVuSans-97"/>
     <use x="1645.917969" xlink:href="#DejaVuSans-116"/>
     <use x="1685.126953" xlink:href="#DejaVuSans-117"/>
     <use x="1748.505859" xlink:href="#DejaVuSans-32"/>
     <use x="1780.292969" xlink:href="#DejaVuSans-122"/>
     <use x="1832.783203" xlink:href="#DejaVuSans-97"/>
     <use x="1894.0625" xlink:href="#DejaVuSans-112"/>
     <use x="1957.539062" xlink:href="#DejaVuSans-105"/>
     <use x="1985.322266" xlink:href="#DejaVuSans-115"/>
     <use x="2037.421875" xlink:href="#DejaVuSans-117"/>
    </g>
   </g>
   <g id="legend_3">
    <g id="patch_19">
     <path d="M 857.004228 75.831 
L 1167.575478 75.831 
L 1167.575478 54.61725 
L 857.004228 54.61725 
z
" style="fill:#ffffff;opacity:0.8;stroke:#cccccc;stroke-linejoin:miter;"/>
    </g>
    <g id="line2d_61"/>
    <g id="line2d_62">
     <g>
      <use style="fill:#ff0000;stroke:#ff0000;stroke-width:2;" x="873.804228" xlink:href="#maca6dc5d51" y="64.335375"/>
     </g>
    </g>
    <g id="text_55">
     <!-- csv -->
     <g transform="translate(895.404228 68.535375)scale(0.12 -0.12)">
      <use xlink:href="#DejaVuSans-99"/>
      <use x="54.980469" xlink:href="#DejaVuSans-115"/>
      <use x="107.080078" xlink:href="#DejaVuSans-118"/>
     </g>
    </g>
    <g id="line2d_63"/>
    <g id="line2d_64">
     <g>
      <use style="fill:#008000;stroke:#008000;stroke-width:2;" x="951.356103" xlink:href="#ma2c03445ad" y="64.335375"/>
     </g>
    </g>
    <g id="text_56">
     <!-- csv.gz -->
     <g transform="translate(972.956103 68.535375)scale(0.12 -0.12)">
      <use xlink:href="#DejaVuSans-99"/>
      <use x="54.980469" xlink:href="#DejaVuSans-115"/>
      <use x="107.080078" xlink:href="#DejaVuSans-118"/>
      <use x="166.150391" xlink:href="#DejaVuSans-46"/>
      <use x="197.9375" xlink:href="#DejaVuSans-103"/>
      <use x="261.414062" xlink:href="#DejaVuSans-122"/>
     </g>
    </g>
    <g id="line2d_65"/>
    <g id="line2d_66">
     <g>
      <use style="fill:#0000ff;stroke:#0000ff;stroke-width:2;" x="1046.624853" xlink:href="#mdd0adbec6a" y="64.335375"/>
     </g>
    </g>
    <g id="text_57">
     <!-- snappy.parquet -->
     <g transform="translate(1068.224853 68.535375)scale(0.12 -0.12)">
      <use xlink:href="#DejaVuSans-115"/>
      <use x="52.099609" xlink:href="#DejaVuSans-110"/>
      <use x="115.478516" xlink:href="#DejaVuSans-97"/>
      <use x="176.757812" xlink:href="#DejaVuSans-112"/>
      <use x="240.234375" xlink:href="#DejaVuSans-112"/>
      <use x="303.710938" xlink:href="#DejaVuSans-121"/>
      <use x="362.671875" xlink:href="#DejaVuSans-46"/>
      <use x="394.458984" xlink:href="#DejaVuSans-112"/>
      <use x="457.935547" xlink:href="#DejaVuSans-97"/>
      <use x="519.214844" xlink:href="#DejaVuSans-114"/>
      <use x="560.3125" xlink:href="#DejaVuSans-113"/>
      <use x="623.789062" xlink:href="#DejaVuSans-117"/>
      <use x="687.167969" xlink:href="#DejaVuSans-101"/>
      <use x="748.691406" xlink:href="#DejaVuSans-116"/>
     </g>
    </g>
   </g>
  </g>
 </g>
 <defs>
  <clipPath id="p0d8db7dd7a">
   <rect height="380.52" width="328.235294" x="60.4075" y="48.61725"/>
  </clipPath>
  <clipPath id="pc46fee030b">
   <rect height="380.52" width="328.235294" x="454.289853" y="48.61725"/>
  </clipPath>
  <clipPath id="p7ef1d37efa">
   <rect height="380.52" width="328.235294" x="848.172206" y="48.61725"/>
  </clipPath>
 </defs>
</svg>
